<?xml version="1.0" encoding="UTF-8"?><svg id="Layer_1" xmlns="http://www.w3.org/2000/svg" viewBox="0 0 1024 1024"><path d="M653.12,236.51c-2.37,1.97-4.86,12.17-1.1,15.05,2.01,1.54,7.74,1.15,6.66,3.34-1.57,3.21-7.78.63-10.09,2.18-2.67,1.81,1.76,13.63,3.9,15.23,3.24,2.42,10.45-3.36,11.74,3.77-.86,6.42-6.07,5.37-10.65,7.2-.54,17.47,13.79,21.57,21.3,4.55,4.79-1.16,4.18,15.26,1.17,17.91l-7.32,7.74h44.07c19.08,0,48.38-17.28,53.8-36.58,3.73-13.29-7.73-14.15-11.83-22.12-14.98-29.12,55.96-49.15,66.8-21.63-16.9.87-24.24,18.17-40.15,20.1l8.85,5.08c10.03,7.14,4.94,9.9-4.39,12.77,3.42,3.76,5.49,8.34,6.21,13.42-4.83,3.79-10.66,2.71-15.13-1.16,3.34,7.95-3.37,14.37-.01,22.3l-11.14-5.57-1.12,13.38c4.63.93,1.09-8.76,2.23-10.03,4.1,1.23,6.97,4.34,11.7,4.48,3.73.11-.67-2.42,1.12-3.37,3.08,1.17,3.6,8.51,3.96,8.86.47.45,3.49-.28,4.88.12,3.11.9,6.07,2.92,9.36,3.51,2.48,11.18,5.59,19.11,1.38,30.51-2.08,5.63-7.04,10-7.88,16.12-13.24-3.02-8.32-18.5-13.93-26.75-5.84,5.84-4.27,13.05-7.94,19.93-2.62,4.9-8.08,9.76-11.44,14.49-.46.65-2.62,1.73-1.26,3.48,1.6,2.06,2.48-1.58,2.87-2.11,3.01-4.05,6.61-8,9.39-11.84,1.75-2.41,2.31-5.76,4.46-7.25v49.64c0,1.56-1.73,8.98-2.3,11.09-.36,1.34-6.38,18.05-8.85,15.12,2.66-18.23.54-36.66-6.71-53.54l-2.19,1.66c7.75,13.26,9.2,31.76,7.77,46.85-.51,5.42-3.03,10.98-3.37,16.7-.52,8.61,2.75,14.52,2.11,22.75-2.35,1.61-11.1,2.09-12.11-.65-.91-7.04-2.7-12.56-2.26-19.87.34-5.72,2.86-11.28,3.37-16.7,1.09-11.53-.79-23.74-2.23-35.13-3.82,1.84-.16,8.55.05,12.79.78,15.38-1.97,25.17-3.25,39.22-.78,8.63,2.01,12.78,3.06,20.83-9.96,9.47-13.8,1.29-15.2-8.95-1.3-9.54,2.4-16.56,3.12-25.36.36-4.33.14-10.11-.04-14.55-.06-1.35.84-4.15-1.1-3.89,2.43,13.16-4.36,27.35-4.51,39.65-.11,8.57,11.46,23.6-8.36,18.38-.41-4.77-3.71-10.7-3.94-15.13-.19-3.69,1.33-8.83,1.74-12.79.12-1.18,1.62-3.57-.55-3.34-5.16,11.29-.29,21.98-.17,33.3-2.9,1.23-7.2,1.99-10.23,1.06-3.37-1.04-2.28-5.39-5.22-6.48l1.73,6.69c-1.81,2.53-4.45,2.42-7.33,2.24-1.1,4.86,6.11.44,6.69,1.12,3.73,18.12-9.91,28.63-13.37,44.61l13.71-25.88c1.93-7.29,2.95-14.68.79-22.09,6.61,4.99,11.36.39,17.83-1.11,3.11,12.66-.57,24.27-6.49,35.33-6.81,12.72-18.01,24.04-18.05,39.41l-7.27-2.21-3.87-7.83-3.35,13.38,4.47-5.58,3.16,3.71c-1.81,7.14-11.5,7.12-12.1,14.13,10.01,1.79,11.12-4.4,15.07-11.18.85-1.46-.19-2.8,2.77-2.19.91,12.61-7.47,25.26-21.18,20.08-1.2,3.89,5.16,2.24,5.63,4.04,2.75,28.32,9.03,56.3,14.98,84.1,4.52,21.13,11.54,41.92,14.72,63.37,2.03,13.68,4.69,19.45-8.65,27.46-5.72,3.43-13.49,4.94-18.88.07,4.06-1.39,10.6,3.57,11.98-3.08l-12.17-73.71-6.5-2.99,7.81-1.1-10.06-61.35-10.02-1.14,11.19-2.96-1.71-28.26-14.45,23.47c.33,23.15,5.51,46.62,8.17,69.82,2.91,25.35,5.08,50.88,7.44,76.27-8.76,7.76-15.94,13.3-28.49,11.15,1.15-2.34,5.86-.43,8.2-2.12,1.21-.87,1.35-3.63,1.61-5.1-2.5-8.99-3.81-70.02-6.72-72.83-1.11-1.08-3.76-1.17-5.32-1.38l7.65-1.24.88-2.79-6.85-55.07-13.98,15.11,3.42,59.02.55,59.72c-7.19,5.8-17.65,11.55-26.24,5.03h8.94c4.34-4.4,1.15-9.62,1.05-14.45-.4-20.41.34-40.87.11-61.28l-10.12-3.47,13.4-.55c.31-11.06,0-21.93-1.15-32.9-.17-1.63.98-3.27-1.63-2.8l-15.1,10.82-3.9,98.49c-7.76,7.96-19.13,14.77-29.54,7.26,1.71-1.23,3.71.89,6.05.61,4.63-.55,3.99-6.32,4.96-9.67l4.69-65.72-5.12-3.72c-3.68,5.13-7.12,10.57-8.74,16.77-4.77,18.3-4.92,40.27-9.07,58.98-4.87,2.68-10.26,7.1-15.96,7.56-5.21.42-8.71-2.73-13.54-3.04l-22.96,40.08-23.4-38.7c-8.09,4.31-16.8-1.16-23.38-5.99-5.31-15.36-3.72-36.68-8.78-51.47-2.34-6.85-10.28-14.45-11.95-22.09l-3.19,1.87,5.43,71.2c.8,4.42,5.92,3.34,8.92,4.45-7.09,5.36-22.72-1.05-27.24-7.33-1.4-1.95-1.6-4.78-1.8-7.12-1.41-16.71-1.62-36.59-2.23-53.54-.22-6.13,1.23-34.32-1.06-36.87-.59-.66-14.24-9.19-15.1-9.45-1.54-.48-1.98.12-1.65,1.64l-.96,28.87,1.68,1.67,11.57.71-9.01,3.46-1.04,73.51c.07.88.27,1.76,1.05,2.3,2.12,1.47,6.99-.97,7.87,1.59-6.83,3.48-23.56-1.56-24.59-9.41-1.46-11.09,1.06-23.63,1.22-34.59.36-25.74-.26-51.34,2.16-77l-13.93-15.07c-2.52-.47-1.54,1.1-1.66,2.76-1.1,15.69-3,31.25-4.55,46.9.06,1.17.07,2.65,1.13,3.39,2.11,1.48,7-.97,7.87,1.59l-6.74,1.86-5.58,68.94.6,7.32,8.37,3.32c-12.01,2.09-18.85-3.57-27.64-10.26,1.65-23.79,3.76-47.92,6.46-71.71,2.63-23.17,7.65-46.62,8.31-69.69l-14.46-21.23c.58,5.01-4.65,20.32,1.34,22.08,2.48.73,7.09-1,8.14,1.33l-8.73,1.31-11.21,59.42,7.67,2.31-5.62,2.41-12.07,77.2c3.06,2.19,5.57.48,8.35.3,1.27-.08,4-1.07,3.76.96-8.89,4.13-13.88,2.76-21.56-2.41-12.71-8.56-8.28-15.35-5.97-29.02,3.29-19.53,9.46-38.48,13.61-57.79,6.42-29.91,13.17-59.89,16.15-90.37-13.38,4.7-22.27-7.29-20.06-20.08l7.83,11.69,8.9,1.69c-.07-8.39-10.18-6.34-12.24-15.06,4.54-4.79,4.27,1.08,7.77,2.8l-3.35-13.38c-2.04.13-.74,3.49-1.67,5.56-.98,2.19-7.02,6.26-8.94,3.38-.94-16.63-14.19-28.61-20.81-42.78-.83-1.77-4.27-10.22-4.27-11.35v-17.85l2.6-1.52c5.17,3.24,9.81,4.81,15.25.96v18.41l14.49,29.56c-2.83-15.91-16.75-26.77-13.37-44.61.58-.68,7.79,3.75,6.69-1.11l-6.68-1.17,1.08-7.76c-1.81-.12-1.12,2.41-2.16,3.95-2.45,3.62-11.09,4.19-12.91.5-.12-10.75,6.54-22.14-1.1-32.35.26,5.97,2.31,10.99,1.68,17.3-.21,2.15-2.27,10.81-3.06,12.54-1.91,4.15-11.33,3.48-12.4-.53-.55-4.55,2.58-9.04,3.09-13.23,1.05-8.59-2.51-15.5-3.24-23.35-.58-6.24,1.7-14.19-1.69-19.51-3.56,15.25,4.51,29.84,2.53,44.91-.17,1.29-2.61,9.91-3.07,10.31-2.29,2.01-9.92,1.9-11.01-1.27-1.36-3.92,2.51-15.62,2.11-22.21-.34-5.72-2.86-11.28-3.37-16.7-1.09-11.54.64-23.75,2.21-35.13-2.49.98-2.7,5.28-3.02,7.56-1.01,7.19-1.94,17.07-1.41,24.21.62,8.38,5.31,19.51,4.21,27.62-.21,1.54-3.57,13.33-4.16,13.74-1.35.94-6.49.78-8.21.27-6.89-2.05.21-14.19.22-19.17,0-7.12-3.7-16.3-4.33-23.57-1.37-15.84,1.99-31.7,7.79-46.27-1.84-1.98-5.02,5.48-5.41,6.29-6.68,14.03-8.86,31.02-11.86,46.15-1.26,2.26-4.88-2.51-5.53-3.44-12.66-17.98-1.81-34,1.28-53.24.96-5.96,1.75-12.01,1.45-18.08l14.51,21.19,3.31-1.67c-4.15-4.84-10.64-10.99-13.59-16.5-2.72-5.08-2.32-9.45-4.79-14.15-3.83,5.01-5.45,11.22-9.51,16.13-1.27,1.54-4.64,5.89-6.7,4.53-.79-.52-8.39-14.89-8.95-16.72-1-3.26-2.11-9.76-1.93-13.1.11-2.06,3.17-14.93,4.12-16.06.46-.55,8.9-4.18,10.11-4.46,1.52-.35,3.24.79,3.36.66.38-.43,2.11-8.9,5.05-10.05v4.47s11.7-4.48,11.7-4.48c.35.49-1.01,14.27,2.24,10.03v-14.5s-12.26,6.68-12.26,6.68c3.79-7.46-2.56-14.86-.01-22.3-4.37,3.81-9,4.38-14.39,2.12-.18-5.58,2.26-11.01,6.59-14.38-9.45-2.39-15.69-4.73-5.5-12.77l9.96-5.08c-16.67-1.17-23.84-19.7-41.27-20.11,11.14-29.01,86.38-5.12,66.33,23.4-1.84,2.62-5.05,3.8-7.26,6.13-8.3,8.75-3.63,16.24,2.03,24.84,19.37,29.47,58.84,26.19,89.83,25.99,2.66-4.24,7.12-6.22,10.19-10.14,7.86-10.05,7.11-21.9,20.74-27.23,6.8-2.66,9.44.13,12.23-9.04l6.64.7,1.74,7.75.55-7.81,6.21,1.05,1.06,6.77c3.4.99.82-7,1.66-7.82,12.46-1.44,3.71,4.26,8.92,8.93v-8.93s6.71,0,6.71,0l1.1,7.81c-.45-6.21-.7-9.05,6.13-10.04,3.39.48-2.55,9.97,2.8,8.92l.51-8.97,5.06-2.18c.3.4-.91,13.03,2.24,8.92l.18-9.86,7.06-3.53c1.19-.03.18,7.54.76,9.34.16.49,5.73,5.63,6.93,7.54,5.71,9.06,8.02,21.05,14.29,30.33,2.5,3.71,5.52,9.57,10.94,6.91-6.71-4.46-11.25-10.82-13.98-18.37-.38-1.05-1.47-3.63.59-3.38,1.56,4.04,3.69,9.9,6.22,13.31.89,1.19,9.3,9,9.97,9h54.11c-1.76-2.26-6.69-9.2-6.69-11.71v-16.18c4.23-.35,2.92,4.37,3.9,6.7,4.97,11.9,14.71,11.65,22.91,2.81.77-.83,6.34-8.06,3.88-7.28-4.29,4.2-22.81,7.25-25.1,1.66,17.37-6.84,19.73-19.97,25.63-35.7-9.59-3.17-16.87-10.11-17.82-20.63,3.97.48,6.46,4.1,10.72,4.41,9.57.7,16.16-6.7,17.16-15.57-14.98,1.51-24.57-16.35-19.53-29,7.12,9.76,24.7,12.87,29.38-.38-9.59-12.52-10.58-29.12.75-40.89,2.35,2.87,1.15,6.9,2.16,10.1,1.33,4.22,10.35,10.79,15.12,9.97-3.57-9.76-1.57-23.31,8.92-27.88-1.51,13.62,5.5,23.86,18.37,27.92,3.23-3.21-.91-6.76-1.43-9.81-.96-5.59,3.11-9.14,7.6-11.42-1.23,15.16,7.15,15.08,15.93,21.16,3.9,2.71,2.02,7.4,10.31,1.18l1.66,6.67,11.24.47c1.89,1.31-.25,5.24,2.88,7.16,11.22,6.92,39.32-5.32,35.8,20.52-.46,3.39-3.36,16.23-8.49,12.96l-3.03-7.73c-7.83,1.4-14.71,7.6-22.5,8.7-13.05,1.85-29.02-7.78-39.31,4.21,3.11.71,5.34-2.98,8.62-3.66,8.26-1.7,17.16,1.61,25.36,2.02s19.59-1.31,26.83-.05c1.31.23,1.99.6,2.76,1.68-3.64,3.1-8.4,4.87-13.1,5.85-7.84,1.62-38.97,1.68-42.66,4.75,11.25-6.39,26.34-3.7,39.49-5.69,4.05-.61,7.87-2.32,11.82-3.25.27-1.94-2.54-1.05-3.88-1.1-5.18-.2-10.45.34-15.62-.01-8.06-.55-23.95-4.6-30.73-2.8-3.91,1.03-5.77,5.33-10,5.04,1.92-16.72,25.4-7.79,35.94-8.11,11.36-.35,17.9-8.92,28.57-8.43,1.19.73,2.12,9.93,4.63,7.61.69-.64,4.28-13.42,4.41-15.21,1.08-14.75-18.49-13.03-28.25-13.91-2.35-.21-5.17-1.85-7.04-1.85-3.02,0-7.93,6.59-13.7.85-2.47,7.01-5.96,14.58-12.28,18.97l11.23-20.01c1.12-.81,16.66,7.36,11.14-7.39-12.65-3.69-15.18,12.3-21.29,20.12-2.71,3.47-12.79,11.4-13.9,13.99-.69,1.61-4.09,10.64-4.51,12.21-3.4,12.43,4.46,14.37,13.98,8.97ZM621.89,180.72c-5.64-6.38-11.12-12.66-11.24-21.73-.04-2.98,1.03-5.57.64-8.37-7.86,10.9-4.61,28.71,10.59,30.1ZM588.42,158.42c-3.18-.59-1.83.78-2.51,2.45-7.52,18.42,2.03,37.01,23.7,29.88l-12.82-7.8c-5.48-6.19-11.64-16.03-8.37-24.53ZM637.45,189.7l-6.65-.05c-3.66,13.19,20.69,11.37,20.1,1.69-2.73-2.39-2.67,3.08-5.61,4.44-8.17,3.76-7.25-5.47-7.84-6.07ZM589.53,208.63c-9.96,3.81-17.78,4.01-25.13-4.44-1.74-2-1.98-4.67-3.87-5.6-.66,9.52,3.85,18.94,13.57,21.54s8.99-6.24,15.42-11.5ZM587.3,230.92c8.84-.45,18.06-6.09,22.79-13.45,1.82-2.83,2.82-5.99-1.9-5.31-7.48,1.09-15.65,13.66-20.89,18.76ZM623,220.89c-10.18-.43-13.07,13.18-20.07,18.95,5.95,2.34,24.75-14.23,20.07-18.95ZM554.96,238.74c8.2,24.3,51.18,9.73,50.18-13.39-5.42,5.92-15.57,5.74-21.13,8.42-2.35,1.13-6.22,6.06-9.93,7.92-7.63,3.82-12.81,2.62-19.12-2.95ZM600.7,278.9c3.16-1.97,6.61-4.27,8.91-7.26,4.23-5.49,9.63-24.15,11.74-31.77.87-3.15,1.45-6.79,1.64-10.06-2.52,2.9-9.34,6.78-10.92,9.71-3.51,6.53-2.92,19.65-5.23,27.12-.73,2.37-7.02,11.24-6.14,12.25ZM595.11,246.56c-.51-.42-7.95,2.96-8.63,3.63-1.9,1.88-8.19,15.27-11.21,19.47s-6.29,8.48-10.27,12.04l-16.75,9.46c27.23,2.57,35.61-25.65,46.85-44.6ZM539.34,294.52c.43,6.16,2.29,16.11,8.97,18.35,3.47,1.16,17.66,1.11,21.73.64,6.4-.75,12.35-9.12,15.95-14.18,10.86-15.27,16.57-32.91,13.58-51.66l-13.53,37.21c-6.47,15.08-29.35,34.78-43.16,16.71l-3.52-7.06ZM646.23,256.75l-12.06-6.86c.59,8.83,13.17,29.61,21.99,31.06,5.68.93,9.39-7.31,3.36-7.36-3.16-.02-5.05,2.58-8.69-.78-4.65-4.29-4.02-15.45-4.6-16.06ZM624.11,257.7c-2.98-.29-1.8-.02-2.2,1.67-2.44,10.23-3.88,27.48-.54,37.34,2.85,8.43,12.98,19.69,22.84,16.76-9.7-7.04-14.27-17.91-15.48-29.69-.51-4.93.64-11-.19-15.43-.62-3.3-5.02-6.51-4.42-10.65ZM473.51,313.48c-.22-5.52-4.78-8.94-7.22-14.52-3.9-8.88-4.86-22.71-15.08-26.74,10.85,12.03,8.97,26.44,19.41,39.17.95,1.16.02,2.79,2.9,2.09ZM448.78,274.67c-.66-.38-3-.74-3.15.32,7.75,10.52,8.11,23.52,11.51,35.37,1.58,5.5,3.95,3.84,3.41-1.11-.62-5.72-7.5-32.1-11.78-34.57ZM446.74,313.48c2.14.34,2.98-.87,3.33-2.79,1.77-9.69-3.35-28.49-11.14-35.14,5.19,12.06,7.21,24.81,7.8,37.92ZM395.42,276.68c-14.11,4.51-13.6,25.29-20.07,36.8,11.87,1.32,7.89-5.19,9.06-12.68,1.48-9.48,3.16-17.93,11.01-24.12ZM402.11,276.68c-4.61.51-6.9,6.49-8.12,10.28-2.6,8.1-2.82,17.99-3.04,26.53,1.93.04,6.01.53,6.57-1.77-1.54-12.24-5.04-25.24,4.59-35.04ZM402.12,313.48c12.66,2.17,4.64-17.86,4.4-25.08-.13-3.8.8-4.78,1.38-7.64.36-1.78,1.95-2.24-.76-4.07-12,9.58-1.67,24.48-5.01,36.79ZM387.61,277.79c-14.42,5.66-15.51,26.19-27.89,35.68,3.26-.23,7.74,1.11,10.11-1.59,5.71-11.21,7.83-25.92,17.78-34.09ZM417.73,277.79c-.55-.55-3.86.98-4.46,1.67-4.14,4.85,2.76,26.83,1.11,34.03h5.59c.38-12.05-6.91-24.2-2.24-35.7ZM435.58,296.19c.56,5.48-.41,11.71,0,17.29,3.51.06,5.54-4.29,5.65-7.27s-4.67-27.37-5.78-28.3l-4.35.44c1.15,5.51,3.92,12.39,4.48,17.83ZM426.52,279.04l-4.35.51c-1.72,11.97,4.48,22.15,3.37,33.93,2.72-1.43,4.12-5.45,4.47-8.34s-2.48-25.27-3.5-26.11ZM650.64,283.61l-9.78-4.71c-3.78,26.27,36.08,52.14,35.68,12.28-1.4-1.61-6.97,7.5-8.94,8.34-5.92,2.5-10.7-.13-13.6-5.32-1.48-2.64-2.84-10.05-3.36-10.58ZM589.53,313.47c8.12,1.37,12.91-3.28,16.22-9.99,4.02-8.14.94-13.56,1.62-22.35l-9.84,21.94-8,10.4ZM786.99,315.71H237.01l96.44,166.29c-2.81,72.24,35.22,137.74,98.64,171.34l79.92,137.6,80.38-138.26c63.52-32.33,101.02-99.32,98.41-170.45l96.2-166.52ZM592.88,658.21c-2.99-.64-1.92.78-2.77,2.2-1.95,3.25-5.17,8.22-6.36,11.56-.4,1.14-1.59,1.09.17,2.43l7.35-.52,1.6-15.68ZM537.1,754.13c2.74-.05,7.49,2.71,9.51.03l4.98-25.68c-2.4,2.5-15.48,24.55-14.49,25.65ZM481.3,740.76l-2.19.53c2.95,5.57-.11,15.14,8.9,13.96l-6.71-14.49Z"/><path d="M907.48,705.07c11.95,11.9-1.11,28.36-13.38,33.48v1.62c11.84,9.97,7.04,35.38-2.75,45.26-19.22,19.4-54.7,26.05-80.95,26.15-4.34,8.87-8.69,15.25-16.19,21.74-16.84,14.58-36.97,16.24-51.76,31.98,4.9,6.54,9.92,11.38,10.19,20.25,11.11,4.39,24.1,5.62,36.01,4.68,14.64-1.16,32.85-10.14,45.75-10.11,33.16.1,39.34,43.98,12.46,60.52-27.42,16.87-50.46,11.97-77.36-2.23-5.67-2.99-10.69-7.79-16.69-10.09-15.41-5.89-12.55-.09-21.59,8.23-39.61,36.49-85.88-.76-124.35,12.87-6.94,2.46-14.03,8.6-21.81,10,12.35,8.95,23.08,13.54,19.81,31.52-1.25,6.91-5.04,8.03-11.47,7.52-9.08-.73-4.73-7.38-6.61-13.45-2.86-9.24-25.62-13.52-34.08-15.55-1.01.91,12.92,17.42,14.27,19.74,3.16,5.42,5.66,11.1,4.62,17.56-1.58,9.78-19.91,17.08-18.91,2.85-4.24,4.3-8.59,1.43-12.89,1.26-.5-.02-.35,1.8-1.3,2.02-24.49,5.74-28.36-21.5-43.26-34.49-8.73,12.85-23.82,21.77-39.61,21.17-.01-1.51-.28-3.07.55-4.47.47-.8,12.74-7.56,15.6-10.06,1.41-1.24,5.95-4.53,4.5-6.65-10.09,8.14-20.63,13.25-29.54,22.89-2.68,2.9-10.67,16.18-11.29,2.23-.82-18.61,25.47-18.68,24.7-37.98-.71-17.72-12.94-16.54-25.13-25.02-29.82,13.07-56.63,31.98-90.69,22.58-8.07-2.23-15.18-6.55-20.13-13.33-3.63-4.96-4.41-9.81-7.53-14.74-17.66,3.73-37.57,8.78-55.74,7.72-13.07-.76-30.91-5.96-43.51-10.04-3.56-1.16-7.95-5.65-10.35-1.51-4.36,7.51-2.58,15.61-12.53,22.05-3.42,2.21-10.49,2.66-10.92,3.03s-.32,2.61-1.22,3.75c-4.55,5.74-5.75-.69-8.72-1.54-2.02-.58-4.27,1.22-6.28-.22-4.66-3.33.18-9.18,4.88-8.89-10.26-17.13,7.81-30.85,21.11-38.58-6.13-13.38-12.28-29.96,2.31-40.05-18.18-16.57-58.69-19.01-66.15-45.41-3.63-12.85-1.67-25.7,3.68-37.69-15-4.44-29.39-25.51-18.96-40.16-4.37,1.32-5.9-5.21-4.31-7.67.71-1.1,5.53-.78,6.33-1.47,1.62-1.4-1.05-7.46,6.1-5.14,3.6,1.17,3.58,4.68,1.92,7.57,10.39-.81,12.65-.18,18.3,7.92,5.48,7.84,8.59,15.82,7.36,25.55,25.99-7.73,41.77,2.51,54.42,24.24.38.65.16,2.27,1.9,1.42,1-.49,8.37-12.1,9.36-14.08,3.51-7.06,4.43-20.63,12.4-21.63-.57-1.86-2.92-1.95-4.48-3.87-1.67-2.05-3.21-5.14-3.35-7.79.88-9.4,30.4-6.45,37.11-7.62,1.16-.2,2.28-.7,3.47-.76,3.38-6.68-4.72-5.87-8.81-5.65-17.82.95-38.81,10.29-55.96.27-6.04-3.53-27.76-25.7-20.13-32.31,3.23-2.8,25.61-.53,29.31,1.92,1.2.79,2.69,2.42,2.73,3.92-1.15,5.24-6.12,8.12-9.99,11.18,2.62,3.87,7.44,2.95,11.69,2.77,15.95-.66,65.68-14.54,67.52,11.75,1.29,18.32-27.33,14.57-37.96,18.93-5.74,2.36-3.25,5.66.81,8.23,13.41-5.73,10.28,3.03,14.77,8.56,1.96,2.42,5.42,2.08,7.27,3.88,2.77,2.69,4.99,12.03,10.06,14.46,1.7.02,8.62-15.71,12-18.22,6.95-5.17,10.26-.78,16.75-2.09,7.73-1.56,10.7-11.24,21.54-6.53,4.14,1.8,7.23,7.7,10.6,9.48,4.06,2.15,9.23.98,13.03,2.59,3.14,1.34,3.9,5.23,6.37,7.01s7.55,2.02,9.24,3.6c3.13,2.93,4.25,16.6,11.29,18.1,1.37.29,7.13-.84,8.33-1.56,2.33-1.4,2.31-7.8,4.58-10.19,2.81-2.96,18.08-8.75,22.14-7.54,3.16.95,4.42,6.45,10.25,6.51,8.87.09,10.75-8.86,15.42-7.68,2.84.72,13.16,17.92,16.44,21.56,11.82,13.1,35.11,18.92,49.79,27.18,10.18,5.73,19.07,15.79,31.08,19.13,10.95-5.34,16.07-15.51,19.66-26.58,2.34-1.46,8.19,1.88,11.15,1.49,4.58-.61,8.64-6.26,14.91-6.24,9.18.03,6.46,9.35,11.11,13.55,3.82,3.44,14.1,4.91,18.4,8.37,2.62,2.11,2.79,5,5.06,7.19,4.81-11.95,3.93-26.02,12.24-36.82,3.27-4.25,13.68-14.06,18.43-16.15,8.29-3.65,14.79-2.62,23.43-1.67-2.9-16.28,20.01-45.84,35.71-28.16,13.77,15.51-6.3,32.57-18.96,39.86,13.65,20.35.17,47.31-11.17,65.83l18.47,4.94c1.65-.1,7.03-4.64,8.14-6.22,5.07-7.23,10.65-23.43,15.58-32.39,12.46-22.62,38.63-62.56,63.2-71.79,15.92-5.98,32.48-5.93,36.83,13.4,11.49-5.52,18.63-14.2,26.21-23.97-11.87-4.07-26.23-9.69-26.83-24.53-.1-2.46,1.24-6.92,1.04-7.76-.3-1.23-4.35-1.41-3.93-6.62.37-4.59,4.61-2.58,6.07-4.3.88-1.03.44-4.06,1.63-5.07,4.3-3.67,9.1,3.32,7.55,7.56,16.22-3.11,21.55,15.87,25.09,27.88,7.55-7.17,15.24-11.02,25.74-12.19-.07-10.7,2.29-29.86,14.67-33.31,1.69-.47,5.18.16,5.79-.34.72-.6-.19-7.02,5.17-6.54,2.32.21,2.94,2.57,4.65,3.08,3.74,1.12,9.26-1.8,7.95,4.97-.7,3.61-2.96,4.59-6.5,4.18ZM880.82,733.95c3.36.05,6.91,2.95,10.2,2.14,5.46-1.35,17.47-14.49,17.3-20.24-.12-4.14-7.47-11.26-11.51-11.86-14.68-2.19-17.41,19.54-15.98,29.97ZM200.75,709.52c-5.87-1.23-15.41.9-21.75,0-.32,5.52,3.41,10.88,6.72,15.04,11.09,13.92,20.94,16.32,38.51,15.13,7.56-.51,46.13-12.1,40.5,4.8-7.53,9.01-34.33-.66-40.1,7.95-2.99,4.46,8.65,12.76,12.37,15.1,1.48-1.57-6.53-4.76-5.62-10.56,1.02-6.53,21.7-4.87,28.17-6.5,11.98-3.01,22.11-14.08,7.88-21.72-15.16-8.14-41.23.24-57.75.84-18.26.66-17.82-6.74-5.05-16.23.34-1.59-2.93-3.63-3.87-3.83ZM828.85,721.21c-3.24-.08-8.87,2.88-10.49,5.72-4.65,8.15,2.15,17.72,9.32,21.67,3.84,2.12,17.35,7.77,17.93.55.62-7.65-7.39-27.73-16.76-27.94ZM810.42,806.57h20.64c3.75,0,20.61-4.66,25.11-6.12,10.01-3.24,28.33-12.74,34.39-21.39,9.28-13.23,9.93-38.56-10.36-40.59-26.06-2.6-32.89,20.35-47.59,35.08-3.96,3.97-17.54,11.5-18.94,13.41-2.62,3.59.45,14.74-3.26,19.61ZM130.88,745.38c-28.4,2.56-13,34.79,6.24,38.92,9.21-4.21,9.63-9.96,8.31-19.46-.45-3.24-10.02-22.1-13.29-19.61l.57,4.44-1.83-4.29ZM249.26,782.03l8.41,24.55c4.46-2.32,9.71-4.52,11.53-9.69l-10.48-15.94c-7.99-2.51-8.43-6.99-12.21-13.33-6.02,3.79-13.15,6.8-18.99,1.04-1.32.02-6.29,16-7.76,18.99-1.85,3.77-11.54,16.61-11.79,18.41s2.78,14.79,3.48,17.69c.32,1.32.44,2.68,2.12,2.89l14.5-42.39c-1.94,12.12-4.98,24.08-8.12,35.93-2.35,8.89-7.69,15.32-3.01,24.3l15.36-11.96,3.6-43.81c1.38-1.81,2.02.02,2.23,1.65,1.52,11.91-1.5,25.4-1.11,37.39l16.6-18.58-6.55-26.62,2.2-.53ZM697.04,789.12c.5-.74,2.04-1.01,2.7-2.25,2.91-5.43.97-14.25-4.56-17.33-14.29-7.97-27.43,16.2-25.15,28.5l9.95,5.79,8.29-5.05c1.95-1.15-4.39-1.51-.59-2.81,2.05-.7,4.25-.29,6.24-1.57,2.11-1.36,2.02-3.66,3.12-5.27ZM315.1,805.46v18.41c0,5.08,6.46,25.82,8.72,31.44,1.89,4.68,17.71,32.96,20.96,33.58,22.88-4.75,42.95,7.36,63.45,14.76,3.11,1.12,7.36,3.07,10.61,2.78-2.19-2.3-2.05-5.9-3.96-8.31-4.24-5.35-22.66-16.79-29.52-22.91-12.55-11.21-28.02-27.22-36.26-41.83-3.33-5.9-7.41-13.22-7.22-20.1,2.96-.56,1.94.63,2.73,2.23,13.07,26.77,22.64,39.94,45.83,59.09,5.29,4.37,17.63,14.43,23.42,16.75,1.99.8,1.45-.72,1.76-1.52,3.92-10.08,8.75-19.41,21.09-19.67-4.82-5.38-10.98-10.67-17.04-14.74-9.8-6.58-29.27-13.57-35.98-22.03-4.88-6.16-8.45-16.1-12.95-22.74-1.71-2.52-4.89-4.05-7.43-8.19-1.55-2.52-4.22-10.53-4.94-11.24-1.37-1.34-6.11-1.24-8.66-3.05-2.17-1.54-3.28-5.59-5.62-6.66-3.56-1.63-9.51-.7-13.78-2.95-3.22-1.69-6.97-8.1-9.64-9.32-7.28-3.35-12.44,5.68-18.64,6.97-5.6,1.16-10.63-2.13-14.78.85-5.2,3.72-10.86,20.81-17.44,27.18-4.18,4.05-11.34,6.56-16.07,10.7-5.47,4.79-7.73,10.49-12.23,15.66-5.97,6.85-13.74,10.47-20.1,16.71,4.64.71,9.31-1.59,13.91-1.73,5.61-.18,10.7,1.08,15.85,3.2,4.02,1.66,10.52,7.55,13.68,6.36,11.16-4.2,20.02-26.29,23.52-36.81,1.92-5.77,2.92-13.08,5.05-18.43.72-1.8-.11-2.73,2.73-2.22-4.32,24.53-8.12,46.88-28.98,63.02,10.57,8.55,41.07,47.55,54.95,43.9,3.26-.86,9.52-14.1,16.42-13.24.64-.91-5.88-9.14-7.15-11.23-12.09-19.94-21.85-44.54-19.48-68.38.16-1.66.33-7.33,3.21-6.27ZM738.85,863.36c7.42-13.35,24.56-16.02,37-22.74,7.23-3.9,20.44-14.05,25.01-20.73,7.24-10.61,14.38-47.26-3.34-50.05-26.16-4.13-48.3,24.43-61.64,43.08-12.32,17.22-22.29,35.95-31.44,55,11.45-5.24,21.84-9.39,34.41-4.56ZM166.35,775.77c-18.41.06-33.56,15.19-34.26,33.55-1.53,40.14,41.74,37.41,65.84,57.05l2.58.3c2.42-.63,14.11-14.52,14.1-17.14-8.81-17.54-6.38-40.4-18.43-56.24-6.93-9.11-17.89-17.55-29.84-17.51ZM431.14,790.96c-1.95,7.32-14.15,7.66-19.77,4.68-2.15-1.14-4.14-4.16-5.58-4.52-2.25-.58-14.81,4.62-16.48,6.57-3.59,4.18-2.66,12.98-12.86,12.25-.16,1.2.1,2.27.49,3.4.51,1.48,10.21,17.87,11.22,18.9,5.37,5.47,23.02,12.56,30.59,17.38,8.18,5.19,18.64,16.32,25.85,19.89s10.72.76,15.76,9.92c.86,1.56.45,3.75,1.18,4.94,2.39,3.89,19.58,9.32,19.94,17.98l21.03,1.85c-30.65-24.78-64.88-46.09-89.24-77.53.96-.88,5.68,3.03,6.71,3.88,7.68,6.34,14.72,15.53,22.28,22.34,21.82,19.67,50.65,39.72,74.83,56.81,1.15.81,10.08,5.82,10.82,6,4.24,1.06,28.16-11.18,33.37-14.11,4.67-2.62,9.26-5.61,13.73-8.56-20.25-12.06-43.18-18.51-64.65-27.93-20.31-8.91-41.58-21.37-60.19-33.52-4.05-2.64-8.64-5.16-11.24-9.38l60.61,34.77,81.02,31.65,13.44-.62c-11.27-11.49-26.76-20.6-42.15-25.33-8.04-2.47-16.49-2.72-24.42-5.7-12.37-4.64-20.74-14.2-31.55-19.77-13.96-7.18-35.92-13.89-47.34-25.17-3.28-3.24-14.01-20.45-15.75-21.07h-1.64ZM617.43,910.32c.91.84,17.68-10.56,19.76-12.02,23.7-16.67,50.17-44.79,45.96-76.57-2.43-18.29-25.52-26.67-40.86-18.73-26.29,13.6-21.99,45.18-30.4,68.88-1.4,3.96-8.83,15.45-9.01,16.69-.08.55,0,1.1.07,1.63,8.77,2.51,13.52,11.43,14.47,20.13ZM563.88,847.85v15.62c13.92,3.17,24.46,13.45,35.14,22.29,1.89-2.65,6.02-6.63,4.5-9.98-1.31-2.89-16.77-14.04-20.7-18.42-3.43-3.82-6.44-8.35-8.9-12.85l16.21,15.58,16.71,12.29,3.9-13.92c-.07-.68-6.92-10.37-7.86-11.13-4.4-3.59-15.85-5.19-19.42-9.59-1.85-2.27-3.28-10.84-4.69-11.17-9.15.23-14.29,9.21-24.45,4.85l-1.02.76c-2.15,5.96-3.99,11.5-8.35,16.27-2.3,2.51-6.72,3.59-6.74,7.2l23.42,5.58c.43-.49-.27-9.57,0-11.73.21-1.64.87-3.47,2.23-1.65ZM320.67,909.22c-11.44-1.41-19.15-8.3-27.36-15.6-21.01-18.69-35.08-49.4-67.71-42.11-11.63,2.6-9.97,7.08-16.99,14.25-8.86,9.06-19.62,10.57-17.07,27.02,4.74,30.6,31.73,39.75,58.58,44.05,22.61,3.62,44.58-1.36,66.57-6.28.86-7.37.66-14.44,3.99-21.31ZM615.19,942.66c16.7-2.51,33.08,2.87,49.65,4.47,22.55,2.17,41.76,3.94,60.21-11.17,15.79-12.93,34.68-51.15,14-66.38-18.71-13.78-43.56,12-58.35,22.03-19.44,13.18-37.88,23.23-62.17,24.3,2.28,9.04.98,18.61-3.34,26.76ZM443.39,894.69c20.8,3.46,19.23-19.78.26-22.02-21.61-2.55-35.04,23.15-15.78,38.11,18.23,14.16,39.8,5.51,60.69,7.37,33.76,3,51.69,34.75,78.42,37.6,11.12,1.19,17.51-.67,23.67-10.29-7.22-.02-12.95,2.41-20.62,1.66-21.66-2.1-33.38-23.77-50.91-32.76-8.3-4.26-20.13-7.72-29.44-8.49-12.1-.99-51.07,3.44-57.29-8.53-9.07-17.44,22.26-21.14,11.01-2.66ZM628.58,910.31c21.4-3.26,39.03-14.3,55.76-27.32,0-1.22-15.13-5.14-16.68-4.49-1.22.51-12.3,11.71-15.12,13.95-7.81,6.19-16.81,11.09-23.95,17.87ZM742.37,921.47c11.65-.48,19.11,7.59,28.26,12.47,19.68,10.5,37.78,17.47,60.18,9.6,21.12-7.42,35.18-22.85,25.38-46.07-10.49-24.84-47.5-4.35-66.42-2.78-12.98,1.08-24.73-1.27-37.35-3.34-.23,10.56-4.51,21.2-10.04,30.12ZM442.18,885.87c-6.43-1.68-10.4,4.43-7.09,9.84,5.41,8.86,32.34,6.37,41.76,6.79-2.28-6.45-9.15-8.37-14.13-12.15-2.11-.32-4.24,6.01-8.13,7.2-3.33,1.02-15.77,1.55-15.74-3.41.01-2.58,6.45-3.41,3.32-8.27ZM424.42,924.83c-1.37-3.98-1.1-10.35-4.74-12.54-26.76-7.7-76.72-39.65-94.21-2.19-10.98,23.53.42,44.86,25.27,49.93,28.89,5.89,53.71-11.27,79.22-21.86l-4.56-12.08c-3.23-.12-5.67.04-7.66-2.94,1.79-2.49,6.45,1.96,6.68,1.68ZM589.53,952.71c21.11-8.16,28.83-15.74,24.21-39.26-3.99-20.34-14.31-25.32-33.54-17.47-15.23,6.23-29.9,18.7-46.45,23.29-.42,1.63.36,1.84,1.08,2.81.78,1.06,10.15,9.31,11.77,10.54,9.78,7.46,18.61,11.99,31.26,11.22,5.83-.36,10.51-2.89,16.13-3.38.76,4.86-1.87,8.53-4.46,12.26ZM491.35,959.42c-16.28-9.7-37.74-13.47-50.16-28.5-4.76-5.75-6.81-14.69-14.53-16.14,2.28,19.01,12.72,24.85,28.02,32.77,5.07,2.63,24.8,12.73,28.84,13.58,1.12.24,7.42-.02,7.83-1.72ZM176.01,946.78c7.14,8.46,17.7,4.44,22.39-4.22.91-1.68,6.2-16.14,6.03-17.03-.11-.58-7.07-8.85-7.59-9.14-4.06-2.2-16.95,9.32-19.45,12.96-3.54,5.16-5.83,12.16-1.38,17.42ZM440.97,920.59c-.65-.38-3-.73-3.15.32,4.32,5.1,7.78,12.71,14.5,15.06-3.22-1.52-10.52-14.9-11.35-15.38ZM512.56,952.73c-14.12-7.74-31.06-7.25-44.55-16.26-7.39-4.94-12.57-15.24-22.37-14.99,4.46,10.25,19.22,19.56,29.36,23.62,5.62,2.25,11.67,2.79,17.15,5.16,4.75,2.06,7.77,5.6,12.1,8.06,2.21,1.04,8.99-4.73,8.33-5.6ZM514.78,949.36c.34-4.37-.28-7.36-4.17-9.77-7.22-4.47-23.77-5.82-32.93-9.46-7.07-2.81-12.82-10.05-19.79-7.53-.71.89,15.17,14.11,17.45,14.33l39.44,12.43ZM491.92,921.48c-6.63-.9-14.92.66-21.75,0,9.56,13.31,56.87,6.65,46.29,31.24-6.34,14.72-34.95,8.62-37.36,13.95-.18.4-.4,2.8.56,2.79,11.48.15,24.26,3.8,34.59-3.35,10.87-7.52,15.32-23.88,4.28-33.31-4.3-3.68-21.08-10.58-26.6-11.33ZM527.07,938.21c1.29,5.58,1.53,10.35.15,15.97,11.81,13.31,53.42,12.86,61.66,27.63,3.86,6.93-2.12,17.38,11.28,12.21,7.97-16.82-8.16-28.84-22.66-33.17-8.45-2.52-17.01-2.21-25.54-5.7-9.53-3.9-15.78-12.35-24.89-16.93ZM499.17,959.4c-2.92-4.15-9.5-7.01-14.5-7.79l9.45,6.71,5.05,1.07ZM438.94,1006.26c4.6-5.23,8.46-11.14,13.96-15.59,4.26-3.45,23.73-13.88,23.88-18.35.05-1.61-1.35-3.45-1.06-5.59.22-1.63,1.96-2.78,2.11-3.64.43-2.42-15.72-8.78-16.58-8.13,5.44,15.68,2.19,20.62-8.91,30.68-6.97,6.32-15.57,8.02-13.39,20.62ZM552.71,998.46c-1.4-11.61-11.98-18.81-18.93-27.35-1.01-1.25-8.27-13.48-10.06-11.69,2.22,5.48,7.59,9.51,10.23,14.86,5.12,10.34,4.59,20.11,18.75,24.18ZM556.07,1014.07c13.84.75,14.47-11.91,9.15-21.97-1.06-2-16.95-23.31-18.13-24.26-2.56-2.09-10.86-4.32-14.46-4.51,3.45,8.28,23.44,24.03,23.44,32.34v18.41ZM552.57,1001.93c-19.39-3.48-17.61-27.5-29.36-37.01-2.92-2.36-6.18,2.37-7.22,4.94,9.65,8.54,11.56,31.03,22.94,37.37,5.62,3.13,14.66,2.66,13.65-5.3ZM530.4,1004.03l-12.42-27.17c-1.95-2.37-3.98-5.75-7.64-5.18l9.52,13.34c3.35,6.67,3.23,15.05,10.54,19.01ZM462.36,996.21c11.75-2.71,25.64-8.94,29.62-21.21-1.26-2.78-6.69-2.53-9.4-2.06-1.66,11.69-11.98,16.6-20.23,23.27ZM534.87,1010.72c-.9-2.64-4.07-1.88-6.17-3.3-10.44-7.02-10.45-27.62-23.52-34.36l-9.35.86c13.58,10.74,19.21,38.04,39.05,36.79Z"/><path d="M179.01,578.99l6.36-17.6c5.98-15.25,2.27-28.31,1.44-43.2-1.91-34.38-2.55-68.71-2.23-103.18l7.37,11.03c10.81,10.46,11.93-6.59,18.27-12.15l-3.38,51.83,1.17,92.08,8.99-37.36c-5.01-36.43-4.89-73.15-4.52-109.89l5.35,13.04,6.85,7.72,5.09-4.02,7.23-10.04c-5.36,40.3-8.2,82.24-3.32,122.7l4.5-39.55c-.14-28.5-.47-57.03,2.2-85.38l9.21,16c1.97.75,4.76-.91,6.33-2.13,2.26-1.76,2.54-3.86,4.51-4.94l-4.52,37.37,6.81,31.18-3.94,32.95-11.56-20.79-6.84-17.13c-.2,3.5.28,7.08-.02,10.58-1.19,14.04-4.05,28.24-4.5,42.36-.33,10.34.91,20.45,1.15,30.72-11.25-10.29-13.59-27.56-18.42-41.27-.38-1.08-.13-2.56-1.63-2.23-2.09,12.83-6.86,26.67-7.8,39.62-.7,9.62,1.43,18.87,1.09,28.42-7-1.95-8.56-11.12-11.69-16.75l-8.37-32.33c-1.42,18.26-11.76,36.07-13.38,54.12-1.38,15.34,2.53,29.07,3.32,44.05l-9.11-11.52-9.84-28.63c-1.25,5.55-.42,11.64-1.26,17.15-1.54,10.07-5.73,19.73-7.39,29.42-3.88,22.74.96,46.96,4.17,69.44-5.11-4.35-8.11-13.8-10.35-20.32-19.72-57.48-25.07-122-32.02-182.17l-2.23-84.22c12.64,5.64,20.61.85,28.34-9.02l7.33-12.17c-1.91,15.37-4.52,30.82-5.56,46.3-4.22,63.03,7.62,118.36,10.03,179.61.05,1.35-.84,4.15,1.1,3.89,4.13-16.53,6.77-33.63,5.64-50.8-2.27-34.49-10.55-70.7-10.13-105.89l.05-76.45c3.18-.59,1.83.77,2.51,2.45,1.79,4.39,8.66,23.48,14.55,21.97s13.44-28.34,15.85-34.47c.14,21.26-5.13,42.77-6.18,64.11-1.9,38.54,3.64,77.04,3.4,115.5Z"/><path d="M788.11,544.97c-1.46-12.35-13.2-21.05-13.4-34.02l-12.04,27.54-3.55,2.57c-1.31-1.01-4.38-23.03-4.46-26.22-.72-28.65,14.62-55.84,6.69-84.22l4.41,1.09c5.22-10.87,9.5-20.95,8.98-33.44l3.32,20.64c4.32,30.46-7.92,68.56-.32,97.38,2.44,9.25,9.16,14.44,10.38,23.65,1.94.26,1.05-2.53,1.1-3.89,1.24-31.49,3.93-69.02-2.75-99.9-1.64-7.57-4.67-14.69-6.16-22.27,4.71,5.7,8.75,12.61,16.02,15.52,4.83-.83,10.61-25.97,9.64-31.14,2.7,1.68,3.15,9.29,3.38,12.78,1.97,29.52-.34,65.14-2.29,94.86-.37,5.61-2.64,12.25-2.26,17.84.85,12.28,13.58,26.61,14.56,39.62,1.94.27,1.05-2.54,1.1-3.88.63-16.67,1.86-33.56,2.28-50.17.78-30.97.89-62.48-8.96-92.08,4.95,4.55,12.66,20.23,19.17,9.7l9.82-20.85c-.83,4.8.95,9.4,1.17,13.89,1.21,24.65-.22,54.55-2.29,79.24-1.33,15.9-5.51,32.7-6.66,48-1.49,19.88,5.05,33.85,11.7,51.85-.19-29.65,7.14-58.49,10.43-87.73,3.76-33.32,2.63-64.53-8.76-96.34,2.72,2.75,12.17,14.26,15.94,13.27l7.5-8.22,7.77-15.08c.36,27.85.33,55.39-2.23,83.1-3.15,34.2-8.89,68.37-15.02,102.11-2.25,12.36-6.88,24.77-6.02,37.2l5.42,30.82c9.1-80.35,44.85-160.52,23.45-242.08,9.89,9.28,10.85,21.41,21.67,4.39l6.2-12.19c-.25,11.33.35,22.74.06,34.07-1.74,68.43-18.18,168.37-39.9,233.42-3.31,9.92-14.59,37.4-22.6,43.22-1.47,1.06-2.66,1-2.2-1.08,2.49-11.27,9.6-23.52,10.98-35.89,2.11-18.97-3.67-37.5-4.35-56.21-3.17-.58-1.83.78-2.51,2.45-2.55,6.25-4.99,13.91-9.75,18.74.13-10.17,3.51-21.69,3.38-31.74-.07-5.19-1.81-14.11-3.03-19.38-2.86-12.42-10.48-23.57-10.41-37l-7.96,22.7-10.44,15.21c-.67-4.84,3.18-9.22,3.82-14.03,2.73-20.77-6.89-34.59-13.3-52.89l-16.72,36.81c-.59-6.93.8-14.98,0-21.75Z"/><path d="M782.54,153.96l6.16,6.66c15.41,13.8,40.54,14.92,60.2,12.28,11.54-1.55,28.2-8.42,39.02-7.85,4.71.25,26.96,8.04,32.14,10.34,16.06,7.13,5.92,16.55,1.72,26.88-4.97,12.21-7.12,18.95-6.47,32.54.18,3.8,3.21,8.61.43,11.79-2.52.42-14.38-7.94-16.61-10.1-10.23-9.93-11.45-24.56-9.51-37.92-38.35,13.17-85.97,14.08-124.93,2.79-10.23-2.97-36.76-11.8-39.64-22.83-4.09-15.64,7.57-25.6,12.6-38.79.96-2.52,4.91-12.7,2.53-14.26-16.52-2.74-33.18-5.15-49.81-7.09-134.25-15.67-270.9-12.78-404.62,6.76-3.74,1.22.58,11.57,1.73,14.59,5.02,13.19,16.68,23.14,12.6,38.79-2.89,11.06-29.39,19.92-39.64,22.83-40.22,11.46-84.9,9.41-124.94-1.67,4.21,21.16-5.35,38.66-25.16,46.86l-2.61-1.77c3.69-12.38,2.71-23.34-1.52-35.33-3.83-10.81-17.8-26.02-2.7-33.38,5.26-2.56,26.28-9.89,31.71-10.72,11.3-1.72,29.85,6.53,42.13,7.53,22.49,1.84,50.46.61,66.35-17.29.46-2.41-1.08-1.72-2.76-1.65-9.45.4-19.58,1.26-29.02,2.23-17.65,1.81-36.83,7.49-53.57,8.9-17,1.43-22.9-1.87-30.34-16.48-6.2-12.17-18.71-39.91-22.31-52.42-5.8-20.19,15.19-24.88,30.06-29.55,36.33-11.41,80.07-19.54,117.79-26.13C449.27,6.31,665.34,11.05,858.41,58.55c14,3.44,29.26,6.8,42.65,12.01,12.17,4.73,20.84,8.3,18.59,23.61-1.07,7.3-17.07,42.56-21.26,51.25-3.98,8.26-7.87,18.1-18.35,19.58-14.89,2.11-40.73-5.58-56.96-7.55-13.48-1.64-27.07-2.06-40.56-3.5ZM881.83,159.53c5.03-.28,7.3-5.16,9.49-8.91,9.89-16.96,15.11-39.5,24.33-57.12,4.48-16.92-26.91-22.89-39.16-26.25-218.45-59.88-508.53-60.21-726.96-.23-12.33,3.39-44.95,9.43-40.29,26.72,8.02,15.98,13.14,33.35,20.84,49.45,2.26,4.73,6.32,14.91,11.63,16.27,2.72.7,1.54-5.8,4.54-6.48,22.6-11.15,49.24-15.92,74.01-20.82,188.93-37.36,395.73-37.45,584.62,0,15.04,2.98,67.83,12.57,75.88,23.44.85,1.14,1.14,2.52,1.08,3.92ZM290.55,155.06c-2.05-4.93-5.36-9.51-7.23-14.51-1.08-2.88-3.39-14.01-4.43-14.2-17.38,2.93-34.82,5.65-52.14,8.99-14.33,2.76-68.74,12.87-77.33,20.84-1.12,1.04-2.05,1.57-1.66,3.34,4.14,1.29,8.51,1.49,12.82,1.11,13.42-1.16,29.39-6.02,43.65-7.66,23.19-2.66,46.85-4.02,70-1.11,5.5.69,10.85,2.4,16.32,3.19ZM734.57,156.18c27.78-8.54,57.71-6.48,86.31-3.2,14.39,1.65,30.02,6.36,43.66,7.66,3.64.35,10.14.92,12.81-1.68,1.04-4.92-25-11.78-29.41-12.96-33.29-8.87-67.84-13.57-101.72-19.65-1.04.19-3.35,11.32-4.43,14.2-.85,2.28-8.04,14.84-7.23,15.63ZM133.51,193.85c1.23,1.47,18.74,5.7,22.04,6.41,33.96,7.26,75.3,6.67,108.46-4.24,8.5-2.8,28.22-10.6,29.82-20.38,3.67-22.53-26.54-18.72-40.66-21.8-3.81.21-12.64,10.9-17.38,13.95-14.25,9.18-39.55,10.81-56.23,9.57-10.9-.81-30.55-8.57-38.96-7.78-3.57.34-8.51,3.82-9.34,7.47-.69,3.05.48,14.7,2.24,16.8ZM891.6,193.85c1.76-2.1,2.94-13.75,2.24-16.8s-5.21-7.03-8.21-7.48c-7.74-1.17-28.82,6.98-38.97,7.79-21.32,1.68-41.84.86-59.08-12.28-4.38-3.34-10.51-11.17-15.63-11.24-6.57-.08-24.86,2.55-31.01,4.82-13.1,4.84-12.59,18.25-2.45,26.5,27.76,22.6,97.56,22.26,131.07,15.1,3.31-.71,20.81-4.94,22.04-6.41ZM128.79,171.81c-5.14,2.03-24.44,6.8-26.85,10.51-3.81,5.88,4.91,16.89,7.3,22.97,4.4,11.15,6.77,22.59,3.93,34.56,1.27,1.39,12.68-9.48,13.87-11.22,4.28-6.3,5.63-15.25,4.95-22.67-1.01-11.16-9.23-23.65-3.21-34.15ZM911.93,239.85c-2.84-11.97-.47-23.4,3.93-34.56,2.4-6.08,11.12-17.09,7.3-22.97-2.4-3.71-21.71-8.47-26.85-10.51,6.02,10.49-2.19,22.99-3.21,34.15-.67,7.42.67,16.37,4.95,22.67,1.18,1.74,12.6,12.61,13.87,11.22Z"/><path d="M442.28,182.96c7.16,18.08,5.68,26.67-8.92,39.05-5.14,2.59-12.17,3.39-13.32,10.66-1.49,9.46,4.75,30.34-11.21,28.95,9.53-4.63,5.9-12.55,6.83-21.06,2.48-22.78,19.26-17.41,25.72-32.29,4.61-10.6,1.11-19.46-3.56-29.2,1.06-.3,3.89,3.13,4.47,3.89Z"/><path d="M331.83,215.31c-1.18,1.15.75,7.46-2.77,6.69-16.26-17.11-8.37-34.21,14.62-36.67,4.34-.47,12.01.77,15.31-.31,2.19-.72,2.32-4.35,4.11-5.93,2.18-1.93,6.31-1.92,8.82-3.45,2.92-1.78,4.29-6.04,7.32-8.3,7.16-5.36,24.16-3.3,33.36-4.57,6.8-.94,16.6-8.2,21.25-.93,2.07,3.23,1.04,7.04,2.32,9.95,2.58,5.83,10.28,8.98,12.3,20.06.55,3.03,1.53,16.03,1.2,18.52-.24,1.79-2.91,2.01-3.72,3.09-.51.67-.17,1.62-.32,1.87.16-.25,5.35-2.46,5.57-2.23l.64,6.69-6.21,2.23c.31-1.48-.46-5.99,0-6.69-.31.49-2.11.6-2.26,2.77-.14,2.01,1.44,4.05,1.14,6.14l-5.57,1.13c-.06-2.21.89-3.98-2.23-3.35l-.05,4.42c-2.69.68-9.9-.1-11.11,2.84,4.28,1.55,3.5,4.33,3.34,8.36-.48.46-6.22-1.05-6.69,2.22l6.68-1.1.02,6.7c-.82.82-6.8-1.91-5.58,2.22h6.69s0,7.82,0,7.82l-6.64-.09-1.16-3.26c-1.88,3.58.05,10.79-.29,12.88-.45,2.74-8.01,2.14-9.21-.61-.93,3.52-3.46,2.08-6.64,2.3l-.61-3.42c-2.91-1.17-1.78,2-2.95,2.25-1.77.38-4.08-.2-5.97-.02-1.63-3.44,1.72-8.01,1.81-9.51.04-.69-3.68-11.56-4.29-13.12-1.73-4.43-8.63-14-12.73-16.27-8.51-4.71-16.16-.97-24.4-1.19-7.21-.19-15.24-3.37-21.74-6.2l13.37-3.9c-3.74-2.1-13.74-2.93-16.73-.01,6.85-7.52,12.73-1.18,19.5-1.11,6.18.07,21.76-6.51,25.35,1.46.62,1.38.91,2.65-.8,3-11.64-5.5-23.9-.53-36.23,0l9.48,4.45h27.33v-1.12h-26.22c-.19,0-1.75-1.5-1.67-2.22,6.36.56,11.95-1.82,18.32-1.03,3.2.4,18.02,6.23,15.01-2.72-.14-.41-5.85-5.23-6.61-5.68-6.03-3.52-16.52,1.66-23.81,1.49-6.81-.15-13.21-4.73-20.2.13-1.46-.5,1.32-2.46,1.76-2.7,6.83-3.77,13.82.81,21.63.45,6.22-.29,12.94-3.39,19.55-2.24-2.83-4.53-10.96-.34-16.14.05-6.91.52-23.79-3.34-27.5,1.61-1.28,1.7.57,5.29-3.21,6.16-1.99-18.48,14.64-18.75,28.45-20.07,5.61-.54,12.08,1.62,16.73-2.22,2.61,2.81,1.49,7.09,3.87,10.3,4.08,5.5,13.81,7.74,9.52,18.7l-8.37,2.2c3.86-.34,5.32,2,7.82,3.9,1.19.91,1.32,2.55,2.79.59.93-6.72,1.73-15.97-2.78-21.48-1.54-1.88-4.8-2.91-6.33-4.58-4.89-5.36-3.66-13.03-3.74-19.69-12.14,6.4-41.29.12-49.57,11.22-5.21,6.99-3.83,20.17,3.28,25.58.62-2.64,1.37-2.91,2.78-4.46ZM433.35,222c1.22-.61,2.63-.58,4.39-1.72,12.49-8.06,12.78-26.5,4.53-37.33-1.76-4.45-3.13-6.89-7.24-9.85-11.59,9.76-29.4,2.81-42.16,5.63-14.5,3.2,2.79,27.23,3.67,34.9,1.14,9.88-4.46,19.3-4.22,22.13.16,1.86,2.9,5.14,3.65,7.44,2.64,8.07,3.72,20.63,15.6,20.16,14.58-.58,7.39-22.82,10.01-31.38,1.3-4.26,8.2-6.96,11.77-9.98Z"/><path d="M826.04,258.81l34.01-6.77c5.86,1.67,16.95,1.56,21.26,5.6,7.27,6.82,17.79,34.71,20.87,44.95s11.53,39,1.42,46.71c-4.38,3.34-14.87-9.63-17.11-13.17-17.49-27.67-15.68-75.8-60.46-77.32Z"/><path d="M199.08,257.71c-2.2,3.26-7.55,3.46-11.14,5.03-32.18,14.12-47.36,54.76-61.51,84.63-5.52,6.49-8.01-.31-9.59-5.77-4.17-14.49,7.31-47.31,13.66-61.55,2.09-4.69,10.93-22.79,14.73-24.31,3.03-1.21,16.47-3.74,19.81-3.7,10.89.13,22.92,6.33,34.03,5.68Z"/><path d="M127.49,433.76c-1.7,2.61-15.11.76-15.43-3.7.82-29.55-2.03-59.42,2.24-88.68l4.92,9c5.51,4.03,17.17-7.64,22.86-9.66l10.13-9.37c-7.49,34.32-20.81,67.31-24.72,102.42Z"/><path d="M185.68,343.6c-5.75,24.59-9.96,49.79-16.81,74.1-1,3.56-1.94,8.07-3.14,11.37-.56,1.54.38,1.9-2.33,1.54-7.34-14.19-15.46-28.84-16.74-45.19-1.57-20.07,6-40.05,8.92-59.66l3.58,15.92c.94,2.86,9.11,19.57,10.88,20.4,3.11,1.46,6.65-7.99,8.49-10.57s4.96-5.53,7.14-7.9Z"/><path d="M218.03,348.06c-2.11,19.8-6.71,40.18-12.82,59.12-1.38,4.29-3.89,14.02-6.27,17.16-1.05,1.39-1.59,2.33-3.59,1.7-3.55-.95-10.33-16.52-10.78-20.53-2.46-21.71,2.67-45.74,3.36-67.49l12.21,22.88c3.59,1.66,14.62-10.77,17.89-12.85Z"/><path d="M192.38,266.64c-6.42,9.31-9.75,18.64-7.32,30.18l7.32,1.05c-4.74,18.68-9.52,39.89-18.02,57.28-.64,1.3-1.95,6.01-3.72,5.18-18.48-25.7-14.34-52.32,3.46-76.85,4.72-6.5,10.78-13.59,18.29-16.84Z"/><path d="M251.51,643.7c-6.55-.4-.67-3.03-5.58-3.34l1.11,4.45c-3.52.7-3.49-1.08-5.01-3.35l-.57,3.35-1.11-2.23c-2.71,1.16-2.74,4.18-3.89-.01l-.56,3.37-4.44-3.34c.53,3.77-3.97,1.89-6.71,2.23,1.61,2.64,5.08,2.61,4.47,6.68l1.11-3.34c3.12,1.04,2.16,5,2.23,7.8l1.66-7.82,2.78,7.82-1.09-8.93,2.03.86.25-1.86,2.16-.1,1.69,5.59,1.1-5.58c5,6.72.18,5.72-1.25,7.02-1.99,1.79-3.08,4.76-6.64,5.25-4.85.67-8.99-6.29-11.16,3.29-.54,2.39,1.56,8.94-1,7.85-6.03-2.56-5.94-13.05-3.82-18.29.89-2.19,2.8-3.49,3.63-5.12,1.07-2.1-.4-5.11,3.01-7.21,8.06-4.97,22.87,7.37,23.27-7.2l-9.91-1.75,2.48-3.19,5.69.29,1.63-2.42-.9-5.29-1.12,6.69-4.44-6.69-2.23,5.57-1.14-6.68-1.11,6.68c-3.9.81-2.25-5.08-5.02-6.68l.56,5.57h-3.34c.18-3.26-.03-8.85-4.47-8.91,3.17,3.54,2.35,7.71,2.14,12.18-7.58.72-7.16,2.96-7.73,9.56-.14,1.64.93,3.25-1.64,2.78-6.58-5.03-4.46-16.33,1.07-21.22,4.08-3.6,3.05-2.35,6.65-6.71,6.66-8.09,11.27-.98,16.73,1.25,3.32,1.35,8.03,1.57,11.8,2.7,3.05.92,4.14,4.67,8.45,1.75,2.31-1.56,2.6-4.87,4.3-6.85,6.89-8.05,12.05-12.58,17.6-22.57,1.6-2.89.3-6.51,5.1-7.72l3.59-13.14c-8.04,8.83-18.91,22.99-32.32,16.18,4.35-3.75,9.11-7.28,12.82-11.7,2.63-3.13,6.73-11.39,8.39-12.81,3.41-2.94,14.01-4.86,17.81-9.52-4.57,12.58-5.76,24.81-2.23,37.93l-3.33-1.1,2.23,4.99-4.46.59c2.44,4.59.87,8.36-4.46,5.57l1.1,6.69-4.45-1.1,1.11,3.83-4.45.63,1.03,3.83c-3.36,2.45-4.9,1.03-4.92,6.22l-1.14,1.08-2.78-2.21,1.1,5.57-5.56-2.22,1.1,6.69-4.45-3.34-.58,5.57-2.78-4.45-1.11,3.35h-3.34s-.01-3.36-.01-3.36l-2.78,2.22-2.78-4.44c.45,4.66-4.95,3.74-3.35,8.91l3.32-3.34-1.1,5.57c3.38.87,2.51-3.7,3.36-5.56l5.57,2.25-3.33,6.14c.85,4.93,3.14-4.84,4.43-3.92,1.29,4.35-2.98,5.36-3.32,8.92,4.24-2.1,5.67-6.67,5.58-11.16,5.29,3.1-1.06,10.48-4.47,13.38,6.51.38,7.89-8.39,7.81-13.38l2.24,6.69,2.21-4.45c1.13,2.09-.28,5.57.03,7.01.68,3.15,6.89,8.9,8.46,11.28,2.02,3.06,2.98,7.52,6.02,10.15l-4.45,2.77c5.43-1.81,8.88,4.11,1.1,3.91l4.47,2.78c-3.14.22-4.15-.9-5.58,1.13,1.79.22,3.76-.16,5.57,0-.23,3.66-2.23,6.69-5.02,8.9-3.95-2.52-2.82-5.68-.56-8.9-.63-.08-2.27.22-2.29-.57,2.84-4.83,2.25-7.29-1.06-11.69l3.34-2.24-4.44-.02,2.23-2.76c-2.8-1.8-1.93-3.44-5.58-1.69l1.1-4.45-2.78,2.23-1.17-2.31-3.84,1.19,2.22-5.57c-8.11,8.76-11.59-2.77-17.29-7.8-1.08,2.61-.48,6.07-.55,8.92.74.04,1.49-.06,2.23,0l.56,8.94c1.01,0,.94-6.46,1.03-7.8s-1.66-3.67,1.21-1.16l-.58,10.06-5.57-1.13c2.52-3.35,1.04-5.76,1.12-8.91Z"/><path d="M863.98,426.16c-3.35-27.15-13.16-52.6-22.31-78.09,5.42.8,8.38,17.15,13.38,14.03.92-.57,8.97-16.99,9.78-19.3l3.59-17.03c2.52,13.98,7.13,27.82,8.79,41.97.87,7.44,1.77,19.33,1.3,26.67-.71,11.19-5.97,24.4-14.53,31.75Z"/><path d="M218.04,291.18c-2.68,5.46-6.79,24.69.82,26.61,2.37.6,6.63-2.61,5.81.63-3.56,14.03-13.6,30.76-23.92,40.77-4.04-8.55-10.5-16.65-11.59-26.31-.64-5.64,2.04-32.91,6.55-35.6,4.47-.77,8.25-.47,12.78-1.72,3.87-1.07,5.97-3.42,9.55-4.38Z"/><path d="M855.03,360.33c-2.56.65-1.83-.51-2.54-1.4-12.05-15.22-3.43-44.37-14.12-57.22-1.11-1.33-2.75-2.54-4.52-2.74,0-2.4,3.94-.33,5.42-1.26,5.17-3.23-2.78-28.74-8.77-32.19.85-.8,6.73,4.06,7.82,4.99,14.84,12.65,27.98,36.04,27.98,55.79,0,12.44-6.88,22.92-11.28,34.02Z"/><path d="M830.23,428.09c-5.3,5.91-5.04-12.95-5.45-15.74-3.34-22.78-9.07-43.01-17.7-64.29,4.36,2.39,12.3,14.59,17.54,12.65l11.44-21.57c1.21,21.02,6.78,44.27,4.48,65.26-.51,4.65-7.3,20.32-10.32,23.68Z"/><path d="M910.81,341.37c1.3,13.59,1.03,27.1,1.08,40.76,0,2.9,1.23,5.7,1.25,8.86.08,11.94-4.22,28.2-14.58,35.16.72-24.59-3.37-48.51-13.2-71.03-3.05-6.98-7.45-13.37-10.22-20.44,5.05,4.01,20.51,16.15,26.31,16.72,7.19.71,4.9-6.9,9.36-10.03Z"/><path d="M247.04,358.11c-8.7,22.75-17.26,45.88-20.08,70.29-2.98.52-4.98-1.8-6.68-3.92-12.81-15.99-.92-61.19.53-80.89l1.68-1.1c-.87,4,8.87,21.75,11.17,22.95,2.99,1.55,9.83-6.68,13.37-7.33Z"/><path d="M716.72,529.91l5.09,12.19c2.16,2.68,8.58,9.96,11.07,4.53,1.54-3.35-.93-7.59,2.24-10.01,3.36,3.64,8.75,6.74,13.65,7.51s8.94-.8,13.67-.29c-8.37,23.04-34.08,10.05-44.61-3.9,2.87,8.03,6.99,15.29,7.78,24,1.38,15.27-.67,33.69-17.07,39.79-10.16,3.78-24.83,2.74-23.06-11.36,2.19,1.58,2.44,3.54,5.2,5.38,5.86,3.91,9.74,2.74,14.89-1.46,11.73-9.57,6.64-29.16,2.51-41.6-1.5-4.52-7.22-14.89-6.97-18.59.08-1.15,1.68-5.91,3.3-6.2.32,5.42.2,16.96,5.17,19.94,10.72,6.43,3.86-14.69,7.13-19.94Z"/><path d="M876.24,252.11c-11.69-4.58-23.73-5.34-36.24-4.44-13.31.96-26.74,6.26-40.18,3.34-1.51-.33-2.82.13-3.88-1.68,8.34-7.49,16.88-15.08,28.98-13.95-2.83-7.58-10.7-14.95-18.95-15.63l9.52-1.15c23.9,2.17,46.56,14.27,60.76,33.5Z"/><path d="M805.97,319.04v-2.19c2.94.18,3.11-2.67,3.34-5.02.72-7.31-.71-13.65-2.22-20.65,3.51,1.96,7.06,4.24,11.09,5.07,4.82.99,9.56-1.16,12.07,3.55,3.8,7.12,5.67,27.36,4.62,35.35s-7.67,16.91-11.61,24.04c-6.76-3.68-10.97-11.96-11.71-19.49-.68-6.94,2.94-18.39-5.58-20.65Z"/><path d="M218.04,218.67l-11.18,6.1c-1.71,1.22-8.34,9.06-6.67,10.62l12.68,2.38,16.32,12.11c-15.71-1.4-30.21-4.55-46.33-3.38-12.29.89-23.91,5.98-36.21,6.73,17.54-21.71,42.78-36.13,71.39-34.56Z"/><path d="M284.93,469.71c-1.83,16.26,2.4,27.31,9.5,41.26,5.14,10.09,16.41,21.16,4.95,32.79-8.42,8.54-5.87-.92-6.86-5.22-2.68-11.63-12.47-21.03-17.01-32.07-3.31-8.05-6.18-20.92-6.25-29.54-.11-14.97,5.67-9.64,15.67-7.21Z"/><path d="M754.64,467.43v17.29c0,4.77-4.1,18.04-6.16,22.85-5.6,13.08-18.43,23.31-17.28,39.06-8.52-.92-13.43-14.16-10.55-21.15,2.31-5.62,9.45-13.86,12.62-20.83,4.8-10.53,8.22-22.28,6.2-33.92,5.83-1.67,8.97-5.3,15.15-3.29Z"/><path d="M795.93,427.27c-2.82-23.97-10.44-46.78-18.97-69.16,1.68-1.78,11.2,9.89,14.53,7.31l12.23-22.93c.06,6.02,1.95,12.43,2.29,18.36.93,16.28-.37,48.59-7.3,63.08-.62,1.3-1.12,3.07-2.78,3.35Z"/><path d="M300.57,591.27c1.17,3.69,3.77,8.16,7.82,8.94v2.19c-1.73.25-3.57,1.3-4.51,2.75-2.46,3.79-4.3,10.55-6.08,14.01-1.16,2.25-4.53,1.87-5.57,3.36-.79,1.12-.46,3.18-1.17,4.41-.97,1.7-3.4,2.23-4.82,4.1-6.69,8.78,2.29,10.44,4.85,17.15,1.66,4.35,1.48,10.65,3.44,14.4,2.63,5.02,7.53,3.49,5.98,12.84-.81,4.88-3.62,4.25-5.35,6.92-1.52,2.34-2.41,6.28-4.12,8.15-3.47,3.8-11.8,5.29-12.77-1.05l4.29-.16c2.31-2.49.19-7.14.77-8.83.77-2.21,5.38-3.87,5.91-4.65.43-.63-1.08-3.91.39-5.16l3.12-1.27-4.45-1.7c-.86-2.26,2.29-1.37,2.26-2.22-.07-2.16-3.82-4.13-1.16-8.36l-4.46-.58,2.23-4.99c-4.58,1.8-5.3-.65-3.34-4.46l-4.47-1.14,2.22-3.32c-4.01.8-10.15-6.61-4.46-6.72l-3.31-3.89,4.45-1.69-.98-6.59c5.34.86,1.75-6.22,7.66-3.44l-3.33-2.25c.68-7.83,6.97-1.47,7.8-2.22-2.86-3.21-2.43-5.05-1.1-8.91l3.32,2.23.02-6.69,3.33,2.23-.56-5.59h5.03c.54-.56-5.1-8.03,1.1-7.79Z"/><path d="M237,253.26c.62,2.65-.47,1.8-1.45,2.47-3.84,2.64-11.12,6.12-8.05,12.04,1.2,2.31,8.02,2.53,5.04,4.98l-46.84,22.88c-.73-16.18,4.59-28.88,20.1-35.11,5.89-2.37,12.17-3.17,18.14-5.29,5.45-1.94,6.03-6.15,13.07-1.96Z"/><path d="M838.31,296.75c-5.69-.52-12.22-1.55-17.11-4.64-10.22-6.46-12.46-22.48-26.4-22.14,8.06-7.42-3.08-11.55-7.81-16.71,8.18-3.96,9.43.58,16.42,3.09,5.97,2.14,12.04,2.32,18.14,5.29,13.8,6.72,18.02,20.56,16.75,35.12Z"/><path d="M308.4,549.43c.27.88,1.78,1.67,2.81,1.76,7.79.67,9.15-15.78,8.36-21.27,1.63.31,3.21,5.04,3.33,6.24.39,3.97-6.81,18.11-8.36,23.88-4.77,17.78-4.66,48.2,22.33,36.83,2.67-1.12,4.63-3.42,7.24-3.92.28,16.55-21.46,14.35-32.03,8.58-16.62-9.07-15.76-34.26-10.41-49.91.74-2.17,5.15-9.69,4.49-10.55l-3.35,1.66,3.37-12.81c1.13-.48,2.22,2.6,2.22,2.78,0,3.71-.77,14.21,0,16.73Z"/><path d="M730.26,597.76c.26.36,6.16-1.21,3.19,5.77l3.29-1.76,2.28,1.22-1.13,3.88,5.11,1.09-.62,4.49c1.93.03.32-3.64,3.88-2.21,2.51,1,.28,4.32,1.59,5.05l4.57.52c-.4,3.31-3.06,5.92,1.19,7.37l-1.2,4.89,2.54-.02c3.57,5.11-2.33,4.85-3.36,5.9-.7.72-.28,2.89-1.37,3.65-1.18.82-3.47.09-4.29.73-.55.43-.27,3.07-1.79,4.36-2.83,2.4-5.02-1.55-2.89,5.46h-3.37s.69,3.39.69,3.39l-4.01,1.08c-.23,2.12,2.33-.04,2.23,2.78s-1.29,1.46-3.34,1.69l3.33,2.76-9.45,7.01c-5.94-1.9-5.96-8.05-3.06-12.82,2.11-3.47,8.33-5.17,10.59-10.67,1.33-3.25-.39-4.33-.25-6.86.43-8,10.69-3,10.82-9.14.09-4.05-9.1-8.7-12.54-11.57-1.68-1.4-2.46-3.93-4.45-5.59-1.78-1.48-12.79-6.8-12.83-8.35,4.12-3.3,7.21-10.49,13.46-7.88,1.11.87.67,3.07,1.19,3.78Z"/><path d="M737.91,469.66v16.18c0,5.57-7.56,20.8-10.57,26.24-6.81,12.31-17.72,21.04-12.86,36.78-8.71,1.66-8.43-14.73-7.86-20.69.75-7.78,9.4-16.55,12.93-23.88,5.17-10.72,5.61-19.4,5.02-31.24,3.88-.1,7.74-.99,9.56-4.56l3.77,1.17Z"/><path d="M299.43,473.06c-.07,8.28-.33,16.01,2.22,24,5.85,18.29,19.56,21.99,15.41,45.42-.78,4.4-2.73,7.12-7.54,6.39,6.27-16.58-8.38-27.91-15.08-41.24-3.63-7.21-12.03-29.97-7.8-36.85,3.18-5.18,7.73,3.93,12.8,2.28Z"/><path d="M795.92,594.61c-1.34.19-2.79,2.49-3.92,3.34l-1.67-4.45-1.11,4.45-4.45-2.23-.02,4.46-3.33-1.11-.02,4.46-3.33-1.11-.02,5.57-3.33-1.12v3.36s-3.35-1.12-3.35-1.12v4.47c-4.02.96-2.31-1.33-4.46-2.23l-1.03,3.99c-2.41.91-5.09,1.31-4.57-1.75l-3.89,3.31-1.68-7.78-2.76,4.45c-1.7-.98-1.27-3.49-1.87-4.24-.28-.35-6.11,1.15-3.18-5.79l-2.78,2.12c-3.13-1.97-2.62-3.4-1.68-6.58l-3.87,2.23-1.7-5.6-3.37.66-1.27-4.98-3.18-.13,2.23-5.56-5.56,1.11,1.11-13.38c1.72-2.07,8.53,8.04,9.45,8.94,1.65,1.61,4.49,1.94,6.2,3.84,2.61,2.9,4.88,10.7,8.92,14.5,1.88,1.77,5.73,2.52,7.4,6.06,2.53.84,11.15-2.39,13.22-4.33,4.2-3.93,4.47-13.53,9.39-15.14,5.79-1.9,13.95.58,13.46,7.31,5.19-.73,10.7,5.99,10.03,11.15-1.86-.36-1.33-2.27-3.62-3.61s-5.95-1.92-8.64-1.96c-.22-2.4,2.04-3.05,2.23-5.57Z"/><path d="M782.53,288.95c11.74.3,13.59-5.03,7.81-14.5,2.29-1.93,12.11,11.61,13.25,14.07,2.12,4.57,7.12,22.95,3.04,26.18-3.52,2.78-15.64-.78-18.55-3.98-4.25-4.68-1.37-16.35-5.55-21.77Z"/><path d="M233.66,274.45c-7.05,11.64-1.14,16.62,11.15,13.38l1.18,10.37c-8.97,5.87-18.08,12.66-29.06,14.17-1.07-12.11,1.93-23.69,10.07-32.87.91-1.02,5.43-6.3,6.66-5.04Z"/><path d="M320.68,567.28c.49,2.94,3.56,8.01,6.64,8.99,8.25,2.61,12.12-4.1,17.33-5.1,2.61-.5,1.92,3.28,1.75,5.1-.94,10.08-18.87,17.35-26.33,9.47-9.56-10.1-4.79-23.88-.54-35.23.31-.83,3.93-8.33,1.15.04.59,5.16-.81,11.82,0,16.73Z"/><path d="M724.53,549.99c3.61,3.41,13.29,5.39,16.21,7.76,2.24,1.81,7.71,12.05,11.09,15.68s7.43,5.77,10.59,9.47c-1.05,1.61-2.15,1.54-3.83,1.73-14.58,1.65-34.06-20.19-34.06-34.64Z"/><path d="M687.52,571.4c2.14,1.24,1.76,8.03,9.94,4.51s6.07-16.29,5.81-23.09c-.05-1.22-.69-4.24,1.16-3.93,2.28,8.87,6.79,16.21,5.08,25.71-1.87,10.41-10.3,19.16-20.62,11.59-6.8-4.98-9.02-19.21-1.37-14.78Z"/><path d="M299.48,546.65c-10.48,10.64-33.22,16.5-36.81-3.35,11.1,3.27,19.14-.12,27.87-6.7l1.66,11.18c1.75,2.9,4.87-1.72,7.28-1.13Z"/><path d="M784.76,612.46l-1.11-8.92,3.33,1.12.58-3.36,2.77,2.23,2.24-3.33c-.63,2.23-1.21,4.95.16,7.06,1.72,2.65,4.1.78,4.3,2.96l-5,3.06c-2.68-1.69-4.28-2.02-7.26-.81-4.86,8.04-9.64,16.04-16.73,22.3,1.15-.17,3.89.37,4.37-.09.65-.64-.95-3.62,1.2-3.23l2.23,4.45.02-7.8,3.33,4.45.02-6.69,3.92.16.54,4.3,2.21-3.33,2.23,4.45c-.41-2.42-2.09-4.59,1.11-5.58l.56,4.46,3.9-5.57-1.11,10.03c-2.24.37-2.94-1.95-5.08-2.26-9.73-1.41-17.23,16.04-27.96,16.73-4.26.27-7.65-2.78-12.21-.03-5.7,3.43-1.96,8.27-2.73,12.83-.49,2.89-7.42,10.22,1.17,12.3,2.2.53,5.34-1.65,5.53.58-10.53,6.11-15.55-.96-16.72-11.14l4.45,1.11-1.11-7.14,2.12-1.17-1.01-2.83,4.45-.02-2.25-1.65v-2.25c3.82-.79.78-2.07,1.36-3.64,1.06-2.87,4.79-1.54,5.17-1.64.94-.25,2.51-4.77,2.71-4.97,1.06-1.06,2.9-.76,3.87-1.78,1.65-1.74,3.76-5.15,4.95-7.35l2.05.98c-1.72-4.12-4.67-10.43,0-13.39l2.26,10.04h2.21s-2.22-10.03-2.22-10.03c4.64-.33,1.93,7.94,6.68,8.92l-2.21-10.03c4.58-.88-.11,7.21,5.57,6.68l-2.22-8.91,5.56,6.69-2.21-8.92,4.45,4.46-1.09-7.8,3.32,5.57c0-2.9-2.75-6.4,1.12-7.8l.55,4.48,1.69,1.1Z"/><path d="M803.46,613.85c1.87,2.53.78,5.96,1.96,8.63.69,1.55,3.33,2.7,4.35,4.57,2.45,4.49,1.97,10.01-2.15,13.3l.55-4.45c-3.63,1.17-7.54-2.31-6.69-6.13,4.57-2.71,4,3.56,6.69,5.01.74-4.45-2.32-7.86-6.68-7.82l2.22-5.57-4.45,2.24v-3.36s-3.34,2.24-3.34,2.24l-1.11-3.34-1.15,4.45c-3.22.98-1.93-2.69-4.44-3.34l-1.67,3.34-2.25-3.35-3.9,3.35,2.22-7.33c7.99,2.95,12.53-6.77,19.83-2.43Z"/><path d="M275.08,529.76c-2.2-1.4-.3-7.8-.63-9.95-.85-5.5-4.22-10.53-2.85-16.67l13.3,22.88c-1.86,2.1-7.27,5.35-9.82,3.74Z"/><path d="M751.31,503.14c1.96.23,1.28,5.98,1.11,7.25-.4,2.95-1.75,5.23-2.15,7.89-.43,2.9.85,9.72-1.13,11.15-2.48,1.79-9.14-1.45-8.85-4.36.37-3.62,11.92-15.88,11.01-21.94Z"/><path d="M266,649.28l1.14,7.8,3.33-4.45-1.1,4.45c1.83.36.44-1.01,1.7-1.92.14-.1,1.53,1.55,2.17-1.44l3.93,4.46-15.62,1.12,1.94-8.65,2.5-1.37Z"/><path d="M799.09,626.03l1.18,9.13-5.46,2.96c-.73-4.84-1.51-8.55,0-13.39l4.27,1.3Z"/><path d="M431.12,264.4l.52-6.74c10.08-6.94,10.83,9.75-.52,6.74Z"/><path d="M455.66,248.78c1.14,5.91-1.92,10.27-7.8,11.14-1.37-7.73,1.11-8.75,7.8-11.14Z"/><path d="M447.86,249.89c-1.15-8.07.45-7.18,6.13-11.13,4.82,4.65-.9,10.6-6.13,11.13Z"/><path d="M437.67,235.25c-2.27,3.55-10.45.52-7.21-5.52l6.22-2.16.99,7.68Z"/><path d="M446.73,253.24c.64,6.42.38,9.47-6.68,10.03-.64-6.42-.38-9.47,6.68-10.03Z"/><path d="M802.28,608.3c-1.74-1.49-6.25-.44-8.5-1.52l-.09-5.47c.51-.73,16.76,5.76,10.59,10.02-.74-.03-1.35-2.46-2-3.02Z"/><polygon points="431.12 254.36 431.6 247.59 437.8 245.43 438.44 253.27 431.12 254.36"/><rect x="423.3" y="257.69" width="6.71" height="7.82"/><path d="M453.43,222.01c.88,5.42-.83,9.39-6.68,10.03l.24-7.57,6.44-2.46Z"/><path d="M445.55,233.06l-4.96,2.31c-3.89-4.65-1.89-9.03,3.9-10.01l1.05,7.71Z"/><path d="M445.48,251.98l-5.43,1.25c.24-2.23-.71-6.1.5-7.86l5.06-2.18-.13,8.78Z"/><path d="M454.54,230.93c1.15,5.78-2.36,7.51-6.68,10.03-.88-5.42.82-9.39,6.68-10.03Z"/><polygon points="437.81 237.63 437.75 244.25 431.13 245.43 431.25 238.86 437.81 237.63"/><polygon points="445.61 235.39 445.48 241.94 440.05 243.2 440.19 236.64 445.61 235.39"/><path d="M515.9,322.41c90.42,1.41,166.12,76.86,167.34,167.34h-12.28s0,6.69,0,6.69h12.28c-.65,37.66-15.96,81.54-41.82,109.34-1.57,1.69-5.03,6.22-7.26,5.07l-35.15-35.19c-9.72,9.96-20.82,19.64-34.01,24.53l-15.55-35.04c15.22-9.18,28.9-22.08,36.14-38.64,1.55-3.54,4.95-16.98,5.59-17.84,1.91-2.54,26.35-.39,31.21-1.01l1.22-3.5,16.63.15.6-3.42h15.62v5.58s4.46,0,4.46,0v-5.59s6.77-.48,6.77-.48l.56-12.97-7.33-1.04v-5.59s-4.45,0-4.45,0v5.58h-15.62l-.6-3.42-16.63.15-1.22-3.5-30.7-.41c-7.39-37-38.07-63.96-75.78-66.45v-90.36ZM596.23,360.34h-20.08v73.63h20.08v-73.63ZM681.01,499.79l-9.43-.08-.68,3.3-6.63.12v5.59s-11.16,0-11.16,0v-5.59s-9.42-.07-9.42-.07l-1.22,3.5-15.43.06-2.48,4.41-31.57.03c-4.27,23.66-20.34,42.75-40.18,55.23l13.31,30.57c12.83-4.97,23.39-14.8,32.9-24.53l34.55,34.63c3.05,2.53,8.89-6.35,11.08-9.1,22.16-27.82,34.36-62.55,36.37-98.06Z"/><path d="M461.24,322.41l-20.48,7.97c-60.78,27.55-91.35,73.57-104.55,137.53-.28,1.34-.52,2.66-2.14,2.87l-84.8-148.37h211.96Z"/><path d="M340.76,489.75c2.42-81.26,61.49-150.77,141.65-164.58,4.04-.7,24.62-4.13,26.31-1.72l.5,89.31c-38.19,2.11-69.02,29.25-76.92,66.45l-54.25-.55-.48-5.65h-17.85v40.16h17.85v-5.58h55.78c3.29,24.21,19.67,45.37,40.81,56.87l-15.17,35.72c-2.61,1.97-31.31-19.9-34.01-24.52l-36.66,35.59c-29.34-29.94-45.27-70.24-47.63-112,.73-5.14,11.64-2,15.68-2.81v-6.7h-15.62ZM505.86,324.64c-7.06,1.45-14.31,1.4-21.43,2.56-77.77,12.6-139.27,80.99-140.34,160.33h12.28v-16.74h24.54v5.58h50.2c6.91-36.19,38.42-62.48,74.74-65.82v-85.9Z"/><path d="M515.9,664.89v-44.62c30.98-1.38,60.59-13.35,83.11-34.57l31.77,30.66c-26.51,26.08-62.74,43.47-99.97,47.27-5.02.51-10.25-.83-14.92,1.26Z"/><path d="M509.21,671.59v99.29l-65.82-112.66c21.29,7.42,43.06,12.97,65.82,13.38Z"/><path d="M566.66,444.03c19.04,21.03,24.15,51.81,13.37,78.05-1.45,3.52-10.6,20.67-14.33,20.02l-29.52-29.47c5.95-7.41,7.7-16.03,6.23-25.4-.76-4.82-4.04-8.81-5.19-13.43l29.45-29.77Z"/><path d="M456.8,444.01l31.02,30.67c-8.96,11.17-8.6,26.71,0,37.95l-29.53,29.47c-15.59-13.17-21.15-37.35-19.35-57.35,1.37-15.32,9.18-28.57,17.85-40.74Z"/><path d="M515.9,573.41c9.65.61,18.81-2.94,27.88-5.58l15.6,35.07c-13.2,7.2-28.71,8.73-43.47,10.67v-40.16Z"/><path d="M774.72,322.41l-85.34,148.39c-8.66-59.06-45.16-110.24-98.31-137.09l-27.2-11.29h210.85ZM770.26,324.64h-191.88l25.29,13.2c45.47,27.24,78.03,73.68,86.83,126.26l79.76-139.46Z"/><path d="M509.22,620.27c.97,4.66-.91,9.91-1.02,14.06-.22,8.4,1.87,18.12,1.07,26.71-.14,1.47.01,2.96-1.68,3.57-32.83-1.36-64.61-11.13-91.78-29.58-3.21-2.18-21.84-16.09-21.42-18.51l30.59-30.63c23.49,20.98,52.49,33.45,84.24,34.38ZM505.86,622.5c-30.42-1.42-58.06-13.6-80.89-33.27l-27.27,28.13c29.27,26.82,68.17,43.69,108.16,44.18v-39.05Z"/><path d="M515.9,671.59c13.69-.7,27.33-2.44,40.64-5.66l24.08-7.16-64.71,112.11v-99.29ZM518.14,673.82v87.02l56.91-97.6-32.16,8.01-24.75,2.58Z"/><path d="M500.04,420.89c22.46-2.7,44.77,2.68,61.58,18.1l-29.77,29.45c-4.62-1.15-8.6-4.44-13.43-5.19-9.06-1.42-18.45.1-25.4,6.24l-29.47-30.34c8.59-9.27,23.9-16.74,36.48-18.25ZM501.16,423.12c-11.85,1.42-25.47,8.05-34.29,15.99l26.15,26.9c11.26-7.13,26.99-7.8,37.96.12l26.12-26.18c.85-4.8-22.39-14.1-26.93-15.22-9.03-2.24-19.72-2.72-29.01-1.6Z"/><path d="M561.64,548.85c-5.83,3.03-10.72,7.82-16.69,10.67-19.13,9.13-41.35,9.81-61.05,1.83-3.34-1.35-20.97-10.5-20.35-13.99l28.9-29.21c12.47,7.44,26.55,9.24,38.52-.32l30.67,31.02ZM493.19,521.09l-26.34,26.19c-.59,2.64,15.96,11,18.95,12.17,24.14,9.45,51.59,5.77,71.33-11.26l-25.59-26.69c-12.57,6.45-26.14,7.5-38.35-.41Z"/><path d="M464.59,603.52l16.69-35.2,27.45,6.14c.88,1.26.63,5.54.54,7.37-.34,6.78-.97,14.26-1.06,21.03-.04,2.93,2.78,7.2-.08,10.23-15.18-.45-29.52-3.98-43.54-9.57ZM505.86,575.65l-23.44-3.99-14.49,30.75c12.26,3.96,24.89,7.96,37.93,7.82v-34.58Z"/><path d="M536.03,493.5c0,13.22-10.72,23.93-23.93,23.93s-23.93-10.72-23.93-23.93,10.72-23.93,23.93-23.93,23.93,10.72,23.93,23.93ZM533.62,493.45c0-11.86-9.62-21.48-21.48-21.48s-21.48,9.62-21.48,21.48,9.62,21.48,21.48,21.48,21.48-9.62,21.48-21.48Z"/><path d="M715.58,206.38c-2.1-1.16-1.75-4.89-3.48-7.1-4.5-5.73-21.52-3.92-29.3-5.28-1.19-.21-4.17-.39-4.01-2.1,1.68-.34,3.05-1.1,4.87-1.03,4.43.19,22.94,2.46,26.38,3.78,5.61,2.16,6.17,6.22,5.55,11.73Z"/><path d="M693.28,214.2c.27,1.61-1.94,1.51-3.11,1.88-13.8,4.38-25.7-2.56-39.27.33,0-1.88,3.7-2.12,5-2.22,12.5-1.01,24.8,4.76,37.38.01Z"/><path d="M692.16,228.71c.26,1.95-2.53,1.05-3.89,1.1-11.71.48-23.47-1.39-35.16-1.67-.01-3.9,35.34,1.86,39.05.57Z"/><path d="M267.14,745.21c3.26-12.49-8.96-12.94-18.4-12.25-17.32,1.26-39.66,11.34-54.12-3.35,13.59,5.5,28.87-.31,42.96-1.12,10.95-.62,44.39-1.71,29.56,16.72Z"/><path d="M198.52,711.75c.3.04,2.93,1.35,2.78,1.67-4.99,4.97-11.3,6.67-7.81,15.07-5.26-3.82-10.48-10.14-11.15-16.73,5.06.52,11.3-.72,16.18,0ZM194.61,713.99l-8.92,1.12,3.36,6.68,5.56-7.8Z"/><path d="M486.34,35.7l17.29,30.12v-28.45c4.19-3.47,11.45-.93,16.73-1.67v58.01h-16.18l-18.41-31.24v31.24h-16.73v-58.01h17.29Z"/><path d="M271.58,53.54l8.87,56.84-16.65,1.74-22.32-26.22,5.57,30.11-16.73,3.36-10.06-56.89c5.18.29,14.48-3.93,18.98-1.69,4.2,2.09,14.2,21.02,20.06,23.99l-4.46-27.88,16.73-3.37Z"/><path d="M721.19,79.24c1.86,4.77,4.69,7.86,5.1,13.36.36,4.87-2.21,9.74.46,14.49l-16.8-1.6c-3.2-2.16,2.31-17.79-5.2-20.45-1.74-.62-10.3-1.78-11.54-.89l-2.15,18.49-17.86-1.12,6.7-56.89c11.32,2.43,35.32,1.01,44.05,7.81,9.33,7.26,8.06,22.38-2.77,26.8ZM710.86,71.13c7.65-7.65-10.11-12.18-15.35-10.9l-1.12,11.16c4.04.22,13.36,2.84,16.47-.26Z"/><path d="M647.55,41.27l-1.05,14.02-29.07-1.75-.83,6.2c.19,1.17,1.45,1.48,2.5,1.63,4.35.64,21.81.32,24.05,1.63l-.06,12.87-27.9-1.13.13,6.58,30,2.34v14.51s-49.09-3.36-49.09-3.36l4.46-56.89,46.86,3.35Z"/><path d="M436.7,37.92l1.11,14.51-30.13,1.11c.12,2.27-.93,6.8,1.84,7.7l26.06-1.01v13.4s-26.79,1.1-26.79,1.1v6.71s31.25-1.13,31.25-1.13v14.51s-47.98,2.23-47.98,2.23l-2.23-56.91,46.87-2.23Z"/><path d="M358.6,62.46l-15.04,2.26c-3.45-.33-2.95-4.23-6.05-5.11-21.43-6.07-18.12,29.95-2.81,30.67,4.36.2,11.17-2.41,10.51-7.72l-7.28.05-1.65-11.21,23.43-3.36c-.13,4.58,5.16,29.6,2.7,31.37l-10.51,1-.55-4.47c-22.53,21.63-50.19.36-46.01-28.16,4.02-27.46,44.43-32.52,53.26-5.32Z"/><path d="M850.58,130.52l-17.74-3.44-1.2-8.28-17.75-3.81-3.58,7.63-16.61-3.25,31.39-52.33c3.46,1.32,16.41,1.89,17.51,5.11l7.99,58.38ZM831.61,105.98l-1.66-17.84c-1.59,1.98-9.28,14.37-8.37,15.6l10.03,2.24Z"/><rect x="177.86" y="69.92" width="17.87" height="58.08" transform="translate(-17.52 44.74) rotate(-13.05)"/><rect x="736.15" y="75.72" width="57.47" height="18.19" transform="translate(560.65 826.8) rotate(-80.94)"/><polygon points="569.45 36.81 567.22 93.71 550.49 93.71 551.6 36.81 569.45 36.81"/><path d="M413.27,186.31c.56,2.11-5.01,9.7-6.39,9.98-2.77.57-17.89.41-14.8-3.3l7.8,2.22c-1.93-2.62-4.01-4.04-3.36-7.8-.11-.19-5.42,2.81-2.23-.56,6.47-3.06,12.24.03,18.97-.54Z"/><path d="M368.09,189.65c.71-.04,3.88-2.74,3.9-.01-15.77,4.67-46.88-4.51-47.4,20.11-2.63-9.2,2.21-14.71,10.6-17.3,2.89-.89,11.38-2.79,13.94-2.79,6.2,0,12.85.36,18.97,0Z"/><path d="M465.7,361.45c-.69,4.95,1.74,11.75-1.67,15.62h-22.87v12.27h22.31v14.5h-22.31v30.12h-18.97v-72.51h43.51Z"/></svg>