<?xml version="1.0" encoding="UTF-8"?><svg xmlns="http://www.w3.org/2000/svg" viewBox="0 0 1920 1080"><defs><style>.cls-1{stroke-width:1.62px;}.cls-1,.cls-2,.cls-3,.cls-4,.cls-5,.cls-6,.cls-7,.cls-8,.cls-9,.cls-10,.cls-11{stroke-miterlimit:10;}.cls-1,.cls-2,.cls-3,.cls-4,.cls-5,.cls-6,.cls-9,.cls-10{fill:none;stroke:#fff;}.cls-2{stroke-width:1.72px;}.cls-3,.cls-6,.cls-7,.cls-8,.cls-10,.cls-11{stroke-width:1.41px;}.cls-4{stroke-width:1.66px;}.cls-12{fill:#fff;}.cls-5{stroke-width:1.4px;}.cls-13,.cls-8,.cls-11{fill:#fff80b;}.cls-14{fill:red;}.cls-6{opacity:.6;}.cls-15{fill:#c00;}.cls-7{fill:#f33;stroke:red;}.cls-8{stroke:#fff80b;}.cls-9{stroke-width:1.69px;}.cls-10{stroke-dasharray:7.75 7.75;}.cls-16{fill:#5f5546;}.cls-11{stroke:#ff0;}</style></defs><g id="Layer_5"><path class="cls-12" d="M110.52,295.54l-1.42,1.42-1.79-1.73h-3.28l-5.55,5.55v3.42l5.59,5.55h3.22l1.76-1.86,1.49,1.42-2.07,2.17c-.2.2-.45.3-.74.3h-4.06c-.25,0-.49-.11-.71-.34l-6.2-6.09c-.2-.2-.3-.44-.3-.71v-4.27c0-.29.09-.53.27-.71l6.2-6.16c.18-.18.42-.27.71-.27h4.1c.32,0,.55.08.71.24l2.1,2.07Z"/><path class="cls-12" d="M122.75,309.29l.44.47h1.66v2.03h-2.07c-.27,0-.51-.1-.71-.3l-1.05-1.05c-.2-.2-.3-.44-.3-.71v-18.59h2.03v18.15Z"/><path class="cls-12" d="M139,291.14h2.07v2.07h-2.07v-2.07ZM139,297.34h2.07v14.46h-2.07v-14.46Z"/><path class="cls-12" d="M163.54,297.37v2h-6.87l-3.49,3.52v3.35l3.59,3.52h6.77v1.96h-7.18c-.29,0-.53-.09-.71-.27l-4.16-4.1c-.2-.2-.3-.44-.3-.71v-4.16c0-.27.1-.51.3-.71l4.06-4.1c.2-.2.43-.3.68-.3h7.31Z"/><path class="cls-12" d="M176.1,304.58l5.62,5.79-1.46,1.42-5.99-6.23h-2.71v6.23h-2.1v-20.65h2.1v12.39h2.74l6.09-6.2,1.42,1.42-5.72,5.82Z"/><line class="cls-3" x1="139.94" y1="220.39" x2="139.94" y2="278.18"/><line class="cls-3" x1="111.52" y1="249.37" x2="168.36" y2="249.37"/><line class="cls-1" x1="210.75" y1="254.34" x2="245.41" y2="254.34"/><line class="cls-1" x1="210.75" y1="244.31" x2="245.41" y2="244.31"/><path class="cls-12" d="M203.95,242.5l-8.74,6.76,8.74,6.67v2.95l-12.61-9.62,12.61-9.66v2.9Z"/><path class="cls-12" d="M252.21,242.58l8.74,6.76-8.74,6.67v2.95l12.61-9.62-12.61-9.66v2.9Z"/><circle class="cls-8" cx="317.04" cy="249.37" r="35.68"/><path class="cls-13" d="M311.99,198.51v6.6h-2v-11.44c0-.25.1-.47.3-.68l5.99-6.13c.17-.2.39-.3.68-.3.32,0,.58.1.78.3l6.06,6.16c.18.18.27.42.27.71v11.38h-2.03v-6.6h-10.06ZM312.03,196.62h10.02v-2.47l-5.04-5.08-4.98,5.04v2.51Z"/><path class="cls-8" d="M632.47,299.38c11.94-5.77,20.18-17.99,20.18-32.14s-8.24-26.37-20.18-32.14"/><path class="cls-8" d="M829.4,326.87c-11.74-5.84-19.81-17.95-19.81-31.96s8.06-26.12,19.81-31.96"/><line class="cls-6" x1="722.53" y1="254.11" x2="722.53" y2="311.9"/><line class="cls-6" x1="694.12" y1="283.08" x2="750.95" y2="283.08"/><line class="cls-6" x1="725.43" y1="250.52" x2="725.43" y2="308.31"/><line class="cls-6" x1="697.01" y1="279.5" x2="753.85" y2="279.5"/><rect class="cls-13" x="729.97" y="203.61" width="2.31" height="158.18" transform="translate(348.92 967.08) rotate(-81.96)"/><line class="cls-3" x1="632.47" y1="220.39" x2="632.47" y2="224.62"/><line class="cls-10" x1="632.47" y1="232.37" x2="632.47" y2="305.97"/><line class="cls-3" x1="632.47" y1="309.85" x2="632.47" y2="314.08"/><line class="cls-3" x1="829.41" y1="249.11" x2="829.41" y2="253.34"/><line class="cls-10" x1="829.41" y1="261.09" x2="829.41" y2="334.7"/><line class="cls-3" x1="829.41" y1="338.57" x2="829.41" y2="342.8"/><path class="cls-12" d="M178.7,206.76v6.54h-1.98v-11.34c0-.25.1-.47.3-.67l5.94-6.07c.17-.2.39-.3.67-.3.31,0,.57.1.77.3l6,6.11c.18.18.27.41.27.7v11.27h-2.01v-6.54h-9.96ZM178.74,204.88h9.93v-2.45l-5-5.03-4.93,5v2.48Z"/><path class="cls-12" d="M198.36,200.12l.8-.81c.2-.2.44-.3.7-.3h4.16c.27,0,.49.09.67.27l1.98,1.95c.2.2.3.44.3.7v11.3h-1.91v-10.9l-1.44-1.31h-3.35l-1.41,1.41v10.83h-2.01v-11.24s.04-.18.13-.4l-.6-.67h-1.64v-1.98h2.11c.27,0,.48.1.64.3l.87.84ZM195.68,193.91l-.7-.7,2.01-2.01c.2-.2.44-.3.7-.3h2.18c.31,0,.55.1.7.3l3.66,3.66h1.38l1.61-1.61.7.7.7.7-1.91,1.91c-.16.2-.39.3-.7.3h-2.18c-.27,0-.5-.1-.7-.3l-3.66-3.66h-1.38l-1.71,1.71-.7-.7Z"/><path class="cls-12" d="M225.03,211.32h2.05v1.95h-11.27c-.27,0-.5-.1-.7-.3l-1.95-2.08c-.2-.2-.3-.44-.3-.7v-2.01c0-.27.1-.5.3-.7l1.98-2.05c.18-.18.41-.27.7-.27h7.18v-2.78l-1.38-1.41h-6.84v-1.98h7.25c.27,0,.5.1.7.3l1.98,2.01c.2.2.3.43.3.67v9.36ZM223.01,211.32v-4.23h-6.74l-1.44,1.48v1.24l1.41,1.51h6.78Z"/><path class="cls-12" d="M243.21,213.24h-7.11c-.29,0-.53-.09-.7-.27l-4.13-4.06c-.2-.2-.3-.44-.3-.7v-4.13c0-.27.1-.5.3-.7l4.03-4.06c.2-.2.42-.3.67-.3h5.23v-6.17h2.01v20.39ZM241.19,211.29v-10.3h-4.8l-3.46,3.49v3.32l3.56,3.49h4.7Z"/><path class="cls-12" d="M255.12,192.84h2.05v2.05h-2.05v-2.05ZM255.12,198.98h2.05v14.32h-2.05v-14.32Z"/><path class="cls-12" d="M270.85,204.45v8.82h-1.98v-11.2c0-.26-.1-.5-.3-.74-.23-.2-.49-.3-.77-.3h-.6v-2.05h1.64c.34,0,.75.22,1.26.65.5.44.75.9.75,1.39v.64l2.31-2.35c.22-.22.46-.34.7-.34h2.45c.3,0,.54.1.7.3l2.11,2.05c.2.2.3.45.3.74v1.01h-2.01v-.6l-1.51-1.44h-1.61l-3.46,3.42Z"/><path class="cls-12" d="M388.19,258.96c.21.25.31.53.31.85,0,.26-.12.53-.35.82-.18.21-.45.34-.82.39-.03,0-.06,0-.11,0-.05,0-.08,0-.11,0-.19,0-.39-.06-.6-.17l-9.43-9.51v-2.17l9.4-9.55c.34-.16.57-.23.7-.23h.08c.27.04.5.16.7.35.21.18.34.45.39.82,0,.03,0,.06,0,.11,0,.05,0,.08,0,.11,0,.22-.06.43-.17.64l-8.85,8.85,8.85,8.7Z"/><path class="cls-12" d="M423.83,237.65c.26-.26.52-.39.78-.39s.44.03.54.08c.39.16.58.52.58,1.09v22.44h-2.33v-19.57l-3.73,3.8-1.63-1.51,5.78-5.94Z"/><path class="cls-12" d="M439.74,239.51v-2.33h13.86v3.61c0,.31-.12.58-.35.82l-5.16,5.16c.14.04.27.12.39.23l4.74,4.74c.23.23.35.5.35.82v2.6c0,.31-.12.58-.35.82l-4.54,4.54c-.23.23-.5.35-.82.35h-7.03c-.31,0-.58-.12-.82-.35l-2.56-2.56,1.63-1.63,2.21,2.21h6.17l3.84-3.84v-1.63l-4.04-4.08h-1.9c-.31,0-.58-.12-.82-.35s-.35-.5-.35-.82.12-.58.35-.82l6.76-6.68v-.82h-11.57Z"/><path class="cls-12" d="M1014.91,330.62l-1.42,1.42-1.79-1.73h-3.28l-5.55,5.55v3.42l5.59,5.55h3.22l1.76-1.86,1.49,1.42-2.07,2.17c-.2.2-.45.3-.74.3h-4.06c-.25,0-.49-.11-.71-.34l-6.2-6.09c-.2-.2-.3-.44-.3-.71v-4.27c0-.29.09-.53.27-.71l6.2-6.16c.18-.18.42-.27.71-.27h4.1c.32,0,.55.08.71.24l2.1,2.07Z"/><path class="cls-12" d="M1027.13,344.36l.44.47h1.66v2.03h-2.07c-.27,0-.51-.1-.71-.3l-1.05-1.05c-.2-.2-.3-.44-.3-.71v-18.59h2.03v18.15Z"/><path class="cls-12" d="M1043.38,326.22h2.07v2.07h-2.07v-2.07ZM1043.38,332.41h2.07v14.46h-2.07v-14.46Z"/><path class="cls-12" d="M1067.93,332.44v2h-6.87l-3.49,3.52v3.35l3.59,3.52h6.77v1.96h-7.18c-.29,0-.53-.09-.71-.27l-4.16-4.1c-.2-.2-.3-.44-.3-.71v-4.16c0-.27.1-.51.3-.71l4.06-4.1c.2-.2.43-.3.68-.3h7.31Z"/><path class="cls-12" d="M1080.49,339.66l5.62,5.79-1.46,1.42-5.99-6.23h-2.71v6.23h-2.1v-20.65h2.1v12.39h2.74l6.09-6.2,1.42,1.42-5.72,5.82Z"/><rect class="cls-12" x="1174.07" y="278.09" width="32.85" height="2.43"/><path class="cls-12" d="M1205.84,278.56l-4.42-3.5v-1.82l7.77,6.08-7.77,6.05v-1.85l4.4-3.43v-1.53Z"/><polygon class="cls-13" points="1244.16 288.71 1337.26 268.14 1337.12 266.4 1244.03 286.97 1244.16 288.71"/><line class="cls-3" x1="1019.02" y1="245.67" x2="1019.02" y2="249.9"/><line class="cls-10" x1="1019.02" y1="257.65" x2="1019.02" y2="331.25"/><line class="cls-3" x1="1019.02" y1="335.13" x2="1019.02" y2="339.36"/><line class="cls-6" x1="1043.52" y1="261.4" x2="1043.52" y2="319.19"/><line class="cls-6" x1="1015.1" y1="290.37" x2="1071.93" y2="290.37"/><path class="cls-8" d="M1019.02,326.4c14.24-4.69,24.5-18.09,24.5-33.89s-10.26-29.2-24.5-33.89"/><line class="cls-3" x1="1161.48" y1="215.34" x2="1161.48" y2="219.58"/><line class="cls-10" x1="1161.48" y1="227.32" x2="1161.48" y2="300.93"/><line class="cls-3" x1="1161.48" y1="304.8" x2="1161.48" y2="309.03"/><line class="cls-3" x1="1326.78" y1="792.74" x2="1326.78" y2="796.97"/><line class="cls-10" x1="1326.78" y1="804.72" x2="1326.78" y2="878.32"/><line class="cls-3" x1="1326.78" y1="882.19" x2="1326.78" y2="886.43"/><path class="cls-8" d="M1161.48,296.08c-14.24-4.69-24.5-18.09-24.5-33.89s10.26-29.2,24.5-33.89"/><line class="cls-3" x1="1219.52" y1="245.67" x2="1219.52" y2="249.9"/><line class="cls-10" x1="1219.52" y1="257.65" x2="1219.52" y2="331.25"/><line class="cls-3" x1="1219.52" y1="335.13" x2="1219.52" y2="339.36"/><line class="cls-6" x1="1337.48" y1="237.56" x2="1337.48" y2="295.35"/><line class="cls-6" x1="1309.06" y1="266.53" x2="1365.9" y2="266.53"/><path class="cls-8" d="M1219.52,326.4c14.24-4.69,24.5-18.09,24.5-33.89s-10.26-29.2-24.5-33.89"/><line class="cls-3" x1="1361.98" y1="215.34" x2="1361.98" y2="219.58"/><line class="cls-10" x1="1361.98" y1="227.32" x2="1361.98" y2="300.93"/><line class="cls-3" x1="1361.98" y1="304.8" x2="1361.98" y2="309.03"/><path class="cls-8" d="M1361.98,296.08c-14.24-4.69-24.5-18.09-24.5-33.89s10.26-29.2,24.5-33.89"/><path class="cls-12" d="M1295.03,306.47l-1.37-1.44h-7.58l-1.55,1.55v1.15l12.19,8.59c.31.2.47.5.47.9v2.13c0,.25-.1.49-.29.72l-2.06,2.24c-.26.26-.53.4-.79.4h-8.51c-.29,0-.54-.11-.76-.32l-2.2-2.2c-.22-.22-.32-.47-.32-.76v-1.12h2.16v.69l1.55,1.52h7.61l1.44-1.59v-1.12l-12.19-8.58c-.31-.2-.47-.51-.47-.9v-2.16c0-.29.11-.54.32-.76l2.2-2.2c.19-.19.44-.29.76-.29h8.44c.31,0,.57.1.76.29l2.09,2.09c.22.22.32.47.32.76v1.15h-2.24v-.72Z"/><path class="cls-12" d="M1301.99,309.75l2.2-2.27c.17-.17.41-.25.72-.25h6.78c.29,0,.55.12.79.36l2.02,2.27c.19.19.29.42.29.69v8.84c0,.29-.11.54-.32.76l-2.09,2.13c-.14.17-.35.25-.63.25h-6.84c-.25,0-.49-.08-.72-.25l-2.24-2.09c-.22-.19-.32-.46-.32-.79v-8.91c0-.24.12-.48.36-.72ZM1303.79,310.94v8.01l1.55,1.52h5.84l1.44-1.52v-8.01l-1.41-1.59h-5.88l-1.55,1.59Z"/><path class="cls-12" d="M1329.76,319.99l.47.5h1.77v2.16h-2.2c-.29,0-.54-.11-.76-.32l-1.12-1.12c-.22-.22-.32-.47-.32-.76v-19.8h2.16v19.33Z"/><path class="cls-12" d="M1349.24,319.99l.47.5h1.77v2.16h-2.2c-.29,0-.54-.11-.76-.32l-1.12-1.12c-.22-.22-.32-.47-.32-.76v-11h-4.44v-2.2h4.44v-6.6h2.16v6.6h4.44v2.2h-4.44v10.53Z"/><path class="cls-12" d="M1373.16,320.53h2.2v2.09h-12.12c-.29,0-.54-.11-.76-.32l-2.09-2.24c-.22-.22-.32-.47-.32-.76v-2.16c0-.29.11-.54.32-.76l2.13-2.2c.19-.19.44-.29.76-.29h7.72v-2.99l-1.48-1.52h-7.36v-2.13h7.79c.29,0,.54.11.76.32l2.13,2.16c.22.22.33.46.33.72v10.06ZM1370.99,320.53v-4.54h-7.25l-1.55,1.59v1.33l1.51,1.62h7.29Z"/><path class="cls-12" d="M1383.47,313.14v9.49h-2.13v-12.05c0-.28-.11-.54-.32-.79-.25-.22-.53-.32-.83-.32h-.65v-2.2h1.77c.36,0,.81.23,1.35.7.54.47.81.97.81,1.5v.69l2.49-2.53c.24-.24.49-.36.76-.36h2.63c.32,0,.58.11.76.32l2.27,2.2c.22.22.32.48.32.79v1.08h-2.16v-.65l-1.62-1.55h-1.73l-3.72,3.68Z"/><path class="cls-12" d="M1068.64,206.89v6.09h-1.84v-10.56c0-.23.09-.44.28-.62l5.53-5.65c.16-.19.36-.28.62-.28.29,0,.53.09.72.28l5.59,5.68c.17.17.25.39.25.66v10.49h-1.87v-6.09h-9.28ZM1068.67,205.14h9.24v-2.28l-4.65-4.68-4.59,4.65v2.31Z"/><path class="cls-12" d="M1086.97,204.74v8.21h-1.84v-10.43c0-.24-.09-.47-.28-.69-.22-.19-.46-.28-.72-.28h-.56v-1.9h1.53c.31,0,.7.2,1.17.61.47.41.7.84.7,1.3v.59l2.16-2.19c.21-.21.43-.31.66-.31h2.28c.28,0,.5.09.66.28l1.97,1.9c.19.19.28.42.28.69v.94h-1.87v-.56l-1.41-1.34h-1.5l-3.22,3.19Z"/><path class="cls-12" d="M1103.84,204.74v8.21h-1.84v-10.43c0-.24-.09-.47-.28-.69-.22-.19-.46-.28-.72-.28h-.56v-1.9h1.53c.31,0,.7.2,1.17.61.47.41.7.84.7,1.3v.59l2.16-2.19c.21-.21.43-.31.66-.31h2.28c.28,0,.5.09.66.28l1.97,1.9c.19.19.28.42.28.69v.94h-1.87v-.56l-1.41-1.34h-1.5l-3.22,3.19Z"/><path class="cls-12" d="M1128.63,211.14h1.9v1.81h-10.49c-.25,0-.47-.09-.66-.28l-1.81-1.94c-.19-.19-.28-.41-.28-.66v-1.87c0-.25.09-.47.28-.66l1.84-1.9c.17-.17.39-.25.66-.25h6.68v-2.59l-1.28-1.31h-6.37v-1.84h6.75c.25,0,.47.09.66.28l1.84,1.87c.19.19.28.4.28.62v8.71ZM1126.76,211.14v-3.94h-6.28l-1.34,1.37v1.16l1.31,1.41h6.31Z"/><path class="cls-12" d="M1143.59,202.89l-1.37-1.37h-4.81l-.91.94,8.71,6.9c.23.2.34.43.34.69,0,.29-.09.53-.28.72l-1.97,1.94c-.19.19-.41.28-.66.28h-5.62c-.25,0-.47-.09-.66-.28l-1.94-1.87c-.19-.19-.28-.42-.28-.69v-.87h1.87v.47l1.37,1.37h4.87l.94-.94-8.68-6.87c-.2-.13-.31-.36-.34-.69v-.11c0-.24.08-.44.25-.61l1.87-1.97c.19-.19.42-.28.69-.28h5.59c.25,0,.47.09.66.28l1.94,1.9c.19.19.28.41.28.66v1h-1.87v-.59Z"/><path class="cls-12" d="M1158.52,210.67l.41.44h1.53v1.87h-1.91c-.25,0-.47-.09-.66-.28l-.97-.97c-.19-.19-.28-.41-.28-.66v-9.52h-3.84v-1.9h3.84v-5.72h1.87v5.72h3.84v1.9h-3.84v9.12Z"/><path class="cls-12" d="M1171.29,204.74v8.21h-1.84v-10.43c0-.24-.09-.47-.28-.69-.22-.19-.46-.28-.72-.28h-.56v-1.9h1.53c.31,0,.7.2,1.17.61.47.41.7.84.7,1.3v.59l2.16-2.19c.21-.21.43-.31.66-.31h2.28c.28,0,.5.09.66.28l1.97,1.9c.19.19.28.42.28.69v.94h-1.87v-.56l-1.41-1.34h-1.5l-3.22,3.19Z"/><path class="cls-12" d="M1196.09,211.14h1.9v1.81h-10.49c-.25,0-.47-.09-.66-.28l-1.81-1.94c-.19-.19-.28-.41-.28-.66v-1.87c0-.25.09-.47.28-.66l1.84-1.9c.17-.17.39-.25.66-.25h6.68v-2.59l-1.28-1.31h-6.37v-1.84h6.75c.25,0,.47.09.66.28l1.84,1.87c.19.19.28.4.28.62v8.71ZM1194.22,211.14v-3.94h-6.28l-1.34,1.37v1.16l1.31,1.41h6.31Z"/><path class="cls-12" d="M1205.02,204.74v8.21h-1.84v-10.43c0-.24-.09-.47-.28-.69-.22-.19-.46-.28-.72-.28h-.56v-1.9h1.53c.31,0,.7.2,1.17.61.47.41.7.84.7,1.3v.59l2.16-2.19c.21-.21.43-.31.66-.31h2.28c.28,0,.5.09.66.28l1.97,1.9c.19.19.28.42.28.69v.94h-1.87v-.56l-1.41-1.34h-1.5l-3.22,3.19Z"/><path class="cls-12" d="M1245.21,211.89l-.75.75c-.19.19-.41.28-.66.28h-5.68c-.25,0-.46-.08-.62-.25l-1.84-1.81c-.19-.19-.28-.41-.28-.66v-10.56h1.84v10.18l1.28,1.28h4.93l1.31-1.37v-10.09h1.87v10.46s-.04.17-.13.37l.56.62h1.53v1.81h-1.9c-.31,0-.53-.08-.66-.25l-.81-.78Z"/><path class="cls-12" d="M1255.58,200.71l.75-.75c.19-.19.41-.28.66-.28h3.87c.25,0,.46.08.62.25l1.84,1.81c.19.19.28.41.28.66v10.52h-1.78v-10.15l-1.34-1.22h-3.12l-1.31,1.31v10.09h-1.87v-10.46s.04-.17.13-.37l-.56-.62h-1.53v-1.84h1.97c.25,0,.45.09.59.28l.81.78Z"/><path class="cls-12" d="M1274.69,193.93h1.9v1.9h-1.9v-1.9ZM1274.69,199.65h1.9v13.34h-1.9v-13.34Z"/><path class="cls-12" d="M1286.25,201.8l1.9-1.97c.15-.15.35-.22.62-.22h5.87c.25,0,.48.1.69.31l1.75,1.97c.17.17.25.36.25.59v7.65c0,.25-.09.47-.28.66l-1.81,1.84c-.13.15-.31.22-.55.22h-5.92c-.22,0-.43-.07-.62-.22l-1.94-1.81c-.19-.17-.28-.4-.28-.69v-7.71c0-.21.1-.42.31-.62ZM1287.81,202.83v6.93l1.34,1.31h5.06l1.25-1.31v-6.93l-1.22-1.37h-5.09l-1.34,1.37ZM1290.75,197.46c-.19-.19-.28-.41-.28-.66,0-.27.09-.5.28-.69l3.75-3.78c.19-.19.41-.28.66-.28.27,0,.5.09.69.28s.28.42.28.69c0,.25-.09.47-.28.66l-3.75,3.78c-.19.19-.42.28-.69.28-.25,0-.47-.09-.66-.28Z"/><path class="cls-12" d="M1306.17,200.71l.75-.75c.19-.19.41-.28.66-.28h3.87c.25,0,.46.08.62.25l1.84,1.81c.19.19.28.41.28.66v10.52h-1.78v-10.15l-1.34-1.22h-3.12l-1.31,1.31v10.09h-1.87v-10.46s.04-.17.13-.37l-.56-.62h-1.53v-1.84h1.97c.25,0,.45.09.59.28l.81.78Z"/><path class="cls-12" d="M633.13,316.53h-1.93v-1.93h8.7c.26,0,.49.1.69.29l3.93,3.99c.2.2.29.43.29.69v7.98c0,.28-.1.52-.29.72l-3.96,3.92c-.22.22-.45.33-.69.33h-8.67v-1.96h1.93v-14.03ZM635.09,330.53h4.38l3.37-3.37v-7.2l-3.37-3.43h-4.38v14Z"/><path class="cls-12" d="M649.09,320.81l2-2.06c.15-.15.37-.23.65-.23h6.15c.26,0,.5.11.72.33l1.83,2.06c.17.17.26.38.26.62v8.01c0,.26-.1.49-.29.69l-1.9,1.93c-.13.15-.32.23-.57.23h-6.2c-.23,0-.45-.08-.65-.23l-2.03-1.9c-.2-.17-.29-.41-.29-.72v-8.08c0-.22.11-.44.33-.65ZM650.73,321.89v7.26l1.41,1.37h5.3l1.31-1.37v-7.26l-1.28-1.44h-5.33l-1.41,1.44Z"/><path class="cls-12" d="M666.42,332.42v-19.85h1.96v6.02h5.1c.26,0,.49.1.69.29l3.89,3.96c.2.2.29.43.29.69v4.02c0,.26-.1.49-.29.69l-4.02,3.96c-.15.15-.38.23-.69.23h-6.93ZM668.39,330.56h4.58l3.47-3.4v-3.24l-3.34-3.4h-4.71v10.04Z"/><path class="cls-12" d="M691.94,330.1l.43.46h1.6v1.96h-2c-.26,0-.49-.1-.69-.29l-1.01-1.01c-.2-.2-.29-.43-.29-.69v-17.96h1.96v17.53Z"/><path class="cls-12" d="M703.68,326.57v2.58l1.41,1.47h8.6v1.83h-8.99c-.26,0-.48-.09-.65-.26l-2.03-1.96c-.17-.17-.26-.4-.26-.69v-7.92c0-.22.11-.44.33-.65l2-2.06c.24-.24.48-.36.72-.36h5.92c.22,0,.45.12.69.36l1.93,2.03c.2.2.29.41.29.65v4.97h-9.94ZM703.71,324.54h8.01v-2.55l-1.41-1.44h-5.17l-1.44,1.47v2.52Z"/><path class="cls-12" d="M749.01,318.59v1.93h-6.64l-3.37,3.4v3.24l3.47,3.4h6.54v1.9h-6.93c-.28,0-.51-.09-.69-.26l-4.02-3.96c-.2-.2-.29-.43-.29-.69v-4.02c0-.26.1-.49.29-.69l3.92-3.96c.2-.2.41-.29.65-.29h7.07Z"/><path class="cls-12" d="M762.59,330.1l.43.46h1.6v1.96h-2c-.26,0-.49-.1-.69-.29l-1.01-1.01c-.2-.2-.29-.43-.29-.69v-17.96h1.96v17.53Z"/><path class="cls-12" d="M778.28,312.57h2v2h-2v-2ZM778.28,318.56h2v13.97h-2v-13.97Z"/><path class="cls-12" d="M802,318.59v1.93h-6.64l-3.37,3.4v3.24l3.47,3.4h6.54v1.9h-6.93c-.28,0-.51-.09-.69-.26l-4.02-3.96c-.2-.2-.29-.43-.29-.69v-4.02c0-.26.1-.49.29-.69l3.92-3.96c.2-.2.41-.29.65-.29h7.07Z"/><path class="cls-12" d="M814.13,325.55l5.43,5.59-1.41,1.37-5.79-6.02h-2.62v6.02h-2.03v-19.95h2.03v11.97h2.65l5.89-5.99,1.37,1.37-5.53,5.63Z"/><rect class="cls-3" x="1032.62" y="658.64" width="145.7" height="72.5" rx="10.43" ry="10.43"/><path class="cls-12" d="M1064.63,688.96l-1.42,1.42-1.79-1.73h-3.28l-5.55,5.55v3.42l5.59,5.55h3.22l1.76-1.86,1.49,1.42-2.07,2.17c-.2.2-.45.3-.74.3h-4.06c-.25,0-.49-.11-.71-.34l-6.2-6.09c-.2-.2-.3-.44-.3-.71v-4.27c0-.29.09-.53.27-.71l6.2-6.16c.18-.18.42-.27.71-.27h4.1c.32,0,.55.08.71.24l2.1,2.07Z"/><path class="cls-12" d="M1076.86,702.71l.44.47h1.66v2.03h-2.07c-.27,0-.51-.1-.71-.3l-1.05-1.05c-.2-.2-.3-.44-.3-.71v-10.33h-4.16v-2.07h4.16v-6.2h2.03v6.2h4.16v2.07h-4.16v9.89Z"/><path class="cls-12" d="M1090.7,696.28v8.9h-2v-11.31c0-.26-.1-.51-.3-.74-.24-.2-.5-.3-.78-.3h-.61v-2.07h1.66c.34,0,.76.22,1.27.66.51.44.76.91.76,1.41v.64l2.34-2.37c.23-.23.46-.34.71-.34h2.47c.3,0,.54.1.71.3l2.13,2.07c.2.2.3.45.3.74v1.02h-2.03v-.61l-1.52-1.46h-1.62l-3.49,3.45Z"/><path class="cls-12" d="M1113.42,702.71l.44.47h1.66v2.03h-2.07c-.27,0-.51-.1-.71-.3l-1.05-1.05c-.2-.2-.3-.44-.3-.71v-18.59h2.03v18.15Z"/><path class="cls-12" d="M1299.31,723.96l-1.42,1.42-1.79-1.73h-3.28l-5.55,5.55v3.42l5.59,5.55h3.22l1.76-1.86,1.49,1.42-2.07,2.17c-.2.2-.45.3-.74.3h-4.06c-.25,0-.49-.11-.71-.34l-6.2-6.09c-.2-.2-.3-.44-.3-.71v-4.27c0-.29.09-.53.27-.71l6.2-6.16c.18-.18.42-.27.71-.27h4.1c.32,0,.55.08.71.24l2.1,2.07Z"/><path class="cls-12" d="M1311.53,737.7l.44.47h1.66v2.03h-2.07c-.27,0-.51-.1-.71-.3l-1.05-1.05c-.2-.2-.3-.44-.3-.71v-18.59h2.03v18.15Z"/><path class="cls-12" d="M1327.78,719.56h2.07v2.07h-2.07v-2.07ZM1327.78,725.75h2.07v14.46h-2.07v-14.46Z"/><path class="cls-12" d="M1352.33,725.79v2h-6.87l-3.49,3.52v3.35l3.59,3.52h6.77v1.96h-7.18c-.29,0-.53-.09-.71-.27l-4.16-4.1c-.2-.2-.3-.44-.3-.71v-4.16c0-.27.1-.51.3-.71l4.06-4.1c.2-.2.43-.3.68-.3h7.31Z"/><path class="cls-12" d="M1364.89,733l5.62,5.79-1.46,1.42-5.99-6.23h-2.71v6.23h-2.1v-20.65h2.1v12.39h2.74l6.09-6.2,1.42,1.42-5.72,5.82Z"/><line class="cls-3" x1="1327.92" y1="651.9" x2="1327.92" y2="709.69"/><line class="cls-3" x1="1299.5" y1="680.88" x2="1356.34" y2="680.88"/><path class="cls-12" d="M1238.52,708.67l-6.76-17.49-6.67,17.49h-2.95l9.62-25.22,9.66,25.22h-2.9Z"/><rect class="cls-3" x="161.85" y="657.47" width="187.73" height="72.5" rx="10.43" ry="10.43"/><path class="cls-12" d="M195.76,688.95l-1.29-1.35h-7.11l-1.46,1.46v1.08l11.44,8.06c.29.19.44.47.44.85v2c0,.24-.09.46-.27.68l-1.93,2.1c-.25.25-.5.37-.74.37h-7.99c-.27,0-.51-.1-.71-.3l-2.07-2.07c-.2-.2-.3-.44-.3-.71v-1.05h2.03v.64l1.46,1.42h7.14l1.35-1.49v-1.05l-11.44-8.06c-.29-.19-.44-.47-.44-.85v-2.03c0-.27.1-.51.3-.71l2.07-2.07c.18-.18.42-.27.71-.27h7.92c.29,0,.53.09.71.27l1.96,1.96c.2.2.3.44.3.71v1.08h-2.1v-.68Z"/><path class="cls-12" d="M201.96,704.18v-20.92h2.03v9.07l2.44-2.44c.14-.11.37-.17.71-.17h4.03c.26,0,.5.09.71.27l2.13,2.03c.2.2.3.45.3.74v11.41h-2.03v-10.97l-1.52-1.49h-3.22l-3.55,3.42v9.04h-2.03Z"/><path class="cls-12" d="M226.33,683.5h2.07v2.07h-2.07v-2.07ZM226.33,689.69h2.07v14.46h-2.07v-14.46Z"/><path class="cls-12" d="M246.11,685.53l-1.35,1.39v2.78h4.1v2.07h-4.13v12.39h-2v-12.39h-4.2v-2.07h4.2v-3.18c0-.29.09-.53.27-.71l1.93-2c.2-.2.45-.3.74-.3h5.21v2.03h-4.77Z"/><path class="cls-12" d="M264.93,701.64l.44.47h1.66v2.03h-2.07c-.27,0-.51-.1-.71-.3l-1.05-1.05c-.2-.2-.3-.44-.3-.71v-10.33h-4.16v-2.07h4.16v-6.2h2.03v6.2h4.16v2.07h-4.16v9.89Z"/><path class="cls-12" d="M472.28,722.79l-1.42,1.42-1.79-1.73h-3.28l-5.55,5.55v3.42l5.59,5.55h3.22l1.76-1.86,1.49,1.42-2.07,2.17c-.2.2-.45.3-.74.3h-4.06c-.25,0-.49-.11-.71-.34l-6.2-6.09c-.2-.2-.3-.44-.3-.71v-4.27c0-.29.09-.53.27-.71l6.2-6.16c.18-.18.42-.27.71-.27h4.1c.32,0,.55.08.71.24l2.1,2.07Z"/><path class="cls-12" d="M484.5,736.54l.44.47h1.66v2.03h-2.07c-.27,0-.51-.1-.71-.3l-1.05-1.05c-.2-.2-.3-.44-.3-.71v-18.59h2.03v18.15Z"/><path class="cls-12" d="M500.75,718.39h2.07v2.07h-2.07v-2.07ZM500.75,724.58h2.07v14.46h-2.07v-14.46Z"/><path class="cls-12" d="M525.3,724.62v2h-6.87l-3.49,3.52v3.35l3.59,3.52h6.77v1.96h-7.18c-.29,0-.53-.09-.71-.27l-4.16-4.1c-.2-.2-.3-.44-.3-.71v-4.16c0-.27.1-.51.3-.71l4.06-4.1c.2-.2.43-.3.68-.3h7.31Z"/><path class="cls-12" d="M537.86,731.83l5.62,5.79-1.46,1.42-5.99-6.23h-2.71v6.23h-2.1v-20.65h2.1v12.39h2.74l6.09-6.2,1.42,1.42-5.72,5.82Z"/><line class="cls-3" x1="500.89" y1="650.73" x2="500.89" y2="708.52"/><line class="cls-3" x1="472.47" y1="679.71" x2="529.3" y2="679.71"/><path class="cls-12" d="M410.63,706.33l-6.76-17.49-6.67,17.49h-2.95l9.62-25.22,9.66,25.22h-2.9Z"/><circle class="cls-7" cx="209.76" cy="826.09" r="35.68"/><line class="cls-6" x1="233.1" y1="776.8" x2="233.1" y2="834.59"/><line class="cls-6" x1="204.69" y1="805.78" x2="261.52" y2="805.78"/><path class="cls-12" d="M277.76,875.85h14.08v2.07h-12.09v6.13h8.06v2.07h-8.06v6.3h12.09v2.03h-14.08v-18.59Z"/><path class="cls-12" d="M304.07,891.93l.44.47h1.66v2.03h-2.07c-.27,0-.51-.1-.71-.3l-1.05-1.05c-.2-.2-.3-.44-.3-.71v-18.59h2.03v18.15Z"/><path class="cls-12" d="M320.32,873.79h2.07v2.07h-2.07v-2.07ZM320.32,879.98h2.07v14.46h-2.07v-14.46Z"/><path class="cls-12" d="M340.7,883.47v10.97h-2.07v-10.97l-1.39-1.42h-1.22l-1.49,1.46v10.94h-2.03v-14.42h2.07v.58l.3-.3c.2-.2.44-.3.71-.3h2.1c.29,0,.54.1.74.3l1.22,1.32,1.29-1.29c.2-.2.44-.3.71-.3h2.17c.27,0,.51.1.71.3l2,2c.2.2.3.44.3.71v11.41h-2.03v-11l-1.39-1.39h-1.32l-1.39,1.42Z"/><path class="cls-12" d="M356.88,873.79h2.07v2.07h-2.07v-2.07ZM356.88,879.98h2.07v14.46h-2.07v-14.46Z"/><path class="cls-12" d="M372.73,881.13l.81-.81c.2-.2.44-.3.71-.3h4.2c.27,0,.5.09.68.27l2,1.96c.2.2.3.44.3.71v11.41h-1.93v-11l-1.46-1.32h-3.39l-1.42,1.42v10.94h-2.03v-11.34s.05-.18.14-.41l-.61-.68h-1.66v-2h2.13c.27,0,.49.1.64.3l.88.85Z"/><path class="cls-12" d="M399.65,892.44h2.07v1.96h-11.38c-.27,0-.51-.1-.71-.3l-1.96-2.1c-.2-.2-.3-.44-.3-.71v-2.03c0-.27.1-.51.3-.71l2-2.07c.18-.18.42-.27.71-.27h7.25v-2.81l-1.39-1.42h-6.91v-2h7.31c.27,0,.51.1.71.3l2,2.03c.2.2.3.43.3.68v9.45ZM397.61,892.44v-4.27h-6.81l-1.46,1.49v1.25l1.42,1.52h6.84Z"/><path class="cls-12" d="M409.33,885.5v8.9h-2v-11.31c0-.26-.1-.51-.3-.74-.24-.2-.5-.3-.78-.3h-.61v-2.07h1.66c.34,0,.76.22,1.27.66.51.44.76.91.76,1.41v.64l2.34-2.37c.23-.23.46-.34.71-.34h2.47c.3,0,.54.1.71.3l2.13,2.07c.2.2.3.45.3.74v1.02h-2.03v-.61l-1.52-1.46h-1.62l-3.49,3.45Z"/><circle class="cls-11" cx="1114.03" cy="816.88" r="35.68"/><path class="cls-13" d="M1108.99,767.45v6.6h-2v-11.44c0-.25.1-.47.3-.68l5.99-6.13c.17-.2.39-.3.68-.3.32,0,.58.1.78.3l6.06,6.16c.18.18.27.42.27.71v11.38h-2.03v-6.6h-10.06ZM1109.02,765.56h10.02v-2.47l-5.04-5.08-4.98,5.04v2.51Z"/><path class="cls-14" d="M204.72,776.07v6.6h-2v-11.44c0-.25.1-.47.3-.68l5.99-6.13c.17-.2.39-.3.68-.3.32,0,.58.1.78.3l6.06,6.16c.18.18.27.42.27.71v11.38h-2.03v-6.6h-10.06ZM204.75,774.17h10.02v-2.47l-5.04-5.08-4.98,5.04v2.51Z"/><line class="cls-6" x1="1136.54" y1="768.17" x2="1136.54" y2="825.96"/><line class="cls-6" x1="1108.13" y1="797.14" x2="1164.96" y2="797.14"/><path class="cls-12" d="M1178.42,902.78v2.57h-2.07v-2.57l-3.96-4.2v15.03h-2.03v-17.47c0-.45.21-.77.64-.95.14-.07.26-.1.37-.1.25,0,.48.11.71.34l5.25,5.45,5.38-5.52c.18-.18.42-.27.71-.27.02,0,.06,0,.12-.02s.1-.02.14-.02c.01,0,.05.01.12.03.43.18.64.51.64.98v17.54h-2.03v-15.1l-4,4.27Z"/><path class="cls-12" d="M1188.88,901.53l2.07-2.13c.16-.16.38-.24.68-.24h6.37c.27,0,.52.11.74.34l1.9,2.13c.18.18.27.39.27.64v8.3c0,.27-.1.51-.3.71l-1.96,2c-.14.16-.33.24-.59.24h-6.42c-.24,0-.46-.08-.68-.24l-2.1-1.96c-.2-.18-.3-.43-.3-.74v-8.36c0-.23.11-.45.34-.68ZM1190.58,902.64v7.52l1.46,1.42h5.49l1.35-1.42v-7.52l-1.32-1.49h-5.52l-1.46,1.49Z"/><path class="cls-12" d="M1208.86,902.07l5.11,8.6,5.18-8.7v-2.74h2.03v3.01c0,.19-.05.36-.14.51l-6.2,10.43c-.2.34-.5.51-.88.51s-.68-.17-.88-.51l-6.13-10.33c-.09-.15-.14-.32-.14-.51v-3.11h2.03v2.84Z"/><path class="cls-12" d="M1227.11,907.49v2.67l1.46,1.52h8.9v1.9h-9.31c-.27,0-.5-.09-.68-.27l-2.1-2.03c-.18-.18-.27-.42-.27-.71v-8.19c0-.23.11-.45.34-.68l2.07-2.13c.25-.25.5-.37.75-.37h6.13c.23,0,.46.12.71.37l2,2.1c.2.2.31.43.31.68v5.15h-10.29ZM1227.14,905.39h8.29v-2.64l-1.46-1.49h-5.35l-1.49,1.52v2.61Z"/><path class="cls-12" d="M1247.08,904.71v8.9h-2v-11.31c0-.26-.1-.51-.3-.75-.24-.2-.5-.3-.78-.3h-.61v-2.07h1.66c.34,0,.76.22,1.27.66.51.44.76.91.76,1.41v.64l2.34-2.37c.23-.23.46-.34.71-.34h2.47c.3,0,.54.1.71.3l2.13,2.07c.2.2.3.45.3.75v1.02h-2.03v-.61l-1.52-1.46h-1.62l-3.49,3.45Z"/><line class="cls-5" x1="1046.45" y1="817.66" x2="1074.53" y2="817.66"/><polygon class="cls-12" points="1047.53 814.33 1041.18 817.66 1047.53 820.98 1047.53 814.33"/><line class="cls-5" x1="1066.47" y1="764.78" x2="1086.32" y2="784.63"/><polygon class="cls-12" points="1069.58 763.19 1062.74 761.05 1064.88 767.89 1069.58 763.19"/><line class="cls-5" x1="1067.72" y1="869.36" x2="1087.71" y2="849.64"/><polygon class="cls-12" points="1070.82 870.97 1063.97 873.06 1066.15 866.24 1070.82 870.97"/><path class="cls-11" d="M1326.46,871.23c-11.74-5.84-19.81-17.95-19.81-31.96s8.06-26.12,19.81-31.96"/><rect class="cls-13" x="1227.03" y="747.97" width="2.31" height="158.18" transform="translate(237.44 1927.46) rotate(-81.96)"/><path class="cls-11" d="M342.63,826.15c11.94-5.77,20.18-17.99,20.18-32.14s-8.24-26.37-20.18-32.14"/><path class="cls-11" d="M539.56,853.63c-11.74-5.84-19.81-17.95-19.81-31.96s8.06-26.12,19.81-31.96"/><line class="cls-6" x1="433.75" y1="780.57" x2="433.75" y2="838.36"/><line class="cls-6" x1="405.33" y1="809.55" x2="462.16" y2="809.55"/><rect class="cls-15" x="440.12" y="730.38" width="2.31" height="158.18" transform="translate(-421.96 1133.16) rotate(-81.96)"/><line class="cls-3" x1="342.63" y1="747.16" x2="342.63" y2="751.39"/><line class="cls-10" x1="342.63" y1="759.14" x2="342.63" y2="832.74"/><line class="cls-3" x1="342.63" y1="836.62" x2="342.63" y2="840.85"/><line class="cls-3" x1="539.56" y1="775.88" x2="539.56" y2="780.11"/><line class="cls-10" x1="539.56" y1="787.86" x2="539.56" y2="861.46"/><line class="cls-3" x1="539.56" y1="865.34" x2="539.56" y2="869.57"/><path class="cls-12" d="M635.04,197.18l-1.48,1.41-1.86-1.72h-3.41l-5.76,5.51v3.4l5.8,5.51h3.34l1.83-1.85,1.55,1.41-2.14,2.15c-.21.2-.47.3-.77.3h-4.22c-.26,0-.5-.11-.74-.34l-6.43-6.05c-.21-.2-.32-.44-.32-.71v-4.24c0-.29.09-.53.28-.71l6.43-6.12c.19-.18.43-.27.74-.27h4.25c.33,0,.57.08.74.24l2.18,2.05Z"/><path class="cls-12" d="M652.04,211.34h2.14v1.95h-11.8c-.28,0-.53-.1-.74-.3l-2.04-2.08c-.21-.2-.32-.44-.32-.71v-2.02c0-.27.11-.5.32-.71l2.07-2.05c.19-.18.43-.27.74-.27h7.52v-2.79l-1.44-1.41h-7.17v-1.98h7.59c.28,0,.53.1.74.3l2.07,2.02c.21.2.32.43.32.67v9.38ZM649.93,211.34v-4.24h-7.06l-1.51,1.48v1.24l1.48,1.51h7.1Z"/><path class="cls-12" d="M666.76,202.43v10.89h-2.14v-10.89l-1.44-1.41h-1.26l-1.55,1.45v10.86h-2.11v-14.32h2.14v.57l.32-.3c.21-.2.46-.3.74-.3h2.18c.3,0,.56.1.77.3l1.27,1.31,1.34-1.28c.21-.2.46-.3.74-.3h2.25c.28,0,.53.1.74.3l2.07,1.98c.21.2.32.44.32.71v11.33h-2.11v-10.93l-1.44-1.38h-1.37l-1.44,1.41Z"/><path class="cls-12" d="M677.23,213.22v-20.41h2.11v6.19h5.48c.28,0,.53.1.74.3l4.18,4.07c.21.2.32.44.32.71v4.14c0,.27-.11.5-.32.71l-4.32,4.07c-.16.16-.41.24-.74.24h-7.45ZM679.34,211.3h4.92l3.72-3.5v-3.33l-3.58-3.5h-5.06v10.32Z"/><path class="cls-12" d="M702.53,192.81h2.14v2.05h-2.14v-2.05ZM702.53,198.96h2.14v14.36h-2.14v-14.36Z"/><path class="cls-12" d="M727.93,211.34h2.14v1.95h-11.8c-.28,0-.53-.1-.74-.3l-2.04-2.08c-.21-.2-.32-.44-.32-.71v-2.02c0-.27.11-.5.32-.71l2.07-2.05c.19-.18.43-.27.74-.27h7.52v-2.79l-1.44-1.41h-7.17v-1.98h7.59c.28,0,.53.1.74.3l2.07,2.02c.21.2.32.43.32.67v9.38ZM725.82,211.34v-4.24h-7.06l-1.51,1.48v1.24l1.48,1.51h7.1Z"/><path class="cls-12" d="M737.97,204.44v8.84h-2.07v-11.23c0-.26-.11-.5-.32-.74-.25-.2-.52-.3-.81-.3h-.63v-2.05h1.72c.35,0,.79.22,1.32.66.53.44.79.9.79,1.4v.64l2.42-2.35c.23-.22.48-.34.74-.34h2.56c.32,0,.56.1.74.3l2.21,2.05c.21.2.32.45.32.74v1.01h-2.11v-.61l-1.58-1.45h-1.69l-3.62,3.43Z"/><path class="cls-12" d="M772.09,198.9h7.73c.21,0,.36.04.46.13l4.32,3.97c.21.2.32.44.32.71v4.51c0,.27-.11.5-.32.71l-4.22,4.07c-.21.2-.45.3-.7.3h-5.48v6.19h-2.11v-20.58ZM774.2,201.01v10.29h5.02l3.62-3.5v-3.7l-3.41-3.09h-5.23Z"/><path class="cls-12" d="M793.13,207.2v2.66l1.51,1.51h9.24v1.88h-9.66c-.28,0-.52-.09-.7-.27l-2.18-2.02c-.19-.18-.28-.41-.28-.71v-8.14c0-.22.12-.45.35-.67l2.14-2.12c.26-.25.52-.37.77-.37h6.36c.23,0,.48.12.74.37l2.07,2.08c.21.2.32.43.32.67v5.11h-10.68ZM793.17,205.12h8.61v-2.62l-1.51-1.48h-5.55l-1.55,1.51v2.59Z"/><path class="cls-12" d="M820.64,202.46l-1.55-1.48h-5.41l-1.02,1.01,9.8,7.43c.26.21.39.46.39.74,0,.31-.11.57-.32.77l-2.21,2.08c-.21.2-.46.3-.74.3h-6.32c-.28,0-.53-.1-.74-.3l-2.18-2.02c-.21-.2-.32-.45-.32-.74v-.94h2.11v.5l1.55,1.48h5.48l1.05-1.01-9.77-7.4c-.22-.15-.35-.39-.39-.74v-.12c0-.26.09-.48.28-.66l2.11-2.12c.21-.2.47-.3.77-.3h6.29c.28,0,.53.1.74.3l2.18,2.05c.21.2.32.44.32.71v1.08h-2.11v-.64Z"/><path class="cls-12" d="M829.35,201.28l2.14-2.12c.16-.16.4-.24.7-.24h6.61c.28,0,.54.11.77.34l1.97,2.12c.19.18.28.39.28.64v8.24c0,.27-.11.5-.32.71l-2.04,1.98c-.14.16-.35.24-.61.24h-6.66c-.25,0-.48-.08-.7-.24l-2.18-1.95c-.21-.18-.32-.43-.32-.74v-8.31c0-.22.12-.45.35-.67ZM831.11,202.39v7.46l1.51,1.41h5.69l1.41-1.41v-7.46l-1.37-1.48h-5.73l-1.51,1.48Z"/><path class="cls-16" d="M438.04,855.57v1c.1-.3-.1-.7,0-1Z"/></g><g id="Layer_10"><path class="cls-12" d="M250.33,525.51c-1.98,7.03-5.59,13.55-10.66,18.83-2.45,2.55-5.22,4.8-8.23,6.67s-6.34,3.17-9.69,4.13-6.93,1.54-10.47,1.68c-4.04.16-8.14-.22-12.15-.77-4.29-.59-8.54-1.59-12.53-3.29-3.65-1.56-6.98-3.76-10.15-6.15-5.99-4.51-11.97-10.34-13.99-17.8-.28-1.03-.47-2.08-.66-3.12.03.15-1.34.58-1.3.75.39,2.07.84,4.08,1.69,6.02.78,1.8,1.8,3.5,2.95,5.09,2.37,3.26,5.31,6.07,8.44,8.58s6.48,4.88,10.09,6.63c4.04,1.96,8.39,3.14,12.81,3.84,7.86,1.24,15.91,1.53,23.64-.62,3.39-.94,6.65-2.3,9.71-4.02s6-3.65,8.65-5.99c5.6-4.96,9.81-11.36,12.27-18.41.32-.93.61-1.86.88-2.81-.03.1-.56.31-.66.37-.11.07-.61.25-.65.38h0Z"/><path class="cls-12" d="M185.27,463.01c2.19,12.88,8.71,24.5,15.62,35.4,1.86,2.94,3.77,5.85,5.67,8.77-.01-.02,1.48-.77,1.46-.84-3.14-12.61-1.18-25.94,3.25-37.99,1.23-3.35,2.67-6.62,4.27-9.81-.07.14-.59.33-.74.41-.16.09-.64.25-.73.43-5.72,11.39-9.5,24.16-9.03,37,.13,3.64.63,7.26,1.51,10.8l1.46-.84c-6.95-10.71-14.19-21.46-18.49-33.57-1.22-3.45-2.18-6.99-2.8-10.6.03.18-1.5.64-1.46.84h0Z"/><path class="cls-12" d="M213.68,459.74c1.78,9.97,2.34,20.14,1.67,30.24-.19,2.86-.48,5.7-.86,8.54.01-.08.65-.36.74-.41.1-.06.71-.31.73-.43,1.35-10.04,1.5-20.23.41-30.3-.31-2.84-.72-5.67-1.22-8.48.03.18-1.5.64-1.46.84h0Z"/><path class="cls-12" d="M215.54,458.54c.04-.16.08-.26.2-.37l-1.36.79c.25-.14.63.1.77.29s.11.31.12.52c.02.29.15.56.27.85.49,1.19.96,2.39,1.42,3.6.93,2.47,1.8,4.98,2.59,7.5,1.67,5.33,3.05,10.76,3.97,16.27.5,2.98.86,5.98,1.04,9,0-.05.67-.37.74-.41.08-.05.73-.34.73-.43-.34-5.94-1.4-11.82-2.84-17.58s-3.26-11.41-5.42-16.92c-.27-.69-.54-1.37-.83-2.05-.07-.16-.2-.38-.23-.55-.01-.11.06-.23.04-.35-.03-.21-.18-.39-.36-.5-.38-.22-.67-.01-1,.18-.43.24-1.17.47-1.3,1.01.02-.1.63-.36.74-.41.12-.07.69-.29.73-.43h0Z"/><path class="cls-12" d="M225.35,455.25c1.31,10.83.27,21.8-.38,32.64-.18,3.03-.34,6.06-.42,9.1,0-.07.66-.37.74-.41.09-.05.72-.33.73-.43.28-10.92,1.58-21.8,1.38-32.72-.05-3.01-.23-6.02-.59-9.02.03.21-1.49.61-1.46.84h0Z"/><path class="cls-12" d="M253.35,471.31c.93,8.36,1.06,16.8.39,25.18s-2.1,16.61-4.35,24.66c-1.23,4.41-2.71,8.75-4.44,12.98.05-.13.61-.34.74-.41.15-.09.66-.26.73-.43,3.1-7.58,5.38-15.49,6.9-23.54s2.33-16.7,2.31-25.12c-.02-4.73-.29-9.46-.81-14.16.02.21-1.49.61-1.46.84h0Z"/><path class="cls-12" d="M260.77,499.38c-2.71,9.53-6.49,18.77-11.4,27.39-1.41,2.47-2.91,4.89-4.5,7.25.11-.16.57-.32.75-.42.19-.11.61-.25.74-.44,5.55-8.24,9.99-17.21,13.32-26.57.95-2.66,1.8-5.36,2.58-8.08-.03.11-.64.36-.75.42-.13.08-.7.29-.74.44h0Z"/><path class="cls-12" d="M225.63,456.21c2.91,10.18,4.9,20.61,5.96,31.14.3,3.03.53,6.06.68,9.1,0-.05.66-.37.74-.41.08-.05.73-.34.73-.43-.54-10.6-1.98-21.16-4.38-31.5-.68-2.93-1.43-5.85-2.26-8.74.03.12-1.5.7-1.46.84h0Z"/><path class="cls-12" d="M234.13,458.93c.7,9.69-.09,19.43-1.17,29.07-.3,2.68-.63,5.36-.96,8.03.01-.08.65-.36.74-.41.1-.06.71-.31.73-.43,1.2-9.63,2.34-19.3,2.39-29.02.01-2.7-.07-5.39-.26-8.08,0,.05-.67.37-.74.41-.08.05-.73.35-.73.43h0Z"/><path class="cls-12" d="M232.7,455.25c1.05,2.06,1.68,4.38,2.35,6.59.86,2.84,1.63,5.7,2.36,8.58.49,1.96.99,3.91,1.19,5.92.5,5.01.84,10.04,1.02,15.07.21,5.69.21,11.39.02,17.09,0-.07.66-.37.74-.41.09-.05.72-.33.73-.43.34-10.07.06-20.15-.85-30.19-.12-1.32-.2-2.65-.46-3.95-.2-.99-.44-1.98-.68-2.96-.69-2.83-1.44-5.64-2.26-8.43-.76-2.58-1.46-5.31-2.69-7.71,0,.02-1.48.81-1.46.84h0Z"/><path class="cls-12" d="M242.55,463.01c.97,10.48,1,21.04.06,31.52-.26,2.94-.6,5.88-1.01,8.81.01-.08.65-.36.74-.41.11-.06.71-.31.73-.43,1.47-10.41,1.98-20.95,1.55-31.46-.12-2.96-.32-5.92-.6-8.87,0,.05-.67.38-.74.41-.08.04-.73.35-.73.43h0Z"/><path class="cls-12" d="M243.3,475.65c.52,8.98,2.11,17.86,2.61,26.85.14,2.52.19,5.04.12,7.57,0-.07.66-.37.74-.41.09-.05.72-.33.73-.43.27-9-1.14-17.93-2.09-26.85-.27-2.51-.49-5.03-.64-7.56,0,.05-.67.37-.74.41-.08.05-.73.34-.73.43h0Z"/><path class="cls-12" d="M247.62,507.65c.84-12.08,1.25-24.2,1.24-36.31,0-3.4-.04-6.81-.11-10.21,0,.06-.66.37-.74.41-.08.05-.73.34-.73.43.25,12.11.08,24.24-.52,36.34-.17,3.4-.37,6.79-.61,10.18,0-.07.65-.37.74-.41.09-.05.72-.32.73-.43h0Z"/><path class="cls-12" d="M185.27,463.01c-2.85,3.27-6.11,6.16-9.11,9.29-1.54,1.6-3.01,3.27-4.32,5.07s-2.39,3.84-3.38,5.89c-2.18,4.5-3.93,9.2-4.88,14.12s-1.28,10.26-2.08,15.37-2.14,10.39-5.2,14.68c.12-.16.56-.31.74-.41.2-.11.59-.24.73-.43,5.78-8.1,5.41-18.76,6.95-28.17.82-4.99,2.35-9.76,4.45-14.35.97-2.12,1.98-4.26,3.25-6.22,1.19-1.83,2.57-3.52,4.04-5.13,3.31-3.63,7.06-6.84,10.29-10.55-.35.4-1.11.44-1.46.84h0Z"/><path class="cls-12" d="M262.09,482.26c-.83,12.47-1.67,24.96-3.65,37.31-1.82,11.36-4.63,22.63-9.28,33.18-2.5,5.68-5.53,11.12-9.21,16.13.12-.17.56-.32.75-.42.2-.12.6-.25.74-.44,6.57-8.95,11.06-19.26,14.18-29.87,3.41-11.59,5.17-23.59,6.32-35.6.68-7.04,1.15-14.09,1.62-21.15,0,.07-.67.37-.75.42-.1.06-.73.33-.74.44h0Z"/><path class="cls-12" d="M248.85,556.04c3.65-8.34,9.73-15.34,13.39-23.67,1.02-2.32,1.82-4.72,2.3-7.21-.02.1-.65.37-.75.42-.12.07-.71.3-.74.44-1.73,8.98-7.54,16.34-12.11,24.03-1.32,2.22-2.54,4.48-3.58,6.85.06-.14.61-.34.75-.42.16-.09.67-.27.74-.44h0Z"/><path class="cls-12" d="M266.23,505.37c.39,11.91.41,23.83.06,35.74-.1,3.39-.23,6.78-.39,10.17,0-.07.67-.38.75-.42.09-.05.74-.33.74-.44.56-11.9.76-23.82.58-35.73-.05-3.39-.13-6.78-.24-10.17,0,.06-.68.38-.75.42-.08.05-.74.34-.74.44h0Z"/><path class="cls-12" d="M262.5,528.32c3.27,1.78,5.91,4.61,7.36,8.04-.02-.05,1.52-.78,1.49-.86-1.46-3.43-4.09-6.27-7.36-8.04-.08-.04-.66.37-.75.42s-.67.48-.74.44h0Z"/><path class="cls-12" d="M263.82,523.81c6.11,2.03,11.98,4.7,17.52,7.98.07.04.67-.37.75-.42s.67-.48.74-.44c-5.54-3.28-11.42-5.95-17.52-7.98-.11-.04-.64.36-.75.42s-.63.48-.74.44h0Z"/><path class="cls-12" d="M265.07,526.73c3.28-1.35,6.26-3.45,8.74-5.98,2.62-2.67,4.81-5.72,7.22-8.56,1.37-1.62,2.83-3.17,4.44-4.54-.42.36-1.03.53-1.49.86-6.07,4.37-12.01,8.9-17.83,13.59.44-.35,1.05-.5,1.49-.86,5.82-4.69,11.76-9.23,17.83-13.59l-1.49.86c-5.03,4.26-8.27,10.18-13.19,14.56-.65.58-1.33,1.13-2.04,1.63-.23.16-.46.32-.7.47-.07.05-.15.09-.22.14-.29.2.69-.36.14-.09-.47.23-.94.46-1.43.66-.53.22-.97.64-1.49.86h0Z"/><path class="cls-12" d="M276.53,502.9c-3.32,6.17-7.16,12.04-11.46,17.57.13-.17.56-.31.75-.42.21-.12.59-.24.74-.44,4.3-5.53,8.14-11.4,11.46-17.57-.08.15-.6.33-.75.42-.17.1-.64.26-.74.44h0Z"/><path class="cls-12" d="M275.82,493.15c-2.66,6.52-6.03,12.74-10.04,18.53.11-.17.57-.32.75-.42.2-.11.61-.25.74-.44,4.01-5.79,7.38-12.01,10.04-18.53-.05.13-.62.35-.75.42-.15.09-.67.27-.74.44h0Z"/><path class="cls-12" d="M270,497.04c-1.26,2.12-2.52,4.24-3.79,6.36.02-.03.22-.12.22-.12.18-.1.35-.2.53-.3s.35-.2.53-.31c.05-.03.18-.08.22-.13,1.26-2.12,2.52-4.24,3.79-6.36-.02.03-.22.12-.22.12-.18.1-.35.2-.53.3s-.35.2-.53.31c-.05.03-.18.08-.22.13h0Z"/><path class="cls-12" d="M267.98,493.01c-.31.83-.61,1.67-.92,2.5,0-.02.24-.13.22-.12.18-.1.35-.2.53-.3s.35-.2.53-.31c.04-.03.2-.09.22-.13.31-.83.61-1.67.92-2.5,0,.02-.24.13-.22.12-.18.1-.35.2-.53.3s-.35.2-.53.31c-.04.03-.2.09-.22.13h0Z"/><path class="cls-12" d="M209.73,439.14c8.71-.3,17.45,1.58,25.38,5.15,7.97,3.59,15.22,8.91,20.77,15.68,2.72,3.32,5.02,6.98,6.76,10.9,2.02,4.56,3.14,9.4,3.82,14.32,1.64,11.92.5,24.03-1.35,35.86-.47,2.99-.98,5.96-1.52,8.94s-.99,5.69-1.69,8.5c-1.32,5.31-2.48,10.66-3.84,15.96-.32,1.25-.65,2.49-1,3.72.03-.11.64-.36.75-.42.13-.08.7-.29.74-.44,1.49-5.26,2.67-10.6,3.93-15.92.64-2.69,1.34-5.35,1.84-8.07.53-2.92,1.06-5.84,1.56-8.77,2.02-11.85,3.55-23.93,2.54-35.97-.44-5.25-1.29-10.56-3.07-15.53-1.47-4.1-3.55-7.97-6.09-11.5-5.1-7.07-12.02-12.74-19.75-16.73-7.73-3.98-16.35-6.34-25.05-6.57-1.08-.03-2.16-.02-3.23.01-.2,0-.57.32-.75.42s-.53.43-.74.44h0Z"/><path class="cls-12" d="M142.41,500.66c.18-6.89,1.38-13.74,3.6-20.27,2.09-6.15,5.08-12,8.85-17.3s7.91-9.63,12.82-13.44c1.22-.95,2.48-1.85,3.77-2.7.64-.42,1.29-.82,1.95-1.22.3-.18-.1.05.17-.1.18-.1.36-.2.54-.3.32-.17.65-.35.97-.51,2.61-1.34,5.33-2.48,8.13-3.36,5.35-1.68,11-2.43,16.61-2.01.7.05,1.4.13,2.09.21.17.02.63-.35.78-.44s.6-.48.77-.45c-5.82-.74-11.74-.2-17.38,1.4s-11.29,4.43-16.32,7.77c-5.29,3.51-9.99,7.87-13.98,12.8-4.21,5.21-7.62,11.06-10.1,17.28-2.64,6.62-4.22,13.65-4.68,20.77-.06.92-.1,1.85-.12,2.77,0-.07.7-.39.78-.44.09-.05.77-.35.77-.45h0Z"/><path class="cls-12" d="M203.31,439.12c-4.72-3.12-8.79-7.29-11.29-12.41l-1.28.74c1.81.93,3.17,2.6,4.72,3.88,1.45,1.19,2.99,2.27,4.6,3.21,3.33,1.94,6.97,3.27,10.73,4.08,2.33.5,4.7.79,7.08.94.15,0,.51-.28.64-.36s.48-.38.63-.38c-7.9-.49-15.57-2.82-21.85-7.77-.82-.65-1.61-1.33-2.37-2.04-.92-.86-1.8-1.72-2.92-2.3-.1-.05-1.26.77-1.28.74,2.49,5.12,6.56,9.29,11.29,12.41.19.13,1.1-.85,1.28-.74h0Z"/><path class="cls-12" d="M188.62,476.39c.79.03,1.01.93,1.08,1.57.12,1.04.16,2.09.28,3.14.25,2.22.61,4.43,1.07,6.61.93,4.37,2.3,8.64,4.07,12.75-.02-.04,1.3-.67,1.28-.74-1.77-4.11-3.13-8.38-4.07-12.75-.47-2.18-.82-4.39-1.07-6.61-.12-1.04-.16-2.09-.28-3.14-.07-.64-.3-1.55-1.08-1.57-.16,0-.5.28-.64.36s-.47.38-.63.38h0Z"/><path class="cls-12" d="M173.95,474.27c.02,8.75,1.24,17.47,3.64,25.89-.03-.11,1.31-.61,1.28-.74-2.39-8.42-3.62-17.14-3.64-25.89,0,.05-.58.32-.64.36-.07.04-.64.29-.63.38h0Z"/><path class="cls-12" d="M175.25,473.75c-.51,6.32-.28,12.67.68,18.93-.03-.17,1.31-.55,1.28-.74-.96-6.26-1.19-12.62-.68-18.93,0,.07-.57.32-.64.36-.08.05-.63.28-.63.38h0Z"/><path class="cls-12" d="M141.1,501.41c-1.1,7.97-.88,16.08.65,23.98.45,2.3,1,4.58,1.66,6.83-.02-.09,1.09-.51,1.06-.61-2.25-7.76-3.29-15.85-2.94-23.92.1-2.3.31-4.6.63-6.89-.03.24-1.03.36-1.06.61h0Z"/><path class="cls-12" d="M144.23,504.06c-2.61,4.87-3.89,10.31-3.35,15.83-.02-.16,1.08-.44,1.06-.61-.55-5.52.74-10.97,3.35-15.83-.16.3-.9.3-1.06.61h0Z"/><path class="cls-12" d="M144.09,505.25c-1.63,3.95-.26,8.18.84,12.08,1.18,4.19,2.48,8.34,3.88,12.46-.02-.07,1.09-.53,1.06-.61-1.4-4.12-2.7-8.27-3.88-12.46-1.1-3.9-2.47-8.13-.84-12.08-.12.29-.94.31-1.06.61h0Z"/><path class="cls-12" d="M144.54,507.57c-.27,3.87.08,7.73,1.01,11.49-.03-.1,1.09-.5,1.06-.61-.93-3.76-1.28-7.63-1.01-11.49,0,.05-.48.27-.53.3-.07.04-.52.23-.53.31h0Z"/><path class="cls-12" d="M153.23,486.87c.04,8.5.68,16.99,1.96,25.39.36,2.37.77,4.73,1.22,7.08-.03-.16,1.39-.61,1.36-.79-2.18-11.35-1.7-23.19,1.38-34.33.87-3.15,1.95-6.24,3.24-9.25-.05.12-.56.32-.68.39-.14.08-.61.24-.68.4-4.53,10.63-6.51,22.29-5.84,33.82.19,3.28.6,6.54,1.22,9.76l1.36-.79c-1.62-8.34-2.63-16.79-3.01-25.28-.11-2.4-.16-4.8-.17-7.2,0,.06-.61.35-.68.39-.08.05-.68.31-.68.4h0Z"/><path class="cls-12" d="M156.55,484.34c-.6,8.65-.25,17.35,1.04,25.93l1.39-.8c-.36-2.35-.2-4.77.1-7.12.38-2.94,1.02-5.84,1.77-8.7,1.59-6.08,3.68-12.03,6.02-17.86,1.04-2.6,2.14-5.18,3.33-7.72-.06.13-.57.32-.7.39-.15.09-.61.24-.69.41-2.32,4.95-4.34,10.05-6.15,15.21-2.05,5.86-3.9,11.88-4.82,18.03-.4,2.68-.66,5.46-.25,8.16-.03-.18,1.42-.6,1.39-.8-1.29-8.58-1.64-17.27-1.04-25.93,0,.07-.62.35-.7.39-.09.05-.68.3-.69.41h0Z"/><path class="cls-4" d="M152.97,485.35c-2.66,9.63-4.12,19.62-4.32,29.64"/><path class="cls-4" d="M152.84,473.48c-3.13,11.49-4.55,23.48-4.19,35.42"/><path class="cls-9" d="M147.85,528.79c1.52,8.46,4.74,16.62,9.4,23.84"/><path class="cls-9" d="M156.35,547.08l1.02,4.99"/><path class="cls-9" d="M157.3,548.16c1.02,1.22,1.65,2.76,1.76,4.35"/><path class="cls-9" d="M159.91,549.75c.83,1.75,1.65,3.51,2.48,5.26"/><path class="cls-9" d="M162.31,549.15c.15,1.47.3,2.93.45,4.4"/><path class="cls-9" d="M162.66,549.32l1.02,2.11"/><path class="cls-9" d="M163.86,550.13c.63.25,1.11.86,1.21,1.54"/><path class="cls-9" d="M165.32,550.15c.52.29.84.91.77,1.51"/><path class="cls-9" d="M167.04,550.18l.19,1.05"/><path class="cls-9" d="M168.68,550.39l.44,1.04"/><path class="cls-9" d="M171.23,552.07l.42,2.93"/><path class="cls-9" d="M225,560.66l-.42,1.05"/><path class="cls-9" d="M227.2,560.06l-.42,2.31"/><path class="cls-9" d="M225.63,560.47l.22,1.05"/><path class="cls-9" d="M227.72,559.84l.2,1.47"/><path class="cls-9" d="M228.85,560.03l.41,1.26"/><path class="cls-9" d="M230.14,559.41l.17,1.47"/><path class="cls-9" d="M231.23,558.96l.38,1.33"/><path class="cls-9" d="M232.21,558.57l.2,1.47"/><path class="cls-9" d="M233.58,558.66c-.23.45.18,1.08.68,1.06"/><path class="cls-9" d="M235.47,557.75l.19,1.26"/><path class="cls-9" d="M236.15,557.32l.21,1.47"/><path class="cls-9" d="M237.61,556.9v1.26"/><path class="cls-9" d="M234.7,558.79c-.14.58,0,1.23.38,1.69"/><path class="cls-9" d="M239.36,557.29l.41.84"/><path class="cls-9" d="M240.97,560.07c.29-.07.56.34.38.58"/><path class="cls-9" d="M242.64,560.46l.63.42"/><path class="cls-9" d="M244.32,560.05h.21"/><path class="cls-9" d="M240.55,558.16l.63,2.52"/><path class="cls-9" d="M243.9,560.05h.42"/><path class="cls-9" d="M246.21,560.07l1.47-.21"/><path class="cls-9" d="M247.67,559.42h1.68"/><path class="cls-9" d="M250.62,558.84c.85-.19,1.49-1.07,1.41-1.94"/><path class="cls-9" d="M252.93,556.73c.21-.1.48.16.39.37"/><path class="cls-9" d="M249.14,558.79h.84"/><path class="cls-9" d="M251.88,559.01l1.04-.84"/><path class="cls-9" d="M254.02,556.52l.42-.63"/><path class="cls-9" d="M254.81,555.24l.63-.21"/><path class="cls-9" d="M255.43,554.6h.63"/><path class="cls-9" d="M252.87,557.44l1.48-.81"/><path class="cls-9" d="M255.41,555.81c.57-.25,1-.8,1.1-1.42"/><path class="cls-9" d="M245.74,558.95c-.48.5-.55,1.35-.14,1.91"/><path class="cls-9" d="M250.63,557.33c-.56.93-.79,2.06-.63,3.13"/><path class="cls-9" d="M254.18,555.65c-.09.55.15,1.15.6,1.49"/><path class="cls-9" d="M255.02,555.42l.84,1.04"/><path class="cls-9" d="M256.48,553.13v1.26"/><path class="cls-9" d="M257.74,553.55v1.05"/><path class="cls-2" d="M260.8,553.13v1.26"/><path class="cls-2" d="M263.97,533.85c.01,6.68-.71,13.36-2.14,19.9"/><path class="cls-9" d="M179.1,556.28c.11.62.53,1.17,1.1,1.44"/><path class="cls-9" d="M182.87,557.97l.83,1.47"/><path class="cls-9" d="M186,559.46c.35.42.7.84,1.05,1.25"/><path class="cls-9" d="M189.77,560.06c.27.77.53,1.55.8,2.32"/><path class="cls-9" d="M194.02,561.51l.21,1.47"/><path class="cls-9" d="M191.82,560.88c.01.84.41,1.66,1.07,2.19"/><path class="cls-9" d="M194.46,562.29c.55.26,1,.75,1.2,1.33"/><path class="cls-9" d="M196.54,562.95c.61.11,1.16.53,1.42,1.09"/><path class="cls-9" d="M199.24,563l.84.83"/><path class="cls-9" d="M201.41,562.29l1.46,1.48"/><path class="cls-9" d="M203.46,562.55l.63,1.26"/><path class="cls-9" d="M205.74,562.36l.57,1.28"/><path class="cls-9" d="M207.29,562.32l.62,1.47"/><path class="cls-9" d="M208.99,562.99c-.03.51.46.98.97.92"/><path class="cls-9" d="M211.58,562.58l.43.83"/><path class="cls-9" d="M214.12,561.52l.42,1.26"/><path class="cls-9" d="M216.43,561.32l.92,1.34"/><path class="cls-9" d="M219.17,561.51v1.26"/><path class="cls-9" d="M221.23,561.53l.44,1.04"/><path class="cls-9" d="M223.49,562l.85,1.04"/><path class="cls-9" d="M225.44,561.94l.42.84"/><path class="cls-9" d="M221.89,560.88l.84,1.47"/><path class="cls-9" d="M224.62,562.14l.84.63"/><path class="cls-9" d="M143.53,519.63c-.33,7.86.25,15.75,1.74,23.47"/><path class="cls-9" d="M147.49,527.92c-1.74,8.37,1.08,16.96,4.07,24.97,2.02,5.41,4.26,10.98,8.45,14.96"/><path class="cls-9" d="M156.3,550.14c-1.49,5.59-.25,11.85,3.27,16.45"/><path class="cls-9" d="M158.77,550.83c.79,5.16,2.75,10.14,5.67,14.47"/><path class="cls-9" d="M173.32,554.09l1.24.86"/><path class="cls-9" d="M173.06,554.58l2.31.83"/><path class="cls-9" d="M209.95,562.77h.42"/><path class="cls-12" d="M165.5,513.15c6.99-1.79,14.2-3.07,21.37-1.6,1.9.39,3.76.94,5.59,1.6.13.05.74-.42.86-.49s.73-.55.85-.5c-3.16-1.14-6.44-1.94-9.8-2.18s-6.91.07-10.31.67c-2.31.41-4.59.94-6.85,1.52-.62.16-1.11.84-1.72.99h0Z"/><path class="cls-12" d="M172.62,511.78c-.95,4.19.25,8.35,1.23,12.41.55,2.28,1.33,5.6,4.24,5.65.18,0,.54-.3.7-.39s.51-.41.69-.41c-2.91-.05-3.69-3.37-4.24-5.65-.98-4.06-2.18-8.22-1.23-12.41-.02.09-.6.34-.7.39-.11.06-.66.28-.69.41h0Z"/><path class="cls-12" d="M191.53,513.27c.68,3.47.35,7.12-.62,10.5-.35,1.23-.73,2.48-1.32,3.62-.28.55-.61,1.09-1.04,1.54-.09.09-.18.18-.28.27-.45.38-.12-.18.55-.29-.29.05-.53.15-.84.16-.17,0-.49.28-.64.36s-.46.37-.64.38c.63-.01,1.11-.28,1.64-.59.57-.33,1.14-.64,1.59-1.13,1-1.1,1.52-2.61,1.96-4,1.17-3.72,1.69-7.71.93-11.56.03.15-1.31.57-1.28.74h0Z"/><path class="cls-12" d="M173.43,515.27c1.81-1.12,3.63-2.25,5.44-3.37-.26.16-.75.41-1.08.62-1.81,1.12-3.63,2.25-5.44,3.37.26-.16.75-.41,1.08-.62h0Z"/><path class="cls-12" d="M174.73,517.41c3.11-1.83,6.22-3.66,9.33-5.49.18-.11.18-.11,0,0-.27.15-.53.3-.79.46-3.11,1.83-6.22,3.66-9.33,5.49-.18.11-.18.11,0,0,.27-.15.53-.3.79-.46h0Z"/><path class="cls-12" d="M173.94,519.92c4.62-2.5,9.25-5.01,13.87-7.51.34-.18.81-.48,1.08-.63-4.62,2.5-9.25,5.01-13.87,7.51-.34.18-.81.48-1.08.63h0Z"/><path class="cls-12" d="M174.53,521.44c4.86-2.94,9.72-5.88,14.58-8.82.21-.13-.19.1-.2.11-.26.14-.51.29-.76.44-4.86,2.94-9.72,5.88-14.58,8.82-.21.13.19-.1.2-.11.26-.14.51-.29.76-.44h0Z"/><path class="cls-12" d="M174.21,518.78c3.67-1.88,7.35-3.75,11.02-5.63.35-.18.8-.49,1.08-.63-3.67,1.88-7.35,3.75-11.02,5.63-.35.18-.8.49-1.08.63h0Z"/><path class="cls-12" d="M173.35,516.64c3.26-1.65,6.53-3.3,9.79-4.95.35-.17.8-.49,1.08-.63-3.26,1.65-6.53,3.3-9.79,4.95-.35.17-.8.49-1.08.63h0Z"/><path class="cls-12" d="M175.42,523.29c4.4-2.97,8.93-5.73,13.6-8.24.34-.18.81-.48,1.08-.63-5.4,2.9-10.68,6.05-15.76,9.48.25-.17.76-.4,1.08-.62h0Z"/><path class="cls-12" d="M176.65,524.79c5.24-3.63,10.48-7.26,15.72-10.9-.35.24-.76.4-1.12.65-5.24,3.63-10.48,7.26-15.72,10.9.35-.24.76-.4,1.12-.65h0Z"/><path class="cls-12" d="M177.32,526.67c4.87-3.14,9.73-6.29,14.6-9.43-.26.17-.75.41-1.08.62-4.87,3.14-9.73,6.29-14.6,9.43.26-.17.75-.41,1.08-.62h0Z"/><path class="cls-12" d="M178.56,527.75c4.59-3.32,9.17-6.64,13.76-9.96-.35.25-.77.39-1.12.65-4.59,3.32-9.17,6.64-13.76,9.96.35-.25.77-.39,1.12-.65h0Z"/><path class="cls-12" d="M180.38,527.7c3.97-2.68,7.75-5.65,11.3-8.87-.31.28-.81.36-1.12.65-3.54,3.21-7.3,6.17-11.26,8.85.25-.17.76-.4,1.08-.62h0Z"/><path class="cls-12" d="M182.04,528.68c3.45-2.39,6.84-4.85,10.18-7.39-.34.26-.78.39-1.12.65-3.34,2.54-6.73,5.01-10.18,7.39.35-.24.76-.4,1.12-.65h0Z"/><path class="cls-12" d="M185.43,527.68c2.37-1.62,4.73-3.24,7.1-4.86-.35.24-.76.4-1.12.65l-7.1,4.86c.35-.24.76-.4,1.12-.65h0Z"/><path class="cls-12" d="M176.45,529.41c3.89.7,7.87.68,11.76-.07.46-.09.83-.65,1.28-.74-3.88.75-7.87.77-11.76.07-.13-.02-.53.3-.64.36s-.51.4-.64.38h0Z"/><path class="cls-12" d="M175.14,528.84c.62.06,1.2.3,1.72.63,0,0,.15-.08.14-.08.11-.06.22-.13.33-.19s.22-.13.33-.19c.02,0,.13-.09.13-.08-.52-.34-1.1-.57-1.72-.63-.02,0-.14.07-.14.08-.11.06-.22.13-.33.19s-.22.13-.33.19c-.03.02-.11.08-.13.08h0Z"/><path class="cls-12" d="M194.07,510.53c-8.66-1.98-17.65-1.02-26.37,0-.26.03-.64.36-.86.49s-.6.47-.85.5c8.72-1.02,17.71-1.98,26.37,0,.16.04.72-.4.86-.49s.69-.54.85-.5h0Z"/><path class="cls-12" d="M192.31,511.32l.3,1.84s.29-.16.26-.14c.2-.11.41-.23.61-.35s.41-.23.61-.35c.03-.02.25-.13.25-.15l-.3-1.84s-.29.16-.26.14c-.2.11-.41.23-.61.35s-.41.23-.61.35c-.03.02-.25.13-.25.15h0Z"/><path class="cls-12" d="M166.44,511.61l-.84,1.4s.05-.03.08-.04c.06-.03.12-.07.18-.1.2-.11.41-.23.61-.35s.41-.23.61-.35l.13-.08s.08-.05.11-.07l.84-1.4s-.05.03-.08.04c-.06.03-.12.07-.18.1-.2.11-.41.23-.61.35s-.41.23-.61.35l-.13.08s-.08.05-.11.07h0Z"/><path class="cls-12" d="M166.72,511.75l-.14.98s.05-.03.08-.04c.06-.03.12-.07.18-.1.2-.11.41-.23.61-.35s.41-.23.61-.35l.13-.08s.08-.05.11-.07l.14-.98s-.05.03-.08.04c-.06.03-.12.07-.18.1-.2.11-.41.23-.61.35s-.41.23-.61.35l-.13.08s-.08.05-.11.07h0Z"/><path class="cls-12" d="M167.25,512.03l.13.84s.29-.16.26-.14c.2-.11.41-.23.61-.35s.41-.23.61-.35l.13-.08s.08-.05.11-.07l-.13-.84s-.29.16-.26.14c-.2.11-.41.23-.61.35s-.41.23-.61.35l-.13.08s-.08.05-.11.07h0Z"/><path class="cls-12" d="M168.41,511.74l.56.84s.29-.16.26-.14c.2-.11.41-.23.61-.35.06-.04.86-.5.85-.5l-.56-.84s-.29.16-.26.14c-.2.11-.41.23-.61.35-.06.04-.86.5-.85.5h0Z"/><path class="cls-12" d="M169.53,511.57l.83.3s.05-.03.08-.04c.06-.03.12-.07.18-.1.2-.11.41-.23.61-.35s.41-.23.61-.35l.13-.08s.08-.05.11-.07l-.83-.3s-.05.03-.08.04c-.06.03-.12.07-.18.1-.2.11-.41.23-.61.35s-.41.23-.61.35l-.13.08s-.08.05-.11.07h0Z"/><path class="cls-12" d="M170.49,511.34l.83.29s.05-.03.08-.04c.06-.03.12-.07.18-.1.2-.11.41-.23.61-.35s.41-.23.61-.35l.13-.08s.08-.05.11-.07l-.83-.29s-.05.03-.08.04c-.06.03-.12.07-.18.1-.2.11-.41.23-.61.35s-.41.23-.61.35l-.13.08s-.08.05-.11.07h0Z"/><path class="cls-12" d="M171.9,511.16l1.12.11s.05-.03.08-.04c.06-.03.12-.07.18-.1.2-.11.41-.23.61-.35s.41-.23.61-.35l.13-.08s.08-.05.11-.07l-1.12-.11s-.05.03-.08.04c-.06.03-.12.07-.18.1-.2.11-.41.23-.61.35s-.41.23-.61.35l-.13.08s-.08.05-.11.07h0Z"/><path class="cls-9" d="M248.5,463.06c1.28,1.35,1.75,3.26,2.14,5.08,2.57,12.17,3.63,24.66,3.15,37.1"/><path class="cls-12" d="M250.97,521.86c-.86,5.5-2.39,10.87-4.56,15.99.05-.12.54-.3.66-.37.14-.08.59-.23.65-.38,2.17-5.12,3.7-10.49,4.56-15.99-.01.08-.57.32-.66.37-.1.06-.63.27-.65.38h0Z"/><path class="cls-12" d="M159.77,520.22c-.08,6.06.9,12.1,2.88,17.84-.03-.08,1.34-.65,1.3-.75-1.98-5.73-2.95-11.77-2.88-17.84,0,.06-.59.33-.66.37-.08.05-.65.29-.65.38h0Z"/><path class="cls-12" d="M159.51,522.73c.18,4.29,2.2,8.38,5.48,11.15.14.12,1.18-.86,1.3-.75-3.29-2.77-5.3-6.86-5.48-11.15,0,.05-.59.33-.66.37-.07.04-.65.3-.65.38h0Z"/><path class="cls-12" d="M163.91,550.63c-.78,2.65-1.13,5.41-1.03,8.18,0-.05.63-.35.7-.39.08-.04.69-.32.69-.41-.1-2.77.25-5.53,1.03-8.18-.03.11-.59.33-.7.39-.16.09-.33.19-.49.29-.04.02-.19.08-.2.12h0Z"/><path class="cls-12" d="M165.07,551.27c-.56,8.42.91,16.94,4.24,24.7.95,2.2,2.05,4.34,3.28,6.4.01.02,1.39-.8,1.39-.8-4.35-7.24-6.94-15.48-7.52-23.91-.17-2.39-.16-4.8,0-7.19,0,.07-.62.35-.7.39-.09.05-.68.3-.69.41h0Z"/><path class="cls-12" d="M174,553.78c-3.33,7.78-4.26,16.52-2.7,24.84.44,2.36,1.09,4.68,1.93,6.94-.03-.07,1.42-.71,1.39-.8-2.95-7.93-3.46-16.71-1.5-24.94.56-2.34,1.32-4.63,2.27-6.84-.05.13-.57.32-.7.39-.14.08-.62.25-.69.41h0Z"/><path class="cls-12" d="M172.92,555.67c.62,8.77,2.58,17.42,5.82,25.6-.02-.06,1.42-.72,1.39-.8-3.24-8.18-5.2-16.83-5.82-25.6,0,.05-.63.36-.7.39-.07.04-.7.33-.69.41h0Z"/><path class="cls-12" d="M176.4,557.61c-1.85,3.21-2.52,7-1.88,10.65-.03-.17,1.42-.61,1.39-.8-.64-3.65.03-7.44,1.88-10.65-.08.14-.55.31-.7.39-.17.1-.59.24-.69.41h0Z"/><path class="cls-9" d="M169.63,550.24l.25,3.35"/><path class="cls-9" d="M172.45,552.72l.41.84"/><path class="cls-9" d="M177.78,555.89l-.2,1.68"/><path class="cls-9" d="M181.42,557.15c.14.77.7,1.44,1.43,1.72"/><path class="cls-9" d="M184.54,558.41c-.37.38-.1,1.15.43,1.21"/><path class="cls-12" d="M242.27,494.99c-.59,4.66-2.43,9.09-5.32,12.8.15-.2.64-.36.86-.49.24-.14.68-.28.85-.5,2.89-3.71,4.73-8.14,5.32-12.8-.01.1-.76.43-.86.49-.12.07-.84.36-.85.5h0Z"/><path class="cls-12" d="M245.75,512.79c-6.99-1.79-14.2-3.07-21.37-1.6-1.9.39-3.76.94-5.59,1.6-.61.22-1.11.77-1.72.99,3.16-1.14,6.44-1.94,9.8-2.18s6.91.07,10.31.67c2.31.41,4.59.94,6.85,1.52.15.04.73-.41.86-.49s.7-.54.85-.5h0Z"/><path class="cls-12" d="M237.25,512.42c.93,4.1-.2,8.18-1.17,12.16-.29,1.2-.57,2.43-1.11,3.55-.25.53-.57,1.04-.99,1.46-.11.11-.23.19-.34.3-.24.23,1.32-.61.52-.35-.32.1-.65.14-.99.15-.19,0-.54.3-.7.39s-.5.4-.69.41c.73-.01,1.31-.25,1.94-.61s1.26-.67,1.74-1.18c.99-1.04,1.41-2.53,1.75-3.88,1.09-4.27,2.43-8.78,1.43-13.19.03.14-1.42.64-1.39.8h0Z"/><path class="cls-12" d="M218.44,513.9c-.7,3.56-.31,7.29.69,10.76.57,1.98,1.54,5.73,4.15,5.79.16,0,.5-.28.64-.36s.47-.38.64-.38c-2.6-.06-3.58-3.8-4.15-5.79-1-3.47-1.39-7.19-.69-10.76-.02.08-.56.31-.64.36-.1.06-.61.26-.64.38h0Z"/><path class="cls-12" d="M233.47,515.91c1.81-1.12,3.63-2.25,5.44-3.37-.26.16-.75.41-1.08.62-1.81,1.12-3.63,2.25-5.44,3.37.26-.16.75-.41,1.08-.62h0Z"/><path class="cls-12" d="M220.12,518.05c3.11-1.83,6.22-3.66,9.33-5.49.18-.11.18-.11,0,0-.27.15-.53.3-.79.46-3.11,1.83-6.22,3.66-9.33,5.49-.18.11-.18.11,0,0,.27-.15.53-.3.79-.46h0Z"/><path class="cls-12" d="M219.33,520.56c4.62-2.5,9.25-5.01,13.87-7.51.34-.18.81-.48,1.08-.63-4.62,2.5-9.25,5.01-13.87,7.51-.34.18-.81.48-1.08.63h0Z"/><path class="cls-12" d="M219.93,522.08c4.86-2.94,9.72-5.88,14.58-8.82.21-.13-.19.1-.2.11-.26.14-.51.29-.76.44-4.86,2.94-9.72,5.88-14.58,8.82-.21.13.19-.1.2-.11.26-.14.51-.29.76-.44h0Z"/><path class="cls-12" d="M219.61,519.41c3.67-1.88,7.35-3.75,11.02-5.63.35-.18.8-.49,1.08-.63-3.67,1.88-7.35,3.75-11.02,5.63-.35.18-.8.49-1.08.63h0Z"/><path class="cls-12" d="M218.75,517.28c3.26-1.65,6.53-3.3,9.79-4.95.35-.17.8-.49,1.08-.63-3.26,1.65-6.53,3.3-9.79,4.95-.35.17-.8.49-1.08.63h0Z"/><path class="cls-12" d="M220.81,523.93c4.4-2.97,8.93-5.73,13.6-8.24.34-.18.81-.48,1.08-.63-5.4,2.9-10.68,6.05-15.76,9.48.25-.17.76-.4,1.08-.62h0Z"/><path class="cls-12" d="M222.05,525.42c5.24-3.63,10.48-7.26,15.72-10.9-.35.24-.76.4-1.12.65-5.24,3.63-10.48,7.26-15.72,10.9.35-.24.76-.4,1.12-.65h0Z"/><path class="cls-12" d="M222.72,527.3c4.87-3.14,9.73-6.29,14.6-9.43-.26.17-.75.41-1.08.62-4.87,3.14-9.73,6.29-14.6,9.43.26-.17.75-.41,1.08-.62h0Z"/><path class="cls-12" d="M223.96,528.38c4.59-3.32,9.17-6.64,13.76-9.96-.35.25-.77.39-1.12.65-4.59,3.32-9.17,6.64-13.76,9.96.35-.25.77-.39,1.12-.65h0Z"/><path class="cls-12" d="M225.78,528.33c3.97-2.68,7.75-5.65,11.3-8.87-.31.28-.81.36-1.12.65-3.54,3.21-7.3,6.17-11.26,8.85.25-.17.76-.4,1.08-.62h0Z"/><path class="cls-12" d="M227.44,529.32c3.45-2.39,6.84-4.85,10.18-7.39-.34.26-.78.39-1.12.65-3.34,2.54-6.73,5.01-10.18,7.39.35-.24.76-.4,1.12-.65h0Z"/><path class="cls-12" d="M230.83,528.32l7.1-4.86c-.35.24-.76.4-1.12.65-2.37,1.62-4.73,3.24-7.1,4.86.35-.24.76-.4,1.12-.65h0Z"/><path class="cls-12" d="M234.8,529.3c-3.89.7-7.87.68-11.76-.07-.13-.02-.53.3-.64.36s-.51.4-.64.38c3.88.75,7.87.77,11.76.07.46-.08.83-.66,1.28-.74h0Z"/><path class="cls-12" d="M236.12,528.94c-.36.04-.7.13-1.03.27-.17.07-.34.16-.51.25-.37.21-.75.42-1.1.65-.06.04.08-.04.05-.02.09-.05.19-.11.28-.16.19-.11.39-.22.57-.33.03-.02.06-.04.08-.05.18-.11-.83.47-.65.37.06-.03.11-.06.17-.09h-.02c.38-.17.79-.3,1.22-.34.03,0,.12-.07.14-.08.11-.06.22-.13.33-.19s.22-.13.33-.19c.03-.02.1-.08.13-.08h0Z"/><path class="cls-12" d="M217.19,512.15c8.66-1.98,17.65-1.02,26.37,0,.19.02.7-.39.86-.49s.66-.53.85-.5c-8.72-1.02-17.71-1.98-26.37,0-.62.14-1.11.85-1.72.99h0Z"/><path class="cls-12" d="M217.23,511.96l-.3,1.84s.28-.16.26-.14c.2-.11.41-.23.61-.35s.41-.23.61-.35l.13-.08s.08-.05.11-.07l.3-1.84s-.28.16-.26.14c-.2.11-.41.23-.61.35s-.41.23-.61.35l-.13.08s-.08.05-.11.07h0Z"/><path class="cls-12" d="M218.26,512.07c.03,1.54.07,3.07.1,4.61,0-.04.51-.28.56-.32.13-.08.26-.15.39-.23.02-.01.16-.08.16-.1-.03-1.54-.07-3.07-.1-4.61,0,.04-.51.28-.56.32-.13.08-.26.15-.39.23-.02.01-.16.08-.16.1h0Z"/><path class="cls-12" d="M218.46,512.48l.13,1.54s.19-.1.17-.09c.13-.07.26-.15.4-.23s.26-.15.39-.23c.02-.01.16-.08.16-.1l-.13-1.54s-.19.1-.17.09c-.13.07-.26.15-.4.23s-.26.15-.39.23c-.02.01-.16.08-.16.1h0Z"/><path class="cls-12" d="M218.57,512.21c1.36.06,2.71-.05,4.04-.32.05,0,.13-.07.17-.09.13-.07.26-.15.4-.23s.26-.15.39-.23c.04-.03.11-.09.16-.1-1.33.28-2.69.38-4.04.32-.03,0-.16.09-.17.09-.13.07-.26.15-.4.23s-.26.15-.39.23c-.03.02-.13.1-.16.1h0Z"/><path class="cls-12" d="M218.71,512.63h1.26s.15-.08.17-.09c.13-.07.26-.15.4-.23s.26-.15.39-.23l.09-.05s.05-.03.07-.05h-1.26s-.15.08-.17.09c-.13.07-.26.15-.4.23s-.26.15-.39.23l-.09.05s-.05.03-.07.05h0Z"/><path class="cls-12" d="M243.92,511.9l-.45,2.3s.28-.16.26-.14c.2-.11.41-.23.61-.35s.41-.23.61-.35c.04-.02.24-.11.25-.15l.45-2.3s-.28.16-.26.14c-.2.11-.41.23-.61.35s-.41.23-.61.35c-.04.02-.24.11-.25.15h0Z"/><path class="cls-12" d="M203.64,542.82c.42,1.26,1.43,2.37,2.73,2.73.61.17,1.26.15,1.86-.05.34-.11.65-.28.95-.46.36-.21.73-.41,1.05-.67.6-.49,1.06-1.15,1.32-1.88,0,.01-.13.07-.12.07-.1.05-.19.11-.29.16s-.19.11-.29.17c-.02.01-.11.05-.12.07-.22.6-.56,1.15-1.02,1.6-.1.1-.21.2-.33.29-.15.12-.69.45-.1.11s.06-.05-.11.02c-.14.06-.29.1-.44.14-1.16.28-2.35-.15-3.19-.97-.52-.5-.9-1.11-1.12-1.79,0,0-.38.21-.41.23s-.41.22-.4.24h0Z"/><path class="cls-12" d="M203.56,542.38c2.5.49,5.13.46,7.62-.09.17-.04.3-.23.46-.27-2.49.55-5.12.58-7.62.09-.05,0-.19.11-.23.13s-.18.15-.23.14h0Z"/><path class="cls-12" d="M295.94,471.42c8.62,1.36,17.27,2.52,25.95,3.49s17.34,1.75,26.04,2.37,17.4,1.08,26.11,1.41,17.53.51,26.29.59,17.48.04,26.22-.09c8.75-.12,17.5-.34,26.24-.61s17.5-.61,26.25-.98,17.5-.78,26.25-1.21,17.49-.86,26.23-1.28,17.6-.84,26.4-1.22,17.86-.74,26.8-1.08c8.89-.33,17.78-.64,26.68-.92,8.89-.28,17.79-.54,26.68-.78s17.79-.45,26.69-.65,17.79-.38,26.69-.54c8.9-.16,17.79-.3,26.69-.43s17.8-.24,26.69-.34,17.8-.19,26.7-.26c8.94-.07,17.88-.14,26.82-.19s17.8-.1,26.7-.14c8.9-.04,17.8-.07,26.7-.09s17.8-.04,26.7-.06c8.9-.02,17.8-.03,26.7-.04s17.81-.02,26.71-.03,17.83-.02,26.74-.03c8.96,0,17.91-.02,26.87-.03s17.83-.02,26.74-.03,17.83-.02,26.74-.03,17.83-.02,26.74-.03,17.83-.02,26.74-.03,17.83-.02,26.74-.03,17.83-.02,26.74-.03,17.83-.02,26.74-.03,17.91-.02,26.87-.03,17.83-.02,26.74-.03,17.83-.02,26.74-.03,17.83-.02,26.74-.03,17.83-.02,26.74-.03,17.83-.02,26.74-.03,17.83-.02,26.74-.03c8.62,0,17.25-.02,25.87-.03.29,0,.58-.5.87-.5-8.91,0-17.83.02-26.74.03-8.91,0-17.83.02-26.74.03-8.91,0-17.83.02-26.74.03s-17.91.02-26.87.03-17.83.02-26.74.03-17.83.02-26.74.03-17.83.02-26.74.03-17.83.02-26.74.03-17.83.02-26.74.03-17.83.02-26.74.03-17.91.02-26.87.03-17.83.02-26.74.03-17.83.02-26.74.03-17.83.02-26.74.03-17.83.02-26.74.03-17.83.02-26.74.03-17.83.02-26.74.03-17.81.02-26.71.03-17.88.02-26.82.04-17.8.04-26.7.06-17.8.05-26.7.09-17.8.08-26.7.14-17.8.12-26.7.19-17.8.16-26.7.26-17.8.21-26.69.34-17.88.27-26.82.44-17.79.34-26.69.54c-8.9.2-17.79.42-26.69.66s-17.79.5-26.68.79-17.79.59-26.68.93-17.78.69-26.67,1.08-17.59.79-26.38,1.22-17.49.86-26.23,1.28-17.58.83-26.37,1.21c-8.75.37-17.5.7-26.25.97s-17.49.47-26.24.59-17.48.15-26.21.07-17.45-.28-26.17-.61c-8.71-.33-17.42-.8-26.11-1.44s-17.37-1.43-26.03-2.41-16.76-2.08-25.09-3.4c-.26-.04-.61.54-.87.5h0Z"/><path class="cls-12" d="M1411.39,465.28c4.99,11.04.59,23.44-1.74,34.57-2.61,12.43-3.79,25.16-3.53,37.86.15,7.19.76,14.36,1.83,21.47-.02-.11.89-.37.87-.5-1.9-12.64-2.35-25.49-1.34-38.24.5-6.33,1.36-12.63,2.58-18.87,1.16-5.91,2.8-11.72,3.75-17.67,1.03-6.4,1.17-13.11-1.56-19.13.01.02-.88.46-.87.5h0Z"/><path class="cls-12" d="M309.92,468.62c-1.78,9.97-3.8,19.89-6.06,29.76s-4.74,19.6-7.47,29.31c-1.54,5.5-3.16,10.97-4.85,16.43.07-.23.79-.26.87-.5,3-9.67,5.77-19.41,8.3-29.21,2.52-9.76,4.8-19.59,6.85-29.46,1.16-5.59,2.24-11.2,3.24-16.82-.04.21-.83.28-.87.5h0Z"/><path class="cls-12" d="M278.6,562.98c9.09-1.46,18.23-2.64,27.39-3.6s18.34-1.69,27.54-2.26,18.49-.98,27.75-1.29,18.44-.51,27.66-.68c9.29-.17,18.57-.3,27.86-.44,9.36-.14,18.73-.27,28.09-.39,9.36-.12,18.73-.24,28.09-.34,9.36-.11,18.73-.21,28.09-.3,9.36-.09,18.73-.18,28.09-.26,9.36-.08,18.73-.15,28.09-.22,9.36-.07,18.73-.12,28.09-.18s18.81-.1,28.22-.13,18.73-.07,28.09-.09,18.73-.04,28.09-.05c9.36,0,18.73-.01,28.09,0s18.73.02,28.09.04c9.36.02,18.73.05,28.09.08,9.36.03,18.73.07,28.09.12s18.73.1,28.09.16c9.36.06,18.73.13,28.09.21s18.81.16,28.21.25c9.36.09,18.73.19,28.09.29,9.36.1,18.73.21,28.09.33s18.73.24,28.09.38,18.73.27,28.09.42,18.73.3,28.09.46c9.36.16,18.72.33,28.09.5s18.81.36,28.21.55c9.36.19,18.72.38,28.09.59s18.72.41,28.08.63,18.72.44,28.08.67,18.72.47,28.08.71c9.36.25,18.72.5,28.08.76,9.36.26,18.72.53,28.08.8,9.36.27,18.72.55,28.08.84,9.36.29,18.72.58,28.08.88,9.4.3,18.8.61,28.2.93,9.36.32,18.72.64,28.07.97,9.36.33,18.72.67,28.07,1.01s18.71.69,28.07,1.05,18.05.7,27.07,1.06c.29.01.59-.51.87-.5-9.36-.37-18.71-.74-28.07-1.09-9.36-.36-18.71-.71-28.07-1.05s-18.8-.68-28.2-1.01-18.72-.65-28.07-.97-18.72-.62-28.08-.92-18.72-.59-28.08-.88c-9.36-.29-18.72-.57-28.08-.84s-18.72-.54-28.08-.8c-9.36-.26-18.72-.51-28.08-.75-9.36-.24-18.72-.48-28.08-.71s-18.72-.45-28.08-.67c-9.4-.22-18.81-.43-28.21-.63s-18.72-.4-28.09-.59c-9.36-.19-18.72-.37-28.09-.54-9.36-.17-18.72-.34-28.09-.5s-18.72-.31-28.09-.46-18.73-.28-28.09-.42-18.73-.26-28.09-.37c-9.36-.12-18.73-.23-28.09-.33s-18.73-.2-28.09-.29-18.81-.17-28.21-.25-18.73-.14-28.09-.2c-9.36-.06-18.73-.12-28.09-.16s-18.73-.09-28.09-.12-18.73-.06-28.09-.08-18.73-.03-28.09-.04-18.73,0-28.09,0c-9.41,0-18.81.03-28.22.05-9.36.02-18.73.05-28.09.09s-18.73.08-28.09.13-18.73.11-28.09.18-18.73.14-28.09.22-18.73.17-28.09.26-18.73.2-28.09.3-18.73.22-28.09.35c-9.36.12-18.73.25-28.09.39s-18.65.27-27.97.44c-9.22.17-18.44.38-27.66.69-9.21.31-18.42.73-27.62,1.31s-18.37,1.33-27.53,2.3-17.64,2.09-26.41,3.49c-.31.05-.56.45-.87.5h0Z"/></g><g id="Layer_13"><path class="cls-12" d="M755.56,508.32c1.14,1.19-.05,1.52-1.22,1.65-3.99.47-7.92-.82-11.21,2.9l8.24,5.09c1.29,4.3-10.85,6-13.9,4.73-1.15-.48-.59-2.04-2.14-1.93-5.69.4-13.29,5.18-18.71.32-1.78-5.09,10.27-11.61,14.46-11.95,1.59-.13,6.5-.41,4.99,2.51-2.97,3.45-7.6,4.64-11.86,5.59-1.95.43-2.35-1.54-4.78,1.02-.81.85-1.76,1.13-.42,2.11l18.7-1.26-.42,1.66,11.63-1.67c-2-2.72-7.53-2.06-7.46-6.15.09-5.19,10.17-6.63,14.11-4.63Z"/><path class="cls-12" d="M1345.3,516.61c-6.09-2.36-14.87,1.46-15.77,8.31.45.45,5.4-1.13,6.38-1.5,4.66-1.8,7.41-5.71,11.89-6.79.73.66-4.51,6.51-4.97,7.9-.84,2.57,4.71-.45,5.8.4,2.32,2.03-9.3,5.47-7.48-1.67-3.94,2.77-13.65,6.69-14.12-.83-2.85,1.57-20.12,7.75-21.58,5.81,1.35-4.91,8.33-6.03,11.62-9.55l-5.81-.42c-.4-4.06,8.77-2.94,8.96-.42l-6.88,7.08c4.22-1.8,11.53-2.62,15.3-4.63,1.51-.81,2.69-2.95,4.26-4.04,3.52-2.45,10.73-5.53,12.4.36Z"/><path class="cls-12" d="M363.5,500.84l-4.97,19.1,8.74-1.63c2.63-4.53,2.8-10.08,4.32-14.83.45-1.4-.36-2.19,1.88-1.81.69,6.16-1.57,11.97-4.15,17.43,1.36.97,9.52-1.75,10.8,1.66l-11.68,1.21-2.45,10.43c-3.9-1.08.63-10.25,0-10.79l-8.19.11c-.52.33-3.51,11.22-3.47,11.87.03.49,1.6.42,1.73.98.51,2.28-1.72,5.27-4.18,5.3-1.69-1.91,6.55-29.66,8.06-33.87.54-1.51,1.38-5.69,3.56-5.16Z"/><path class="cls-12" d="M883.48,516.61c-.5-2.15.64-1.45,1.57-2.14,1.92-1.42,4.12-2.48,5.9-4.09-4.7-2.41-14.95,8.87-7.07,9.63,5.01.48,12.13-3.39,15.38-7.13,1.6-1.85,3.37-8.15,4.58-2.07,13.14-7.45,12.15,2.56,5.8,10.78-1.71-3.35,1.75-6.31,2.31-9.34.72-3.85-3.9-1.34-5.97-.13-1.92,1.13-5,5.12-6.13,5.62-1.88.83-7.5,3-9.54,3.63-17.67,5.47-12.06-11.67-2.07-13.7,11.12-2.26,1.32,10.26-4.76,8.95Z"/><path class="cls-12" d="M479.79,501.67c-.05,7.76-9.04,14.78-9.95,22.03-.43,3.41,6.83-1.53,8.29-1.27,1.44,1.38-4.34,4.58-5.6,4.82-2.4.44-3.92-.58-5.51-.43-1.36.13-3.74,2-5.68,2.49-4.3,1.08-20.76,4.9-17.94-4.61,1.33-4.46,16.82-14.66,20.21-9.74l-.83,1.64c-3.89-2.99-18.65,6.7-17.87,10.39,3.19,3.84,19.78-.1,22.22-2.25.66-.58,2.95-7.96,3.9-9.81,1.94-3.74,4.5-7.96,6.7-11.61.63-1.05-.16-2.1,2.06-1.64Z"/><path class="cls-12" d="M763.04,523.25c-.64-2.62,3.46-1.48,5.67-2.21,3.48-1.14,10.29-4.93,7.5-9.3-14.89-2.01-15.15,13.23-22.72,21.47-3.95-5.64,3.23-11.98,6.1-16.31,1.29-1.95,1.42-4.4,3.05-6.09l2.38,1.59c21.55-11.23,15.38,14.11-1.97,10.85Z"/><path class="cls-12" d="M960.72,495.86l-6.64,14.11c.49.48,10.22-5.27,12.89,0,3.65,7.18-15.19,16.3-17.87,8.32,5.28,2.51,17.69-1.45,15.69-8.23-3.41-.52-7.3.72-10.16,2.54s-4.37,5.87-8.02,5.68l11.36-21.41,2.75-1.01Z"/><path class="cls-12" d="M646.75,510.81c1.78,2.08-6.68,11.77-5.8,14.94,5.49-1.08,11.1-4.76,14.48-9.19,2.03-2.66,1.62-6.71,6.28-5.76.33,5.34-6.81,6.78-5.81,12.45,4.46,1.11,8.32-3.64,12.06-4.15,1.53-.21,1.81.96,1.22,1.64-.81.92-8.22,4.62-9.76,4.83-4.96.68-5.34-3.41-7.14-3.09-4.89,4.76-16.11,9.34-12.2-2.18.3-.9,5.38-11.02,6.68-9.5Z"/><path class="cls-12" d="M1090.35,524.11l-7.12,14.93c-2.16,1.05-.91-3.17-.66-3.99,1.9-6.41,7.18-12.27,8.14-19.27l.84-.81,2.08,1.3c1.98-2.84,8.84-7.92,11.71-4.3,3.4,7.93-7.72,15.51-14.98,12.13ZM1101.66,512.59c-1.54.12-6.91,5.45-8.03,6.94-2.81,3.73-.73,4.47,3.09,3.09,3.32-1.19,11.1-8.17,4.93-10.03Z"/><path class="cls-12" d="M399.18,517.53c-1.49,5.39-6.95,9.74-4.94,15.7-4.31.47-1.39-7.13-1.67-7.47-3.64,1.4-7.78,6.38-11.83,5.68-9.1-1.57,3.87-14.67,9.32-16.08,4.56-1.18,5.44.08,9.12,2.17ZM395.9,517.45c-7.7-1.24-13.71,5.25-16.61,11.62,1.42.09,2.81.08,4.19-.37,1.58-.52,14.12-9.82,12.42-11.24Z"/><path class="cls-12" d="M558.71,519.94l1.64-2.06,11.65-7.06c-4.29-.74-16.68,8.28-16.62,12.07,1.32,5.28,14.28-.73,15.79.39-3.39,4.72-19.02,6.83-17.45-2.05.8-4.51,17.47-17.65,20.41-11.26,1.35,2.94-11.95,11.47-15.41,9.98Z"/><path class="cls-12" d="M1246.45,514.96l-.82,6.64c.49.61,11.1-9.6,13.75-5.86,1.86,2.63-3.21,8.56-2.97,11.67-4.4-1.44,1.63-9.16.84-9.96l-13.68,7.47c-2.49-.52,1.1-6.06-.01-7.47-4.46,1.73-5.72,7.71-10.38,8.3-.83-.88,3.91-9.97,4.56-9.94.25,0,1.18,1.72,2.36,1.54s3.78-3.56,6.36-2.39Z"/><path class="cls-12" d="M1303.77,525.76c-2.42,3.97-18.71,3.31-20.36.01-3.98-7.96,15.64-15.44,18.34-11.7,3.08,4.26-9.05,8.87-11.67,8.37-.63-.12-1.72-1.34-.45-2.09,2.58-1.54,8.59-1.23,10.81-4.97-3.37-1.31-19,5.64-15.69,9.48.1.11,2.67.91,2.82.91h16.2Z"/><path class="cls-12" d="M1225.69,525.76c.73,2.15-2.62,2.08-3.97,2.25-25.2,3.17-9.58-16.27,1.85-15.5,11.28.76-6.69,12.72-11.17,10.76-.46-2.21.56-1.43,1.64-2.06,3.55-2.09,8.02-2.58,10.81-5.83-4-1.74-15.03,4.16-14.96,8.35l1.25,2.03h14.54Z"/><path class="cls-12" d="M1280.26,521.35c-3.65,3.93-10.75,3.81-13.48,6.03-1.9,1.55-4.71,8.34-6.54,10.93-.31.43-.96,3.05-2.15,1.56-1.41-1.77,11.09-20.5,11.98-24.14,5.06-3.8,16.07-.71,10.19,5.63ZM1279.68,516.62c-7.58-.66-8.55.87-10.79,7.46.72.58,12.04-3.89,10.79-7.46Z"/><path class="cls-12" d="M1127.68,514.96l-4.15,7.9,2.48,1.23-1.34,2.42-2.9-1.34.09-3.57c-3.01.59-4.86,3.51-8.1,3.99-12.18,1.82-.66-12.66,7.73-12.36,2.09.08,3.76,2.29,6.2,1.72ZM1123.53,517.44c-2.15-5.61-14.64,4.82-13.29,5.82,5.47.87,8.76-3.99,13.29-5.82Z"/><path class="cls-12" d="M400.89,519.11c1.47-3.57,12.23-3.06,14.4-1.73,3.76,2.3-3.29,7.03-4.43,9.2l9.96-3.31c1.86,1.76-8.62,6.07-9.73,6.45-.84.29-9.03,2.95-7.7-.21l10.79-10.4h-13.29Z"/><path class="cls-12" d="M517.18,514.13l5.8-2.49c.67,3.83-3.62,5.05-4.14,8.3l7.47.42c-2.4,2.66-5.95,2.57-9.02,1.13l-.94-4.03-4.99,5.81c-.13-1.43-.02-2.79.38-4.18.89-3.1,4.87-12.03,6.45-15.15.46-.92,1.23-2.03,2.29-2.27l-3.31,12.46Z"/><path class="cls-12" d="M796.26,524.09l-2.49-4.15c-3.75.85-7.01,4.51-10.83,1.11-1.63-6.69,12.69-16.33,17.27-9.01-1.5,4.24-6.15,7.2-3.95,12.05ZM797.09,511.64c-1.9-1.71-12.61,4.78-12.45,8.3,2.11,1.83,12.83-4.43,12.45-8.3Z"/><path class="cls-12" d="M1168.38,514.12c-4.38-.71-9.18,1.37-12.16,4.46-3.37,3.49-2.59,4.65,2.24,3.48s8.59-4.86,13.24-6.27l-4.16,9.96c-2.38-.75-1.18-2.42-.82-4.15-.74-.73-11.27,5.69-13.72,1.67-2.6-4.29,6.46-10.79,10.18-11.45,2.08-.37,5.29-.84,5.2,2.3Z"/><path class="cls-12" d="M591.1,523.26l3.33-11.2c-3.72-1.56-8.46,2.17-11.2,4.58-2.39,2.11-4.64,6.14-6.67,7.45-1.12.72-2.04.68-2.06-.41l8.05-12.13c3.52.77,7.16-2.36,9.8-2.32,8.29.13.7,16.21-1.26,14.02Z"/><path class="cls-12" d="M1000.6,510.81c1.19,4.14-3.01,4.62-4.2,6.4-.81,1.21-.51,3.4-2.04,4.39l-.41-2.5c-4.21,2.16-14.88,3.18-9.96-3.72,4.27-6,10.02-6.05,16.62-4.57ZM996.44,511.64c-1.41-1.29-11.65,3.39-11.62,6.64,4.24.4,11.12-1.62,11.62-6.64Z"/><path class="cls-12" d="M1055.96,517.99c-2.83,2.95-16.99,8.56-17.14,1.56-.12-5.47,12.82-9.48,16.99-8.78,3.68.62,2.07,5.23.15,7.22ZM1056.24,512.47c-1.3-1.64-1.72,1.57-2.2,1.67-2.33.47-13.91,1-13.56,5.39.36,4.51,18.75-3.28,15.76-7.06Z"/><path class="cls-12" d="M820.35,509.15v2.48c-3.01-1.69-16.21,4.31-14.12,7.47,5.75,2.04,11.66-.22,17.44-.81,2.51,2.39-10.75,4.22-12.04,4.22-2.3-.01-5.27-.9-7.13-2.3-3.5-5.12,11.2-13.1,15.86-11.06Z"/><path class="cls-12" d="M837.8,519.11c5.79.28,10.95-1.53,13.27-7.06l-3.3-2.9c11.68,1.48.32,12.4-7.08,12.32-11.92-.13.19-17.59,7.05-9.42-1.7,2.53-2.59-1.01-4.93-.02-1.47.62-6.62,5.56-5.02,7.08Z"/><path class="cls-12" d="M1037.97,510.8c-6.19,0-11.84,2.22-15.77,7.07,3.6,3.82,8.04.74,12.02,1.23,1.15.14,2.42.5,1.25,1.67-4.3,1.94-17.46,2.78-14.34-4.73,1.48-3.55,14.3-11.09,16.83-5.23Z"/><path class="cls-12" d="M683.31,521.6c-.98-3.83,4.97-7.72,1.13-10.73-6.52.35-9.3,6.49-13.19,10.73-1.53.64-1.43-.99-1.2-2.03.27-1.23,5.28-8.08,6-8.53,1.24-.79,7.76-2.2,9.32-1.9,5.27,1,1.64,10.95-2.06,12.47Z"/><path class="cls-12" d="M506.37,512.47c.49,2.76-3.74,2.18-5.57,3.14s-8.09,6.04-7.72,8.05c.57,3.06,11.57-.08,13.79-.33,1.64-.19,1.19.15,1.16,1.59-5.24,1.33-13.74,5.28-16.63-1.26-.43-4.39,10-13.09,14.97-11.18Z"/><path class="cls-12" d="M1132.67,524.09c-.41-5.11,5.27-7.88,6.66-12.45l1.57.11.5,1.59c3.63-1.61,8.27-4.51,12.02-1.29l-9.71,2.73-11.03,9.31Z"/><path class="cls-12" d="M1351.95,526.58c-1.52-1.52,5.5-9.58,7.06-10.79l.81,1.66c3.15-1.96,8.67-5.2,12.04-2.08-2.85,2.03-5.38.86-8.87,2.74-2.15,1.16-9.37,10.15-11.04,8.47Z"/><path class="cls-12" d="M1013.89,521.6l1.66-9.97c-6.92-1.28-8.91,4.3-12.89,8.3-2.94.13-.21-3.67.43-4.56,8.29-11.61,22.18-4.97,10.8,6.23Z"/><path class="cls-12" d="M983.15,496.69l-.92,3.64-10.7,18.78c-.54-4.71,2.37-9.23,4.55-13.3.52-.97,5.55-10.79,7.07-9.11Z"/><path class="cls-12" d="M488.93,514.96c.09,3.34-2.06,7.12-3.74,9.98-.63,1.08.15,2.09-2.06,1.64.19-2.83,1.48-5.97,2.75-8.47.67-1.32,1.09-3.66,3.05-3.15Z"/><path class="cls-12" d="M827.82,519.11c-2.65.72-1.73-2.78-1.45-4.37.44-2.47,1.26-5.07,3.94-5.6l-2.49,9.97Z"/></g></svg>